G04*
G04 #@! TF.GenerationSoftware,Altium Limited,Altium Designer,24.3.1 (35)*
G04*
G04 Layer_Color=65535*
%FSLAX25Y25*%
%MOIN*%
G70*
G04*
G04 #@! TF.SameCoordinates,02009FE0-2F78-44D1-98CB-FB6DFC462B79*
G04*
G04*
G04 #@! TF.FilePolarity,Positive*
G04*
G01*
G75*
%ADD10C,0.00394*%
%ADD11C,0.01000*%
D10*
X90984Y165630D02*
G03*
X90984Y165630I-32283J0D01*
G01*
Y386102D02*
G03*
X90984Y386102I-32283J0D01*
G01*
Y275866D02*
G03*
X90984Y275866I-32283J0D01*
G01*
Y55394D02*
G03*
X90984Y55394I-32283J0D01*
G01*
D11*
X93527Y118447D02*
X92527Y119447D01*
X90528D01*
X89528Y118447D01*
Y117447D01*
X90528Y116448D01*
X92527D01*
X93527Y115448D01*
Y114448D01*
X92527Y113449D01*
X90528D01*
X89528Y114448D01*
X95526Y118447D02*
X96526Y119447D01*
X98525D01*
X99525Y118447D01*
Y117447D01*
X98525Y116448D01*
X97526D01*
X98525D01*
X99525Y115448D01*
Y114448D01*
X98525Y113449D01*
X96526D01*
X95526Y114448D01*
X95527Y339547D02*
X94527Y340547D01*
X92528D01*
X91528Y339547D01*
Y338547D01*
X92528Y337548D01*
X94527D01*
X95527Y336548D01*
Y335548D01*
X94527Y334549D01*
X92528D01*
X91528Y335548D01*
X97526Y334549D02*
X99525D01*
X98526D01*
Y340547D01*
X97526Y339547D01*
X93527Y229247D02*
X92527Y230247D01*
X90528D01*
X89528Y229247D01*
Y228247D01*
X90528Y227248D01*
X92527D01*
X93527Y226248D01*
Y225249D01*
X92527Y224249D01*
X90528D01*
X89528Y225249D01*
X99525Y224249D02*
X95526D01*
X99525Y228247D01*
Y229247D01*
X98525Y230247D01*
X96526D01*
X95526Y229247D01*
X21827Y106547D02*
X20827Y107547D01*
X18828D01*
X17828Y106547D01*
Y105547D01*
X18828Y104548D01*
X20827D01*
X21827Y103548D01*
Y102549D01*
X20827Y101549D01*
X18828D01*
X17828Y102549D01*
X26825Y101549D02*
Y107547D01*
X23826Y104548D01*
X27825D01*
M02*
