G04*
G04 #@! TF.GenerationSoftware,Altium Limited,Altium Designer,24.3.1 (35)*
G04*
G04 Layer_Color=32896*
%FSLAX25Y25*%
%MOIN*%
G70*
G04*
G04 #@! TF.SameCoordinates,02009FE0-2F78-44D1-98CB-FB6DFC462B79*
G04*
G04*
G04 #@! TF.FilePolarity,Positive*
G04*
G01*
G75*
%ADD11C,0.01000*%
%ADD18C,0.00787*%
%ADD25C,0.00009*%
G36*
X53934Y128873D02*
X54179Y128771D01*
X54390Y128609D01*
X54390Y128609D01*
X54390Y128609D01*
X54552Y128399D01*
X54653Y128153D01*
X54677Y127974D01*
X54688Y127890D01*
Y127801D01*
Y113846D01*
X54680D01*
X54711Y113692D01*
X54798Y113563D01*
X54927Y113476D01*
X55080Y113446D01*
X55082Y113446D01*
X55168Y113453D01*
X64836D01*
Y113452D01*
X64982Y113423D01*
X65107Y113339D01*
X65153Y113270D01*
X65190Y113215D01*
X65219Y113068D01*
X65190Y112922D01*
X65107Y112797D01*
X65037Y112750D01*
X64982Y112714D01*
X64836Y112685D01*
Y112683D01*
X54936D01*
X54935Y112684D01*
X54675Y112718D01*
X54430Y112820D01*
X54281Y112934D01*
X54215Y112987D01*
X54056Y113193D01*
X53955Y113439D01*
X53920Y113703D01*
X53921Y113712D01*
X53920Y113712D01*
X53920Y113712D01*
Y127661D01*
X53927Y127747D01*
X53927Y127747D01*
X53897Y127901D01*
X53810Y128031D01*
X53679Y128118D01*
X53528Y128148D01*
X53528Y128141D01*
X53528Y128141D01*
X42053D01*
X42053Y128141D01*
X42053Y128148D01*
X41901Y128118D01*
X41770Y128031D01*
X41683Y127901D01*
X41653Y127747D01*
X41660Y127747D01*
Y113791D01*
X41660Y113703D01*
X41649Y113616D01*
X41625Y113439D01*
X41524Y113193D01*
X41362Y112982D01*
X41151Y112820D01*
X40905Y112718D01*
X40643Y112684D01*
Y112683D01*
X36482D01*
X36480Y112685D01*
X36480D01*
X36335Y112714D01*
X36277Y112753D01*
X36208Y112801D01*
X36127Y112922D01*
X36113Y112993D01*
X36099Y113072D01*
X36100Y113075D01*
X36115Y113159D01*
X36128Y113223D01*
X36211Y113347D01*
X36335Y113430D01*
X36480Y113459D01*
X36480Y113459D01*
Y113459D01*
X36482Y113460D01*
X40412D01*
X40498Y113453D01*
X40500Y113453D01*
X40653Y113484D01*
X40782Y113570D01*
X40783Y113570D01*
X40869Y113700D01*
X40900Y113853D01*
X40900Y113853D01*
X40892Y113939D01*
Y127801D01*
Y127890D01*
X40904Y127976D01*
X40927Y128153D01*
X41028Y128399D01*
X41190Y128609D01*
X41190Y128609D01*
X41190Y128609D01*
X41401Y128771D01*
X41646Y128873D01*
X41909Y128907D01*
X41910Y128907D01*
X53670D01*
X53671Y128907D01*
X53934Y128873D01*
D02*
G37*
G36*
X69278D02*
X69524Y128771D01*
X69734Y128609D01*
X69734Y128609D01*
X69735Y128609D01*
X69896Y128399D01*
X69998Y128153D01*
X70032Y127890D01*
X70032Y127890D01*
Y117758D01*
X70031D01*
X70002Y117611D01*
X69965Y117556D01*
X69919Y117487D01*
X69794Y117403D01*
X69732Y117391D01*
X69648Y117374D01*
X69502Y117403D01*
X69378Y117486D01*
X69295Y117610D01*
X69266Y117756D01*
X69266Y117758D01*
X69265D01*
X69265Y117758D01*
Y127745D01*
X69272Y127752D01*
X69241Y127906D01*
X69154Y128036D01*
X69024Y128124D01*
X68870Y128154D01*
Y128147D01*
X58890D01*
X58803Y128154D01*
X58802Y128155D01*
X58801Y128155D01*
X58720Y128121D01*
X58686Y128040D01*
X58686Y128039D01*
X58713Y127974D01*
X58768Y127905D01*
X69393Y113507D01*
X69393Y113505D01*
X69449Y113468D01*
X69477Y113462D01*
X69479Y113462D01*
X80602D01*
X80689Y113455D01*
X80690Y113455D01*
X80843Y113485D01*
X80972Y113572D01*
X80972D01*
X80973Y113572D01*
X81060Y113702D01*
X81090Y113855D01*
Y113855D01*
X81083Y113941D01*
Y128446D01*
X81084D01*
X81113Y128593D01*
X81196Y128718D01*
X81321Y128801D01*
X81466Y128830D01*
X81552Y128813D01*
X81612Y128801D01*
X81667Y128764D01*
X81737Y128718D01*
X81820Y128593D01*
X81849Y128446D01*
X81850D01*
Y113791D01*
Y113703D01*
X81850D01*
X81839Y113616D01*
X81816Y113439D01*
X81714Y113193D01*
X81552Y112982D01*
X81341Y112820D01*
X81095Y112718D01*
X80833Y112684D01*
Y112683D01*
X69484D01*
X69479Y112689D01*
X69479D01*
X69280Y112715D01*
X69057Y112807D01*
X68866Y112953D01*
X68786Y113058D01*
X68786D01*
X68774Y113059D01*
X57662Y128098D01*
X57662Y128099D01*
X57669Y128104D01*
X57617Y128172D01*
X57568Y128289D01*
X57551Y128416D01*
X57568Y128542D01*
X57617Y128660D01*
X57694Y128761D01*
X57795Y128838D01*
X57913Y128887D01*
X58039Y128904D01*
X58070Y128900D01*
X58070Y128907D01*
X69015D01*
X69015Y128907D01*
X69278Y128873D01*
D02*
G37*
G36*
X48659Y107948D02*
X49188Y107843D01*
X49682Y107675D01*
X49683Y107673D01*
X50068Y107483D01*
X50439Y107235D01*
X50774Y106941D01*
X50932Y106762D01*
X50932Y106762D01*
X51070Y106604D01*
X51370Y106156D01*
X51609Y105672D01*
X51732Y105309D01*
Y105309D01*
X51737Y105306D01*
X51889Y104700D01*
X51989Y104023D01*
X52023Y103339D01*
X51989Y102655D01*
X51889Y101978D01*
X51737Y101372D01*
X51731Y101369D01*
X51693Y101235D01*
X51511Y100795D01*
X51281Y100379D01*
X51005Y99991D01*
X50927Y99904D01*
X50926Y99904D01*
X50757Y99712D01*
X50430Y99425D01*
X50067Y99182D01*
X49689Y98996D01*
X49681Y98999D01*
D01*
X49681D01*
X49681D01*
X49521Y98932D01*
X49042Y98794D01*
X48550Y98711D01*
X48052Y98683D01*
X47555Y98711D01*
X47063Y98794D01*
X46584Y98932D01*
X46424Y98999D01*
X46417Y98996D01*
X46043Y99181D01*
X45671Y99430D01*
X45334Y99725D01*
X45172Y99910D01*
X45170Y99909D01*
X45099Y99988D01*
X44827Y100372D01*
X44599Y100784D01*
X44419Y101220D01*
X44374Y101374D01*
X44374D01*
X44368Y101377D01*
X44220Y101970D01*
X44120Y102648D01*
X44086Y103333D01*
X44120Y104018D01*
X44220Y104697D01*
X44369Y105290D01*
X44373Y105292D01*
X44496Y105653D01*
X44735Y106139D01*
X45036Y106589D01*
X45175Y106747D01*
X45175Y106747D01*
X45342Y106937D01*
X45676Y107230D01*
X46045Y107476D01*
X46419Y107661D01*
X46426Y107658D01*
X46641Y107747D01*
X47091Y107876D01*
X47552Y107955D01*
X47983Y107979D01*
X48072Y107978D01*
X48161Y107981D01*
X48659Y107948D01*
D02*
G37*
G36*
X68321Y107977D02*
X68410Y107979D01*
X68649Y107968D01*
X68738Y107965D01*
X68960Y107954D01*
X68961Y107953D01*
X69082Y107947D01*
X69255Y107922D01*
X69344Y107910D01*
X69533Y107878D01*
X69533Y107878D01*
X69709Y107848D01*
X69795Y107826D01*
X69898Y107805D01*
X70039Y107757D01*
X70039Y107757D01*
X70184Y107708D01*
X70267Y107679D01*
X70278Y107676D01*
X70351Y107648D01*
X70477Y107586D01*
X70560Y107551D01*
X70780Y107416D01*
X70853Y107371D01*
X70920Y107316D01*
X71129Y107138D01*
X71354Y106875D01*
X71544Y106565D01*
X71610Y106405D01*
X71610D01*
X71644Y106323D01*
X71692Y106209D01*
X71687Y106200D01*
X71732Y106068D01*
X71754Y105982D01*
X71771Y105898D01*
X71830Y105601D01*
X71820Y105563D01*
X71772Y105512D01*
X70941D01*
X70927Y105653D01*
X70837Y105951D01*
X70690Y106225D01*
X70493Y106465D01*
X70273Y106646D01*
X70252Y106663D01*
X70199Y106692D01*
Y106692D01*
X70065Y106763D01*
X70067Y106768D01*
X69920Y106829D01*
Y106829D01*
X69765Y106893D01*
X69765Y106894D01*
X69749Y106901D01*
X69680Y106917D01*
X69599Y106937D01*
X69594Y106944D01*
X69493Y106964D01*
X69411Y106980D01*
X69410Y106981D01*
X69409Y106981D01*
X69328Y106997D01*
X69216Y107019D01*
X69213Y107016D01*
X69096Y107036D01*
X69029Y107048D01*
X69009Y107050D01*
Y107050D01*
X68878Y107057D01*
X68789Y107063D01*
X68400Y107082D01*
X68324Y107086D01*
X68312Y107085D01*
X68223Y107084D01*
X68170Y107088D01*
X67699Y107057D01*
X67237Y106965D01*
X66962Y106872D01*
X66960Y106875D01*
X66960Y106875D01*
X66915Y106861D01*
X66878Y106841D01*
X66628Y106708D01*
X66377Y106501D01*
X66270Y106372D01*
X66215Y106305D01*
X66084Y106091D01*
X65968Y105811D01*
X65903Y105539D01*
X65898Y105517D01*
X65892Y105451D01*
X65882Y105362D01*
X65847Y105094D01*
X65819Y104456D01*
X65818Y104425D01*
Y104425D01*
X65820Y104376D01*
X65826Y104373D01*
X65826Y104372D01*
X65830Y104371D01*
X65830Y104371D01*
X66889D01*
Y104370D01*
X66896Y104370D01*
X67310Y104357D01*
X67399Y104354D01*
X67488Y104351D01*
X67795Y104340D01*
X67883Y104334D01*
X67971Y104330D01*
X67972Y104330D01*
X68252Y104297D01*
X68340Y104287D01*
X68429Y104276D01*
X68771Y104231D01*
X68772Y104230D01*
X68890Y104215D01*
X69176Y104151D01*
Y104151D01*
X69264Y104133D01*
X69555Y104060D01*
X69555Y104060D01*
X69694Y104025D01*
X69907Y103949D01*
X69993Y103922D01*
X70234Y103823D01*
X70316Y103788D01*
X70656Y103620D01*
X70736Y103567D01*
X70808Y103519D01*
X71020Y103388D01*
X71338Y103117D01*
X71609Y102799D01*
X71828Y102443D01*
X71988Y102057D01*
X72085Y101651D01*
X72116Y101254D01*
X72115Y101193D01*
X72112Y101165D01*
X72112D01*
X72112Y101076D01*
X72087Y100758D01*
X71999Y100392D01*
X71931Y100229D01*
X71898Y100148D01*
X71898D01*
X71855Y100046D01*
X71664Y99733D01*
X71426Y99454D01*
X71318Y99362D01*
X71318Y99362D01*
X71144Y99214D01*
X70796Y99001D01*
X70531Y98891D01*
X70446Y98862D01*
X70241Y98793D01*
X69815Y98708D01*
X69444Y98684D01*
X69356Y98681D01*
X69268Y98683D01*
X68723Y98710D01*
X68494Y98744D01*
X68405Y98753D01*
X67977Y98839D01*
X67719Y98926D01*
X67637Y98954D01*
X67554Y98984D01*
X67179Y99140D01*
X66834Y99330D01*
X66759Y99377D01*
X66759D01*
X66495Y99535D01*
X66003Y99900D01*
X65970Y99930D01*
X65909Y99985D01*
X65833Y100054D01*
X65821Y100048D01*
X65820Y100044D01*
X65820Y99946D01*
Y99864D01*
Y98906D01*
X64902D01*
Y104685D01*
X64902Y104686D01*
X64906Y104686D01*
X64902Y104742D01*
X64932Y105277D01*
X65022Y105805D01*
X65095Y106058D01*
X65093Y106059D01*
X65113Y106143D01*
X65265Y106510D01*
X65473Y106849D01*
X65683Y107096D01*
X65746Y107157D01*
X66007Y107381D01*
X66361Y107597D01*
X66733Y107752D01*
X66741Y107748D01*
X67135Y107862D01*
X67668Y107953D01*
X68207Y107983D01*
X68321Y107977D01*
D02*
G37*
G36*
X41853Y98906D02*
X40935D01*
Y105370D01*
X40934Y105373D01*
X40937Y105375D01*
X40560Y105791D01*
X40069Y106236D01*
X39597Y106586D01*
X39536Y106631D01*
X39525Y106638D01*
X39522Y106633D01*
X39259Y106794D01*
X38871Y106955D01*
X38463Y107053D01*
X38061Y107084D01*
Y107084D01*
X37984Y107087D01*
X37972Y107086D01*
X37533Y107052D01*
X37169Y106964D01*
X37093Y106946D01*
X37083Y106942D01*
X37000Y106909D01*
X36993Y106907D01*
X36732Y106768D01*
X36504Y106580D01*
X36437Y106499D01*
X36437Y106499D01*
X36382Y106430D01*
X36334Y106373D01*
X36168Y106061D01*
X36075Y105756D01*
X36075Y105756D01*
X35993Y105271D01*
X35965Y104774D01*
X35963Y104750D01*
X35967Y104685D01*
X35971Y104597D01*
Y98906D01*
X35053D01*
Y104765D01*
X35053Y104765D01*
X35054D01*
X35054Y104780D01*
X35078Y105288D01*
X35086Y105377D01*
X35086D01*
X35091Y105474D01*
X35153Y105835D01*
X35171Y105923D01*
X35209Y106113D01*
X35308Y106404D01*
X35337Y106489D01*
X35434Y106723D01*
X35616Y107020D01*
X35842Y107285D01*
X36107Y107511D01*
X36400Y107691D01*
X36401Y107691D01*
X36401D01*
X36729Y107826D01*
X36814Y107848D01*
X36900Y107873D01*
X37297Y107952D01*
X37714Y107979D01*
X37789Y107980D01*
X37803Y107979D01*
Y107979D01*
X37890Y107975D01*
X38267Y107954D01*
X38485Y107917D01*
X38572Y107902D01*
X38820Y107852D01*
X39162Y107736D01*
X39245Y107706D01*
X39324Y107669D01*
X39687Y107490D01*
X40060Y107241D01*
X40061Y107237D01*
X40181Y107152D01*
X40649Y106733D01*
X40786Y106580D01*
X40841Y106519D01*
X40915Y106436D01*
X40925Y106439D01*
X40925Y106439D01*
X40928Y106441D01*
X40929Y106444D01*
X40930Y106553D01*
Y106553D01*
X40930Y106635D01*
X40935Y111413D01*
X41853D01*
Y98906D01*
D02*
G37*
G36*
X28616Y107977D02*
Y107977D01*
X28705Y107975D01*
X29065Y107955D01*
X29242Y107924D01*
X29248Y107929D01*
X29643Y107834D01*
X29931Y107715D01*
X29931D01*
X29931Y107715D01*
X30270Y107548D01*
X30698Y107262D01*
X30700Y107252D01*
Y107252D01*
X30858Y107134D01*
X31290Y106744D01*
X31438Y106580D01*
X31493Y106519D01*
X31493D01*
X31568Y106436D01*
X31577Y106439D01*
X31577Y106439D01*
Y106439D01*
X31581Y106441D01*
X31581Y106441D01*
X31582Y106444D01*
Y106553D01*
X31582Y106636D01*
Y107754D01*
X32500D01*
Y98906D01*
X31582D01*
Y105348D01*
Y105348D01*
X31581Y105351D01*
X31582Y105352D01*
X31486Y105482D01*
X31058Y105954D01*
X30587Y106381D01*
X30256Y106626D01*
X30259Y106631D01*
X29949Y106821D01*
X29598Y106966D01*
X29228Y107055D01*
X28869Y107083D01*
X28804Y107085D01*
X28780Y107083D01*
X28456Y107058D01*
X28117Y106976D01*
X28114Y106975D01*
X28032Y106942D01*
X27992Y106930D01*
X27950Y106908D01*
X27779Y106817D01*
X27593Y106664D01*
X27472Y106517D01*
X27468Y106519D01*
X27468Y106519D01*
X27458Y106507D01*
X27423Y106442D01*
X27287Y106187D01*
X27187Y105859D01*
X27182Y105841D01*
X27175Y105772D01*
X27177Y105772D01*
X27114Y105348D01*
X27086Y104773D01*
X27085Y104764D01*
X27089Y104685D01*
X27093Y104597D01*
Y98903D01*
X26175D01*
Y105344D01*
X26174Y105347D01*
X26174Y105347D01*
X26063Y105498D01*
X25679Y105921D01*
X25255Y106305D01*
X24821Y106627D01*
X24820Y106624D01*
X24541Y106796D01*
X24160Y106953D01*
X23759Y107050D01*
X23464Y107073D01*
X23380Y107080D01*
Y107080D01*
X23377Y107081D01*
X23277Y107074D01*
X23188Y107069D01*
X23006Y107054D01*
Y107054D01*
X22932Y107048D01*
X22918Y107045D01*
X22836Y107025D01*
X22836Y107025D01*
X22677Y106987D01*
X22678Y106984D01*
X22594Y106959D01*
X22529Y106939D01*
X22504Y106931D01*
X22395Y106873D01*
X22394Y106872D01*
X22394Y106872D01*
X22318Y106831D01*
X22269Y106805D01*
X22264Y106801D01*
X22205Y106753D01*
X22202Y106751D01*
X22200Y106749D01*
X22091Y106660D01*
X21974Y106517D01*
X21973Y106517D01*
X21973Y106517D01*
X21949Y106487D01*
X21900Y106396D01*
X21900Y106396D01*
X21900D01*
X21829Y106264D01*
X21832Y106263D01*
X21771Y106116D01*
X21770Y106116D01*
X21742Y106048D01*
X21740Y106040D01*
Y106040D01*
X21738Y106034D01*
X21717Y105955D01*
X21705Y105919D01*
X21694Y105864D01*
X21677Y105778D01*
X21639Y105588D01*
X21639D01*
X21627Y105500D01*
X21621Y105470D01*
X21606Y105384D01*
X21599Y105254D01*
X21593Y105165D01*
X21574Y104773D01*
X21570Y104699D01*
X21571Y104685D01*
X21578Y104599D01*
Y98906D01*
X20723D01*
X20660Y98970D01*
X20671Y104765D01*
X20672Y104765D01*
X20671Y104785D01*
X20696Y105288D01*
X20702Y105377D01*
X20711Y105535D01*
X20762Y105835D01*
X20778Y105923D01*
X20795Y106009D01*
X20835Y106210D01*
X20901Y106404D01*
X20901Y106404D01*
X20901Y106404D01*
X20974Y106619D01*
X21073Y106822D01*
X21112Y106902D01*
X21249Y107124D01*
X21453Y107364D01*
X21693Y107569D01*
X21886Y107687D01*
X21886D01*
X21962Y107732D01*
X22173Y107819D01*
X22254Y107852D01*
X22336Y107871D01*
X22655Y107948D01*
X23056Y107979D01*
X23143Y107980D01*
X23144Y107980D01*
Y107980D01*
X23232Y107975D01*
X23612Y107954D01*
X23924Y107901D01*
X23925Y107900D01*
X24177Y107850D01*
X24605Y107705D01*
X24724Y107646D01*
X24723Y107646D01*
X25000Y107509D01*
X25412Y107234D01*
X25506Y107151D01*
X25505Y107151D01*
X25780Y106910D01*
X26136Y106504D01*
X26234Y106357D01*
X26254Y106361D01*
X26269Y106421D01*
X26277Y106442D01*
X26280Y106449D01*
X26404Y106749D01*
X26589Y107050D01*
X26818Y107319D01*
X27065Y107530D01*
X27140Y107577D01*
X27215Y107624D01*
X27334Y107696D01*
X27716Y107855D01*
X28118Y107951D01*
X28530Y107984D01*
X28616Y107977D01*
D02*
G37*
G36*
X62421Y110506D02*
X54657D01*
X54656Y110505D01*
X54654Y110505D01*
X54654Y110505D01*
X54654Y110504D01*
X54654Y110504D01*
X54653Y110503D01*
X54653Y110501D01*
X54653Y110501D01*
X54652Y110501D01*
X54653Y110500D01*
X54654Y110498D01*
X54720Y110417D01*
X54772Y110353D01*
X63171Y100111D01*
Y98906D01*
X53475D01*
Y99811D01*
X62053D01*
X62135Y99811D01*
X62240D01*
X62242Y99812D01*
X62244Y99812D01*
X62244Y99813D01*
X62244Y99813D01*
X62244Y99813D01*
X62245Y99814D01*
X62245Y99816D01*
X62245Y99816D01*
X62245Y99816D01*
X62245Y99816D01*
X62245Y99818D01*
X62244Y99819D01*
X62177Y99900D01*
Y99900D01*
X62125Y99964D01*
X53712Y110195D01*
Y111413D01*
X62421D01*
Y110506D01*
D02*
G37*
G36*
X82131Y107759D02*
X82132Y107756D01*
X82135Y107754D01*
X83271D01*
Y106850D01*
X82135D01*
X82132Y106848D01*
X82131Y106845D01*
Y101428D01*
X82131Y101428D01*
X82127Y101428D01*
X82130Y101347D01*
X82099Y100554D01*
X82065Y100268D01*
X82065Y100268D01*
X82053Y100123D01*
X81975Y99797D01*
X81862Y99524D01*
X81818Y99446D01*
X81818D01*
X81778Y99371D01*
X81634Y99196D01*
X81459Y99052D01*
X81273Y98953D01*
X81268Y98955D01*
X81120Y98893D01*
X80766Y98808D01*
X80403Y98780D01*
X80311Y98787D01*
X80225Y98781D01*
X80193Y98781D01*
X80154Y98782D01*
X80154D01*
X80125Y98782D01*
X80036Y98792D01*
X80036Y98792D01*
X79920Y98800D01*
X79830Y98798D01*
X79802Y98800D01*
X79723Y98807D01*
X79645Y98814D01*
X79532Y98826D01*
X79531Y99611D01*
X79564Y99655D01*
X79613Y99688D01*
X79616Y99689D01*
X79655Y99688D01*
X79655Y99688D01*
X79675Y99687D01*
X79676D01*
X79695Y99687D01*
X79733Y99687D01*
X79865D01*
X79952Y99682D01*
X79983Y99679D01*
X80041Y99684D01*
X80372Y99710D01*
X80404Y99718D01*
X80489Y99738D01*
X80534Y99744D01*
X80574Y99760D01*
X80712Y99817D01*
X80828Y99906D01*
X80864Y99934D01*
X80890Y99968D01*
X80889Y99969D01*
X80889Y99969D01*
X80889Y99969D01*
X80889Y99969D01*
X80966Y100064D01*
X81072Y100261D01*
X81136Y100473D01*
X81131Y100474D01*
X81189Y100766D01*
X81222Y101260D01*
X81216Y101350D01*
X81213Y101353D01*
Y106847D01*
X81211Y106850D01*
X81208Y106851D01*
X79749D01*
Y107756D01*
X81208D01*
X81211Y107758D01*
X81213Y107761D01*
Y110077D01*
X82131D01*
Y107759D01*
D02*
G37*
G36*
X99208Y104148D02*
X99207Y104027D01*
X99204Y104024D01*
X99192Y103648D01*
X99192D01*
X99190Y103560D01*
X99182Y103267D01*
X99182Y103267D01*
X99182D01*
X99187Y103261D01*
X99167Y102887D01*
X99159Y102880D01*
X99147Y102640D01*
X99054Y102010D01*
X98957Y101624D01*
X98958Y101624D01*
X98858Y101280D01*
X98658Y100796D01*
X98486Y100485D01*
X98486D01*
Y100485D01*
X98487Y100478D01*
X98272Y100157D01*
X98002Y99849D01*
X97722Y99603D01*
X97650Y99550D01*
X97650D01*
X97577Y99501D01*
X97303Y99319D01*
X96823Y99082D01*
X96330Y98914D01*
X96321Y98919D01*
X95887Y98810D01*
X95213Y98711D01*
X94532Y98677D01*
X94395Y98684D01*
X94395Y98686D01*
X94202Y98676D01*
X93569Y98707D01*
X92942Y98800D01*
X92327Y98954D01*
X92040Y99057D01*
X92040Y99056D01*
X91914Y99098D01*
X91518Y99294D01*
X91150Y99540D01*
X90818Y99831D01*
X90565Y100120D01*
X90565Y100124D01*
X90370Y100399D01*
X90142Y100812D01*
X89961Y101248D01*
X89830Y101701D01*
X89807Y101840D01*
X89808Y101841D01*
X89715Y102307D01*
X89614Y103162D01*
X89580Y104022D01*
X89585Y104146D01*
X89581Y104146D01*
X89581Y104146D01*
Y111413D01*
X90499D01*
Y104184D01*
X90497Y104183D01*
Y104183D01*
X90488Y103956D01*
X90521Y103195D01*
X90620Y102440D01*
X90749Y101860D01*
X90748Y101860D01*
X90761Y101797D01*
X90768Y101774D01*
X90898Y101391D01*
X91088Y101006D01*
X91326Y100650D01*
X91437Y100524D01*
X91494Y100459D01*
X91494Y100459D01*
X91494Y100458D01*
X91491Y100455D01*
X91514Y100427D01*
X91555Y100393D01*
X91814Y100171D01*
X92150Y99965D01*
X92514Y99814D01*
X92719Y99765D01*
X92719Y99765D01*
X92719Y99765D01*
X92953Y99706D01*
X93635Y99605D01*
X94301Y99572D01*
X94324Y99571D01*
X94390Y99574D01*
X94461Y99571D01*
X95131Y99604D01*
X95794Y99702D01*
X96043Y99765D01*
X96130Y99786D01*
X96236Y99812D01*
X96614Y99968D01*
X96963Y100182D01*
X97274Y100447D01*
X97269Y100452D01*
X97470Y100681D01*
X97703Y101030D01*
X97888Y101406D01*
X98011Y101769D01*
X98023Y101804D01*
X98033Y101855D01*
X98033Y101855D01*
X98170Y102470D01*
X98268Y103214D01*
X98300Y103965D01*
X98291Y104183D01*
Y104183D01*
X98290Y104184D01*
Y111413D01*
X99208D01*
Y104148D01*
D02*
G37*
G36*
X86351Y98906D02*
X85433D01*
Y111413D01*
X86351D01*
Y98906D01*
D02*
G37*
G36*
X73797Y107981D02*
X74305Y107948D01*
X74406Y107928D01*
X74410Y107930D01*
X74816Y107832D01*
X75100Y107715D01*
X75100Y107715D01*
X75421Y107556D01*
X75769Y107324D01*
X75840Y107270D01*
X75933Y107204D01*
X76332Y106848D01*
X76485Y106676D01*
X76540Y106615D01*
X76616Y106530D01*
X76624Y106532D01*
X76624Y106532D01*
X76628Y106533D01*
X76629Y106537D01*
Y106539D01*
X76630Y106541D01*
X76629Y106542D01*
Y106649D01*
Y106731D01*
Y107754D01*
X77547D01*
Y98906D01*
X76629D01*
Y105246D01*
X76628Y105248D01*
X76631Y105250D01*
X76597Y105311D01*
X76587Y105326D01*
X76305Y105723D01*
X76192Y105850D01*
X76133Y105917D01*
X76132Y105917D01*
X76132Y105917D01*
X76073Y105983D01*
X75942Y106130D01*
X75575Y106457D01*
X75514Y106504D01*
X75500Y106516D01*
X75441Y106555D01*
X75140Y106757D01*
X74808Y106921D01*
X74806Y106918D01*
X74631Y106990D01*
X74342Y107060D01*
X74128Y107077D01*
X74045Y107083D01*
X74042Y107083D01*
X73955Y107078D01*
X73793D01*
X73706Y107084D01*
X73696Y107085D01*
X73618Y107077D01*
X73501Y107066D01*
X73435Y107126D01*
X73444Y107966D01*
X73625Y107983D01*
X73795D01*
X73797Y107981D01*
D02*
G37*
G36*
X29528Y190945D02*
X9843D01*
Y309055D01*
X29528D01*
Y190945D01*
D02*
G37*
G36*
X108240Y190945D02*
X78426D01*
Y331496D01*
X108240D01*
Y190945D01*
D02*
G37*
%LPC*%
G36*
X48078Y107085D02*
X47628Y107055D01*
X47186Y106967D01*
X46830Y106846D01*
X46831Y106843D01*
X46646Y106767D01*
X46301Y106555D01*
X45992Y106291D01*
X45924Y106212D01*
X45866Y106145D01*
Y106145D01*
X45770Y106035D01*
X45534Y105682D01*
X45346Y105301D01*
X45237Y104979D01*
X45236Y104979D01*
X45121Y104518D01*
X45034Y103933D01*
X45005Y103342D01*
X45034Y102752D01*
X45121Y102167D01*
X45236Y101706D01*
X45264Y101624D01*
X45349Y101374D01*
X45543Y100981D01*
X45786Y100617D01*
X45866Y100526D01*
X45867Y100527D01*
X45867Y100527D01*
X46012Y100357D01*
X46314Y100099D01*
X46654Y99891D01*
X46831Y99818D01*
X46829Y99813D01*
X47204Y99685D01*
X47614Y99604D01*
X47984Y99580D01*
X48031Y99576D01*
X48072Y99579D01*
X48118Y99576D01*
X48539Y99604D01*
X48953Y99686D01*
X49326Y99813D01*
X49324Y99818D01*
X49502Y99891D01*
X49841Y100099D01*
X50143Y100357D01*
X50288Y100527D01*
X50288Y100527D01*
X50289Y100527D01*
X50290Y100526D01*
X50366Y100614D01*
X50606Y100972D01*
X50796Y101358D01*
X50914Y101706D01*
X50912Y101707D01*
X51018Y102129D01*
X51107Y102733D01*
X51137Y103342D01*
X51107Y103952D01*
X51018Y104556D01*
X50912Y104978D01*
X50914Y104979D01*
X50799Y105317D01*
X50615Y105691D01*
X50384Y106037D01*
X50289Y106145D01*
X50231Y106212D01*
X50231Y106212D01*
X50163Y106291D01*
X49855Y106555D01*
X49509Y106767D01*
X49324Y106843D01*
X49325Y106846D01*
X48969Y106967D01*
X48527Y107055D01*
X48078Y107085D01*
D02*
G37*
G36*
X71687Y106200D02*
Y106200D01*
D01*
Y106200D01*
D02*
G37*
G36*
X67237Y103473D02*
X67217Y103473D01*
X67131Y103466D01*
X65824D01*
X65821Y103465D01*
X65820Y103461D01*
Y101154D01*
X65821Y101150D01*
X65821Y101150D01*
X65983Y100971D01*
X66388Y100604D01*
X66392Y100604D01*
X66504Y100504D01*
X66958Y100181D01*
X67111Y100097D01*
X67111Y100097D01*
X67396Y99939D01*
X67836Y99757D01*
X67948Y99725D01*
Y99725D01*
X67950Y99726D01*
X68093Y99677D01*
X68470Y99602D01*
X68854Y99577D01*
X68867Y99576D01*
X68869Y99576D01*
X68991Y99582D01*
X69079Y99587D01*
Y99588D01*
X69282Y99599D01*
X69370Y99606D01*
X69449Y99611D01*
X69476Y99617D01*
X69476Y99617D01*
X69573Y99637D01*
X69659Y99654D01*
X69659Y99654D01*
X69660Y99654D01*
Y99654D01*
X69660Y99654D01*
X69747Y99671D01*
X69837Y99689D01*
X69840Y99694D01*
X69997Y99732D01*
X70159Y99799D01*
X70159Y99799D01*
Y99799D01*
X70331Y99870D01*
X70576Y100021D01*
X70577Y100019D01*
X70788Y100192D01*
X70966Y100408D01*
X71098Y100656D01*
X71179Y100924D01*
X71207Y101203D01*
X71205Y101255D01*
X71208Y101287D01*
X71202Y101344D01*
X71173Y101640D01*
X71070Y101980D01*
X70903Y102292D01*
X70678Y102567D01*
X70404Y102792D01*
X70213Y102894D01*
X70212Y102894D01*
X70085Y102972D01*
X70006Y103005D01*
X69925Y103042D01*
X69862Y103073D01*
X69778Y103102D01*
X69777Y103103D01*
X69528Y103187D01*
X69528Y103186D01*
X69260Y103264D01*
X69260Y103264D01*
X69173Y103289D01*
X68975Y103323D01*
X68971Y103328D01*
X68660Y103374D01*
X68660Y103374D01*
X68660Y103375D01*
X68331Y103418D01*
Y103418D01*
X68328Y103416D01*
X68129Y103440D01*
X68069Y103442D01*
X67980Y103447D01*
X67306Y103471D01*
X67237Y103473D01*
D02*
G37*
G36*
X29242Y107924D02*
D01*
X29242D01*
X29242D01*
D02*
G37*
G36*
X26011Y307762D02*
X24538D01*
X24472Y307755D01*
X24392Y307748D01*
X24290Y307733D01*
X24181Y307711D01*
X24064Y307682D01*
X23947Y307638D01*
X23933Y307631D01*
X23897Y307616D01*
X23831Y307587D01*
X23751Y307544D01*
X23656Y307493D01*
X23547Y307427D01*
X23430Y307347D01*
X23306Y307252D01*
X23299Y307245D01*
X23262Y307216D01*
X23211Y307172D01*
X23138Y307106D01*
X23051Y307019D01*
X22934Y306909D01*
X22810Y306778D01*
X22657Y306618D01*
X22650Y306610D01*
X22643Y306596D01*
X22621Y306574D01*
X22592Y306545D01*
X22519Y306465D01*
X22431Y306370D01*
X22336Y306275D01*
X22242Y306180D01*
X22162Y306093D01*
X22125Y306064D01*
X22096Y306035D01*
X22089Y306027D01*
X22074Y306013D01*
X22045Y305991D01*
X22008Y305962D01*
X21928Y305896D01*
X21833Y305838D01*
Y307762D01*
X20937D01*
Y304373D01*
X20959D01*
X20988Y304380D01*
X21024Y304387D01*
X21068Y304394D01*
X21119Y304402D01*
X21250Y304431D01*
X21396Y304474D01*
X21556Y304533D01*
X21731Y304606D01*
X21899Y304700D01*
X21906D01*
X21921Y304715D01*
X21950Y304730D01*
X21979Y304759D01*
X22030Y304788D01*
X22081Y304832D01*
X22147Y304883D01*
X22220Y304941D01*
X22307Y305007D01*
X22395Y305087D01*
X22497Y305174D01*
X22606Y305276D01*
X22715Y305386D01*
X22839Y305510D01*
X22971Y305641D01*
X23109Y305787D01*
X23117Y305794D01*
X23138Y305816D01*
X23167Y305845D01*
X23211Y305889D01*
X23255Y305947D01*
X23313Y306005D01*
X23445Y306137D01*
X23583Y306268D01*
X23721Y306399D01*
X23780Y306457D01*
X23845Y306516D01*
X23897Y306559D01*
X23940Y306589D01*
X23955Y306596D01*
X23991Y306618D01*
X24050Y306654D01*
X24130Y306691D01*
X24217Y306727D01*
X24319Y306764D01*
X24421Y306785D01*
X24531Y306793D01*
X24538D01*
X24545D01*
X24582D01*
X24647Y306785D01*
X24720Y306771D01*
X24800Y306749D01*
X24881Y306720D01*
X24961Y306676D01*
X25034Y306618D01*
X25041Y306610D01*
X25063Y306589D01*
X25092Y306545D01*
X25121Y306494D01*
X25150Y306421D01*
X25179Y306341D01*
X25201Y306246D01*
X25209Y306137D01*
Y306086D01*
X25201Y306027D01*
X25187Y305962D01*
X25165Y305882D01*
X25128Y305801D01*
X25085Y305721D01*
X25026Y305648D01*
X25019Y305641D01*
X24990Y305619D01*
X24946Y305590D01*
X24881Y305561D01*
X24800Y305524D01*
X24691Y305495D01*
X24567Y305466D01*
X24421Y305451D01*
X24516Y304489D01*
X24523D01*
X24553Y304496D01*
X24589D01*
X24647Y304511D01*
X24713Y304518D01*
X24786Y304540D01*
X24866Y304562D01*
X24961Y304584D01*
X25143Y304657D01*
X25333Y304744D01*
X25427Y304803D01*
X25515Y304868D01*
X25588Y304941D01*
X25661Y305021D01*
X25668Y305029D01*
X25675Y305043D01*
X25690Y305065D01*
X25719Y305101D01*
X25741Y305145D01*
X25770Y305204D01*
X25806Y305262D01*
X25836Y305335D01*
X25872Y305415D01*
X25901Y305502D01*
X25960Y305692D01*
X25996Y305918D01*
X26003Y306035D01*
X26011Y306158D01*
Y306231D01*
X26003Y306282D01*
X25996Y306348D01*
X25989Y306421D01*
X25974Y306501D01*
X25960Y306589D01*
X25908Y306778D01*
X25836Y306968D01*
X25792Y307070D01*
X25741Y307157D01*
X25675Y307252D01*
X25602Y307332D01*
X25595Y307340D01*
X25588Y307354D01*
X25559Y307369D01*
X25529Y307398D01*
X25493Y307434D01*
X25442Y307471D01*
X25391Y307507D01*
X25325Y307551D01*
X25179Y307624D01*
X25012Y307697D01*
X24917Y307726D01*
X24815Y307740D01*
X24706Y307755D01*
X24596Y307762D01*
X26011D01*
D02*
G37*
G36*
Y303848D02*
Y302280D01*
X26003Y302331D01*
X25996Y302390D01*
X25981Y302463D01*
X25967Y302535D01*
X25945Y302623D01*
X25916Y302718D01*
X25879Y302805D01*
X25843Y302900D01*
X25792Y302995D01*
X25726Y303089D01*
X25661Y303184D01*
X25580Y303272D01*
X25486Y303352D01*
X25478Y303359D01*
X25457Y303374D01*
X25420Y303396D01*
X25369Y303432D01*
X25296Y303468D01*
X25209Y303512D01*
X25114Y303556D01*
X24990Y303600D01*
X24859Y303643D01*
X24706Y303695D01*
X24538Y303731D01*
X24349Y303767D01*
X24144Y303804D01*
X23926Y303826D01*
X23685Y303840D01*
X23423Y303848D01*
X26011D01*
X20842D01*
X23284D01*
X23189Y303840D01*
X23073Y303833D01*
X22934Y303818D01*
X22788Y303804D01*
X22628Y303789D01*
X22460Y303760D01*
X22285Y303724D01*
X22118Y303687D01*
X21950Y303636D01*
X21782Y303585D01*
X21629Y303512D01*
X21484Y303439D01*
X21360Y303352D01*
X21352Y303345D01*
X21338Y303330D01*
X21308Y303308D01*
X21279Y303279D01*
X21243Y303235D01*
X21199Y303184D01*
X21148Y303119D01*
X21104Y303053D01*
X21053Y302973D01*
X21002Y302893D01*
X20959Y302798D01*
X20922Y302696D01*
X20893Y302586D01*
X20864Y302463D01*
X20849Y302339D01*
X20842Y302207D01*
Y302273D01*
Y302207D01*
D01*
Y302178D01*
X20849Y302134D01*
Y302083D01*
X20856Y302025D01*
X20871Y301952D01*
X20886Y301872D01*
X20915Y301784D01*
X20944Y301690D01*
X20980Y301595D01*
X21024Y301493D01*
X21082Y301398D01*
X21141Y301296D01*
X21221Y301201D01*
X21301Y301107D01*
X21403Y301019D01*
X21411Y301012D01*
X21432Y300997D01*
X21469Y300975D01*
X21513Y300954D01*
X21578Y300917D01*
X21658Y300881D01*
X21760Y300837D01*
X21870Y300800D01*
X22001Y300757D01*
X22147Y300713D01*
X22314Y300676D01*
X22497Y300647D01*
X22701Y300618D01*
X22927Y300596D01*
X23167Y300582D01*
X23430Y300574D01*
X23568D01*
X23663Y300582D01*
X23780Y300589D01*
X23918Y300604D01*
X24064Y300618D01*
X24225Y300633D01*
X24392Y300662D01*
X24560Y300691D01*
X24735Y300735D01*
X24903Y300779D01*
X25063Y300837D01*
X25216Y300902D01*
X25362Y300975D01*
X25486Y301063D01*
X25493Y301070D01*
X25508Y301085D01*
X25537Y301107D01*
X25566Y301143D01*
X25610Y301179D01*
X25653Y301231D01*
X25697Y301296D01*
X25748Y301362D01*
X25799Y301442D01*
X25843Y301522D01*
X25887Y301617D01*
X25930Y301719D01*
X25960Y301828D01*
X25989Y301952D01*
X26003Y302076D01*
X26011Y302207D01*
Y300574D01*
D01*
Y303848D01*
D02*
G37*
G36*
X24596Y300181D02*
X20937Y298730D01*
Y296383D01*
D01*
Y297855D01*
X24596Y296383D01*
Y297396D01*
X22723Y298089D01*
X22103Y298285D01*
X22110Y298293D01*
X22140Y298300D01*
X22183Y298314D01*
X22227Y298329D01*
X22336Y298365D01*
X22380Y298380D01*
X22417Y298387D01*
X22424D01*
X22446Y298395D01*
X22475Y298402D01*
X22511Y298416D01*
X22613Y298446D01*
X22723Y298489D01*
X24596Y299189D01*
Y300181D01*
D02*
G37*
G36*
X18462Y295679D02*
D01*
Y294207D01*
X18455Y294243D01*
Y294294D01*
X18448Y294352D01*
X18419Y294484D01*
X18382Y294629D01*
X18324Y294790D01*
X18244Y294950D01*
X18193Y295023D01*
X18135Y295096D01*
Y295103D01*
X18120Y295111D01*
X18098Y295132D01*
X18076Y295154D01*
X18040Y295191D01*
X18003Y295220D01*
X17901Y295300D01*
X17763Y295380D01*
X17602Y295460D01*
X17420Y295533D01*
X17201Y295584D01*
X17099Y294651D01*
X17114D01*
X17143Y294644D01*
X17194Y294629D01*
X17260Y294615D01*
X17325Y294593D01*
X17398Y294556D01*
X17464Y294520D01*
X17522Y294469D01*
X17529Y294462D01*
X17544Y294440D01*
X17566Y294411D01*
X17595Y294367D01*
X17617Y294316D01*
X17639Y294250D01*
X17653Y294170D01*
X17661Y294090D01*
Y294075D01*
X17653Y294039D01*
X17646Y293981D01*
X17624Y293908D01*
X17595Y293828D01*
X17544Y293740D01*
X17478Y293653D01*
X17384Y293572D01*
X17369Y293565D01*
X17354Y293550D01*
X17325Y293536D01*
X17296Y293521D01*
X17252Y293499D01*
X17201Y293485D01*
X17136Y293463D01*
X17063Y293434D01*
X16983Y293412D01*
X16888Y293390D01*
X16786Y293368D01*
X16669Y293346D01*
X16538Y293332D01*
X16392Y293317D01*
X16239Y293303D01*
X16246Y293310D01*
X16261Y293317D01*
X16275Y293339D01*
X16305Y293368D01*
X16341Y293405D01*
X16378Y293448D01*
X16458Y293550D01*
X16531Y293682D01*
X16604Y293835D01*
X16633Y293922D01*
X16647Y294010D01*
X16662Y294105D01*
X16669Y294207D01*
Y294265D01*
X16662Y294309D01*
X16655Y294360D01*
X16647Y294418D01*
X16633Y294491D01*
X16611Y294564D01*
X16553Y294724D01*
X16516Y294812D01*
X16472Y294899D01*
X16421Y294987D01*
X16356Y295074D01*
X16283Y295162D01*
X16203Y295242D01*
X16195Y295249D01*
X16181Y295264D01*
X16159Y295286D01*
X16122Y295307D01*
X16071Y295344D01*
X16020Y295380D01*
X15955Y295417D01*
X15882Y295460D01*
X15802Y295504D01*
X15707Y295541D01*
X15612Y295577D01*
X15503Y295614D01*
X15393Y295635D01*
X15270Y295657D01*
X15146Y295672D01*
X15007Y295679D01*
X13294D01*
X14934D01*
X14876Y295672D01*
X14810Y295665D01*
X14737Y295657D01*
X14650Y295643D01*
X14562Y295621D01*
X14358Y295570D01*
X14256Y295533D01*
X14154Y295482D01*
X14052Y295431D01*
X13950Y295373D01*
X13848Y295300D01*
X13760Y295220D01*
X13753Y295213D01*
X13739Y295198D01*
X13717Y295176D01*
X13688Y295140D01*
X13651Y295096D01*
X13615Y295038D01*
X13571Y294979D01*
X13527Y294906D01*
X13483Y294826D01*
X13440Y294739D01*
X13403Y294644D01*
X13367Y294535D01*
X13338Y294425D01*
X13316Y294309D01*
X13301Y294185D01*
X13294Y294054D01*
Y294017D01*
X13301Y293981D01*
Y293930D01*
X13316Y293864D01*
X13323Y293784D01*
X13345Y293704D01*
X13367Y293609D01*
X13396Y293514D01*
X13440Y293412D01*
X13483Y293303D01*
X13542Y293200D01*
X13607Y293091D01*
X13688Y292989D01*
X13782Y292887D01*
X13884Y292792D01*
X13892Y292785D01*
X13914Y292770D01*
X13950Y292749D01*
X14001Y292719D01*
X14067Y292676D01*
X14147Y292639D01*
X14242Y292596D01*
X14351Y292552D01*
X14482Y292501D01*
X14621Y292457D01*
X14781Y292421D01*
X14963Y292384D01*
X15153Y292348D01*
X15364Y292326D01*
X15590Y292311D01*
X15838Y292304D01*
X15969D01*
X16064Y292311D01*
X16181Y292318D01*
X16312Y292333D01*
X16458Y292348D01*
X16611Y292370D01*
X16771Y292391D01*
X16939Y292428D01*
X17107Y292472D01*
X17274Y292523D01*
X17427Y292581D01*
X17580Y292647D01*
X17719Y292727D01*
X17843Y292814D01*
X17850Y292822D01*
X17872Y292836D01*
X17901Y292865D01*
X17938Y292909D01*
X17989Y292960D01*
X18040Y293018D01*
X18098Y293091D01*
X18156Y293171D01*
X18207Y293266D01*
X18266Y293361D01*
X18317Y293478D01*
X18368Y293594D01*
X18404Y293718D01*
X18433Y293857D01*
X18455Y293995D01*
X18462Y294148D01*
Y292304D01*
D01*
Y295679D01*
D02*
G37*
G36*
X22686Y296069D02*
X22482D01*
Y293649D01*
X22475D01*
X22460D01*
X22438D01*
X22409Y293656D01*
X22336Y293664D01*
X22234Y293678D01*
X22132Y293707D01*
X22016Y293751D01*
X21906Y293802D01*
X21812Y293875D01*
X21804Y293882D01*
X21775Y293919D01*
X21739Y293962D01*
X21695Y294028D01*
X21651Y294108D01*
X21615Y294210D01*
X21586Y294320D01*
X21578Y294436D01*
Y294473D01*
X21586Y294516D01*
X21593Y294567D01*
X21607Y294626D01*
X21629Y294691D01*
X21658Y294757D01*
X21702Y294815D01*
X21710Y294823D01*
X21724Y294844D01*
X21753Y294874D01*
X21797Y294903D01*
X21855Y294947D01*
X21921Y294983D01*
X22008Y295019D01*
X22103Y295056D01*
X21943Y296018D01*
X21936D01*
X21921Y296011D01*
X21892Y295996D01*
X21855Y295982D01*
X21812Y295960D01*
X21760Y295938D01*
X21644Y295872D01*
X21513Y295792D01*
X21374Y295690D01*
X21250Y295566D01*
X21134Y295428D01*
Y295420D01*
X21119Y295413D01*
X21112Y295384D01*
X21090Y295355D01*
X21068Y295318D01*
X21046Y295267D01*
X21024Y295216D01*
X20995Y295151D01*
X20944Y295005D01*
X20900Y294837D01*
X20871Y294640D01*
X20856Y294429D01*
Y294385D01*
X20864Y294341D01*
Y294276D01*
X20878Y294196D01*
X20893Y294101D01*
X20908Y293999D01*
X20937Y293897D01*
X20966Y293780D01*
X21010Y293664D01*
X21061Y293547D01*
X21119Y293430D01*
X21192Y293314D01*
X21272Y293204D01*
X21367Y293109D01*
X21476Y293015D01*
X21484Y293007D01*
X21498Y293000D01*
X21527Y292986D01*
X21564Y292956D01*
X21615Y292934D01*
X21673Y292905D01*
X21739Y292869D01*
X21819Y292840D01*
X21906Y292803D01*
X22001Y292774D01*
X22103Y292738D01*
X22220Y292716D01*
X22336Y292694D01*
X22460Y292672D01*
X22599Y292665D01*
X22737Y292657D01*
X24677D01*
X22825D01*
X22891Y292665D01*
X22963Y292672D01*
X23051Y292679D01*
X23146Y292694D01*
X23255Y292716D01*
X23481Y292774D01*
X23598Y292811D01*
X23721Y292854D01*
X23838Y292913D01*
X23947Y292978D01*
X24057Y293051D01*
X24159Y293131D01*
X24166Y293139D01*
X24181Y293153D01*
X24210Y293182D01*
X24239Y293219D01*
X24276Y293263D01*
X24319Y293321D01*
X24370Y293386D01*
X24421Y293459D01*
X24465Y293540D01*
X24516Y293634D01*
X24560Y293729D01*
X24596Y293838D01*
X24625Y293948D01*
X24655Y294072D01*
X24669Y294196D01*
X24677Y294327D01*
Y294407D01*
X24669Y294465D01*
X24662Y294531D01*
X24647Y294611D01*
X24633Y294699D01*
X24611Y294793D01*
X24582Y294896D01*
X24545Y294998D01*
X24502Y295107D01*
X24443Y295216D01*
X24385Y295318D01*
X24312Y295420D01*
X24225Y295522D01*
X24130Y295610D01*
X24123Y295617D01*
X24108Y295632D01*
X24071Y295654D01*
X24028Y295683D01*
X23969Y295719D01*
X23904Y295756D01*
X23816Y295799D01*
X23721Y295843D01*
X23612Y295887D01*
X23488Y295931D01*
X23357Y295967D01*
X23204Y296004D01*
X23043Y296033D01*
X22869Y296055D01*
X22686Y296069D01*
D02*
G37*
G36*
X25981Y292395D02*
Y290135D01*
X25974Y290201D01*
Y290281D01*
X25967Y290361D01*
Y290456D01*
X25945Y290645D01*
X25923Y290842D01*
X25887Y291024D01*
X25865Y291105D01*
X25843Y291178D01*
Y291185D01*
X25836Y291192D01*
X25814Y291236D01*
X25777Y291301D01*
X25734Y291389D01*
X25661Y291484D01*
X25580Y291579D01*
X25478Y291673D01*
X25354Y291761D01*
X25347D01*
X25340Y291768D01*
X25318Y291783D01*
X25296Y291797D01*
X25223Y291834D01*
X25128Y291877D01*
X25012Y291914D01*
X24881Y291950D01*
X24727Y291980D01*
X24567Y291987D01*
X24560D01*
X24545D01*
X24509D01*
X24472Y291980D01*
X24421D01*
X24370Y291972D01*
X24239Y291943D01*
X24086Y291907D01*
X23933Y291848D01*
X23773Y291761D01*
X23700Y291710D01*
X23627Y291651D01*
X23619Y291644D01*
X23612Y291637D01*
X23590Y291615D01*
X23568Y291586D01*
X23539Y291557D01*
X23503Y291513D01*
X23466Y291462D01*
X23430Y291404D01*
X23386Y291338D01*
X23350Y291258D01*
X23313Y291178D01*
X23277Y291090D01*
X23240Y290988D01*
X23211Y290886D01*
X23182Y290777D01*
X23160Y290653D01*
Y290660D01*
X23153Y290667D01*
X23124Y290711D01*
X23087Y290769D01*
X23036Y290842D01*
X22971Y290930D01*
X22905Y291017D01*
X22825Y291112D01*
X22737Y291192D01*
X22730Y291199D01*
X22694Y291236D01*
X22635Y291280D01*
X22548Y291345D01*
X22438Y291433D01*
X22366Y291476D01*
X22293Y291528D01*
X22212Y291586D01*
X22125Y291644D01*
X22023Y291710D01*
X21921Y291775D01*
X20937Y292395D01*
Y291170D01*
X22030Y290441D01*
X22038Y290434D01*
X22059Y290427D01*
X22089Y290405D01*
X22125Y290376D01*
X22169Y290347D01*
X22227Y290310D01*
X22344Y290230D01*
X22475Y290135D01*
X22592Y290048D01*
X22701Y289967D01*
X22737Y289931D01*
X22774Y289902D01*
X22781Y289895D01*
X22796Y289880D01*
X22825Y289851D01*
X22861Y289814D01*
X22891Y289763D01*
X22927Y289712D01*
X22956Y289654D01*
X22985Y289596D01*
Y289588D01*
X22993Y289566D01*
X23007Y289530D01*
X23014Y289472D01*
X23029Y289399D01*
X23036Y289311D01*
X23043Y289209D01*
Y288881D01*
X20937D01*
Y287861D01*
X25981D01*
Y292395D01*
D02*
G37*
G36*
X18462Y291648D02*
X16990D01*
X16924Y291640D01*
X16844Y291633D01*
X16742Y291619D01*
X16633Y291597D01*
X16516Y291568D01*
X16399Y291524D01*
X16385Y291517D01*
X16348Y291502D01*
X16283Y291473D01*
X16203Y291429D01*
X16108Y291378D01*
X15999Y291312D01*
X15882Y291232D01*
X15758Y291138D01*
X15751Y291130D01*
X15714Y291101D01*
X15663Y291057D01*
X15590Y290992D01*
X15503Y290904D01*
X15386Y290795D01*
X15262Y290664D01*
X15109Y290503D01*
X15102Y290496D01*
X15094Y290481D01*
X15073Y290459D01*
X15044Y290430D01*
X14971Y290350D01*
X14883Y290255D01*
X14788Y290161D01*
X14694Y290066D01*
X14613Y289978D01*
X14577Y289949D01*
X14548Y289920D01*
X14540Y289913D01*
X14526Y289898D01*
X14497Y289876D01*
X14460Y289847D01*
X14380Y289781D01*
X14285Y289723D01*
Y291648D01*
X13389D01*
Y288258D01*
X13410D01*
X13440Y288265D01*
X13476Y288273D01*
X13520Y288280D01*
X13571Y288287D01*
X13702Y288316D01*
X13848Y288360D01*
X14008Y288418D01*
X14183Y288491D01*
X14351Y288586D01*
X14358D01*
X14373Y288601D01*
X14402Y288615D01*
X14431Y288644D01*
X14482Y288673D01*
X14533Y288717D01*
X14599Y288768D01*
X14672Y288826D01*
X14759Y288892D01*
X14847Y288972D01*
X14949Y289060D01*
X15058Y289162D01*
X15167Y289271D01*
X15291Y289395D01*
X15423Y289526D01*
X15561Y289672D01*
X15568Y289680D01*
X15590Y289701D01*
X15619Y289731D01*
X15663Y289774D01*
X15707Y289833D01*
X15765Y289891D01*
X15896Y290022D01*
X16035Y290153D01*
X16173Y290284D01*
X16232Y290343D01*
X16297Y290401D01*
X16348Y290445D01*
X16392Y290474D01*
X16407Y290481D01*
X16443Y290503D01*
X16501Y290540D01*
X16582Y290576D01*
X16669Y290613D01*
X16771Y290649D01*
X16873Y290671D01*
X16983Y290678D01*
X16990D01*
X16997D01*
X17034D01*
X17099Y290671D01*
X17172Y290656D01*
X17252Y290634D01*
X17333Y290605D01*
X17413Y290562D01*
X17486Y290503D01*
X17493Y290496D01*
X17515Y290474D01*
X17544Y290430D01*
X17573Y290379D01*
X17602Y290306D01*
X17631Y290226D01*
X17653Y290131D01*
X17661Y290022D01*
Y289971D01*
X17653Y289913D01*
X17639Y289847D01*
X17617Y289767D01*
X17580Y289687D01*
X17537Y289607D01*
X17478Y289534D01*
X17471Y289526D01*
X17442Y289505D01*
X17398Y289475D01*
X17333Y289446D01*
X17252Y289410D01*
X17143Y289381D01*
X17019Y289351D01*
X16873Y289337D01*
X16968Y288375D01*
X16975D01*
X17005Y288382D01*
X17041D01*
X17099Y288396D01*
X17165Y288404D01*
X17238Y288426D01*
X17318Y288447D01*
X17413Y288469D01*
X17595Y288542D01*
X17785Y288630D01*
X17879Y288688D01*
X17967Y288754D01*
X18040Y288826D01*
X18113Y288907D01*
X18120Y288914D01*
X18127Y288929D01*
X18142Y288950D01*
X18171Y288987D01*
X18193Y289031D01*
X18222Y289089D01*
X18258Y289147D01*
X18288Y289220D01*
X18324Y289300D01*
X18353Y289388D01*
X18411Y289577D01*
X18448Y289803D01*
X18455Y289920D01*
X18462Y290044D01*
Y290117D01*
X18455Y290168D01*
X18448Y290233D01*
X18441Y290306D01*
X18426Y290387D01*
X18411Y290474D01*
X18361Y290664D01*
X18288Y290853D01*
X18244Y290955D01*
X18193Y291043D01*
X18127Y291138D01*
X18054Y291218D01*
X18047Y291225D01*
X18040Y291240D01*
X18011Y291254D01*
X17981Y291283D01*
X17945Y291320D01*
X17894Y291356D01*
X17843Y291393D01*
X17777Y291436D01*
X17631Y291509D01*
X17464Y291582D01*
X17369Y291611D01*
X17267Y291626D01*
X17158Y291640D01*
X17048Y291648D01*
X18462D01*
D02*
G37*
G36*
X18521Y288090D02*
D01*
X13301Y286829D01*
Y286115D01*
X18521Y287361D01*
Y288090D01*
D02*
G37*
G36*
X15007Y285874D02*
X13294D01*
X14934D01*
X14876Y285867D01*
X14810Y285859D01*
X14737Y285852D01*
X14650Y285838D01*
X14562Y285816D01*
X14358Y285765D01*
X14256Y285728D01*
X14154Y285677D01*
X14052Y285626D01*
X13950Y285568D01*
X13848Y285495D01*
X13760Y285415D01*
X13753Y285407D01*
X13739Y285393D01*
X13717Y285371D01*
X13688Y285335D01*
X13651Y285291D01*
X13615Y285233D01*
X13571Y285174D01*
X13527Y285101D01*
X13483Y285021D01*
X13440Y284934D01*
X13403Y284839D01*
X13367Y284730D01*
X13338Y284620D01*
X13316Y284504D01*
X13301Y284380D01*
X13294Y284248D01*
Y282499D01*
Y284212D01*
X13301Y284175D01*
Y284124D01*
X13316Y284059D01*
X13323Y283979D01*
X13345Y283898D01*
X13367Y283804D01*
X13396Y283709D01*
X13440Y283607D01*
X13483Y283498D01*
X13542Y283396D01*
X13607Y283286D01*
X13688Y283184D01*
X13782Y283082D01*
X13884Y282987D01*
X13892Y282980D01*
X13914Y282965D01*
X13950Y282944D01*
X14001Y282914D01*
X14067Y282871D01*
X14147Y282834D01*
X14242Y282790D01*
X14351Y282747D01*
X14482Y282696D01*
X14621Y282652D01*
X14781Y282615D01*
X14963Y282579D01*
X15153Y282543D01*
X15364Y282521D01*
X15590Y282506D01*
X15838Y282499D01*
X15969D01*
X16064Y282506D01*
X16181Y282513D01*
X16312Y282528D01*
X16458Y282543D01*
X16611Y282564D01*
X16771Y282586D01*
X16939Y282623D01*
X17107Y282666D01*
X17274Y282717D01*
X17427Y282776D01*
X17580Y282841D01*
X17719Y282922D01*
X17843Y283009D01*
X17850Y283016D01*
X17872Y283031D01*
X17901Y283060D01*
X17938Y283104D01*
X17989Y283155D01*
X18040Y283213D01*
X18098Y283286D01*
X18156Y283366D01*
X18207Y283461D01*
X18266Y283556D01*
X18317Y283672D01*
X18368Y283789D01*
X18404Y283913D01*
X18433Y284052D01*
X18455Y284190D01*
X18462Y284343D01*
Y284205D01*
Y284438D01*
Y284401D01*
X18455Y284438D01*
Y284489D01*
X18448Y284547D01*
X18419Y284679D01*
X18382Y284824D01*
X18324Y284985D01*
X18244Y285145D01*
X18193Y285218D01*
X18135Y285291D01*
Y285298D01*
X18120Y285306D01*
X18098Y285327D01*
X18076Y285349D01*
X18040Y285386D01*
X18003Y285415D01*
X17901Y285495D01*
X17763Y285575D01*
X17602Y285655D01*
X17420Y285728D01*
X17201Y285779D01*
X17099Y284846D01*
X17114D01*
X17143Y284839D01*
X17194Y284824D01*
X17260Y284810D01*
X17325Y284788D01*
X17398Y284751D01*
X17464Y284715D01*
X17522Y284664D01*
X17529Y284657D01*
X17544Y284635D01*
X17566Y284606D01*
X17595Y284562D01*
X17617Y284511D01*
X17639Y284445D01*
X17653Y284365D01*
X17661Y284285D01*
Y284270D01*
X17653Y284234D01*
X17646Y284175D01*
X17624Y284103D01*
X17595Y284022D01*
X17544Y283935D01*
X17478Y283847D01*
X17384Y283767D01*
X17369Y283760D01*
X17354Y283745D01*
X17325Y283731D01*
X17296Y283716D01*
X17252Y283694D01*
X17201Y283680D01*
X17136Y283658D01*
X17063Y283629D01*
X16983Y283607D01*
X16888Y283585D01*
X16786Y283563D01*
X16669Y283541D01*
X16538Y283527D01*
X16392Y283512D01*
X16239Y283498D01*
X16246Y283505D01*
X16261Y283512D01*
X16275Y283534D01*
X16305Y283563D01*
X16341Y283600D01*
X16378Y283643D01*
X16458Y283745D01*
X16531Y283877D01*
X16604Y284030D01*
X16633Y284117D01*
X16647Y284205D01*
X16662Y284299D01*
X16669Y284401D01*
Y284460D01*
X16662Y284504D01*
X16655Y284555D01*
X16647Y284613D01*
X16633Y284686D01*
X16611Y284759D01*
X16553Y284919D01*
X16516Y285007D01*
X16472Y285094D01*
X16421Y285181D01*
X16356Y285269D01*
X16283Y285356D01*
X16203Y285437D01*
X16195Y285444D01*
X16181Y285459D01*
X16159Y285480D01*
X16122Y285502D01*
X16071Y285539D01*
X16020Y285575D01*
X15955Y285612D01*
X15882Y285655D01*
X15802Y285699D01*
X15707Y285736D01*
X15612Y285772D01*
X15503Y285808D01*
X15393Y285830D01*
X15270Y285852D01*
X15146Y285867D01*
X15007Y285874D01*
D02*
G37*
G36*
X25981Y282976D02*
X20937D01*
Y282080D01*
X21469D01*
X21454Y282072D01*
X21418Y282043D01*
X21360Y281992D01*
X21294Y281927D01*
X21221Y281854D01*
X21141Y281759D01*
X21068Y281657D01*
X21002Y281547D01*
X20995Y281533D01*
X20980Y281497D01*
X20959Y281431D01*
X20929Y281358D01*
X20900Y281263D01*
X20878Y281154D01*
X20864Y281045D01*
X20856Y280928D01*
Y280942D01*
Y279404D01*
Y280870D01*
X20864Y280826D01*
X20871Y280767D01*
X20886Y280709D01*
X20900Y280636D01*
X20922Y280556D01*
X20944Y280476D01*
X20980Y280388D01*
X21017Y280301D01*
X21068Y280206D01*
X21126Y280119D01*
X21192Y280024D01*
X21272Y279936D01*
X21360Y279849D01*
X21367Y279842D01*
X21381Y279827D01*
X21411Y279805D01*
X21454Y279783D01*
X21505Y279747D01*
X21571Y279710D01*
X21644Y279667D01*
X21731Y279630D01*
X21826Y279587D01*
X21928Y279543D01*
X22045Y279506D01*
X22169Y279477D01*
X22307Y279448D01*
X22453Y279426D01*
X22606Y279412D01*
X22774Y279404D01*
X20856D01*
X25981D01*
Y282976D01*
D02*
G37*
G36*
X18462Y281850D02*
Y280283D01*
X18455Y280334D01*
X18448Y280392D01*
X18433Y280465D01*
X18419Y280538D01*
X18397Y280625D01*
X18368Y280720D01*
X18331Y280807D01*
X18295Y280902D01*
X18244Y280997D01*
X18178Y281092D01*
X18113Y281187D01*
X18032Y281274D01*
X17938Y281354D01*
X17930Y281362D01*
X17909Y281376D01*
X17872Y281398D01*
X17821Y281434D01*
X17748Y281471D01*
X17661Y281515D01*
X17566Y281558D01*
X17442Y281602D01*
X17311Y281646D01*
X17158Y281697D01*
X16990Y281733D01*
X16800Y281770D01*
X16596Y281806D01*
X16378Y281828D01*
X16137Y281843D01*
X15875Y281850D01*
X18462D01*
X13294D01*
X15736D01*
X15641Y281843D01*
X15525Y281835D01*
X15386Y281821D01*
X15240Y281806D01*
X15080Y281792D01*
X14912Y281763D01*
X14737Y281726D01*
X14570Y281690D01*
X14402Y281639D01*
X14234Y281588D01*
X14081Y281515D01*
X13935Y281442D01*
X13812Y281354D01*
X13804Y281347D01*
X13790Y281332D01*
X13760Y281311D01*
X13731Y281281D01*
X13695Y281238D01*
X13651Y281187D01*
X13600Y281121D01*
X13556Y281055D01*
X13505Y280975D01*
X13454Y280895D01*
X13410Y280800D01*
X13374Y280698D01*
X13345Y280589D01*
X13316Y280465D01*
X13301Y280341D01*
X13294Y280210D01*
Y280275D01*
Y280210D01*
D01*
Y280181D01*
X13301Y280137D01*
Y280086D01*
X13308Y280028D01*
X13323Y279955D01*
X13338Y279874D01*
X13367Y279787D01*
X13396Y279692D01*
X13432Y279597D01*
X13476Y279495D01*
X13534Y279401D01*
X13593Y279298D01*
X13673Y279204D01*
X13753Y279109D01*
X13855Y279022D01*
X13862Y279014D01*
X13884Y279000D01*
X13921Y278978D01*
X13965Y278956D01*
X14030Y278919D01*
X14110Y278883D01*
X14212Y278839D01*
X14322Y278803D01*
X14453Y278759D01*
X14599Y278715D01*
X14766Y278679D01*
X14949Y278650D01*
X15153Y278621D01*
X15379Y278599D01*
X15619Y278584D01*
X15882Y278577D01*
X16020D01*
X16115Y278584D01*
X16232Y278591D01*
X16370Y278606D01*
X16516Y278621D01*
X16677Y278635D01*
X16844Y278664D01*
X17012Y278693D01*
X17187Y278737D01*
X17354Y278781D01*
X17515Y278839D01*
X17668Y278905D01*
X17814Y278978D01*
X17938Y279065D01*
X17945Y279072D01*
X17959Y279087D01*
X17989Y279109D01*
X18018Y279145D01*
X18062Y279182D01*
X18105Y279233D01*
X18149Y279298D01*
X18200Y279364D01*
X18251Y279444D01*
X18295Y279524D01*
X18339Y279619D01*
X18382Y279721D01*
X18411Y279831D01*
X18441Y279955D01*
X18455Y280079D01*
X18462Y280210D01*
Y278883D01*
Y281850D01*
D02*
G37*
G36*
X24677Y279200D02*
Y278617D01*
X24669Y278682D01*
X24655Y278763D01*
X24633Y278865D01*
X24596Y278974D01*
X24553Y279083D01*
X24487Y279200D01*
X23649Y278894D01*
X23656Y278887D01*
X23671Y278850D01*
X23700Y278806D01*
X23729Y278748D01*
X23758Y278675D01*
X23787Y278602D01*
X23802Y278522D01*
X23809Y278442D01*
Y278413D01*
X23802Y278369D01*
X23794Y278325D01*
X23780Y278274D01*
X23758Y278216D01*
X23729Y278158D01*
X23692Y278099D01*
X23685Y278092D01*
X23671Y278077D01*
X23641Y278048D01*
X23598Y278019D01*
X23547Y277983D01*
X23474Y277946D01*
X23386Y277910D01*
X23284Y277881D01*
X23269D01*
X23248Y277873D01*
X23226Y277866D01*
X23189D01*
X23146Y277859D01*
X23087Y277852D01*
X23022Y277844D01*
X22949Y277837D01*
X22854Y277830D01*
X22759Y277822D01*
X22643D01*
X22519Y277815D01*
X22380Y277808D01*
X22227D01*
X22059D01*
X20937D01*
Y278267D01*
Y276838D01*
X24596D01*
Y277735D01*
X24079D01*
X24086Y277742D01*
X24130Y277771D01*
X24195Y277815D01*
X24276Y277873D01*
X24356Y277932D01*
X24436Y278005D01*
X24509Y278070D01*
X24560Y278143D01*
X24567Y278150D01*
X24582Y278172D01*
X24596Y278216D01*
X24618Y278267D01*
X24640Y278325D01*
X24662Y278398D01*
X24669Y278471D01*
X24677Y278559D01*
Y277844D01*
Y279200D01*
D02*
G37*
G36*
X17128Y274443D02*
Y273860D01*
X17121Y273926D01*
X17107Y274006D01*
X17085Y274108D01*
X17048Y274217D01*
X17005Y274327D01*
X16939Y274443D01*
X16101Y274137D01*
X16108Y274130D01*
X16122Y274093D01*
X16152Y274050D01*
X16181Y273991D01*
X16210Y273919D01*
X16239Y273846D01*
X16254Y273765D01*
X16261Y273685D01*
Y273656D01*
X16254Y273612D01*
X16246Y273569D01*
X16232Y273517D01*
X16210Y273459D01*
X16181Y273401D01*
X16144Y273343D01*
X16137Y273335D01*
X16122Y273321D01*
X16093Y273292D01*
X16049Y273262D01*
X15999Y273226D01*
X15926Y273189D01*
X15838Y273153D01*
X15736Y273124D01*
X15721D01*
X15700Y273117D01*
X15678Y273109D01*
X15641D01*
X15597Y273102D01*
X15539Y273095D01*
X15474Y273087D01*
X15401Y273080D01*
X15306Y273073D01*
X15211Y273066D01*
X15094D01*
X14971Y273058D01*
X14832Y273051D01*
X14679D01*
X14511D01*
X13389D01*
Y272081D01*
X17048D01*
Y272978D01*
X16531D01*
X16538Y272985D01*
X16582Y273014D01*
X16647Y273058D01*
X16727Y273117D01*
X16808Y273175D01*
X16888Y273248D01*
X16961Y273313D01*
X17012Y273386D01*
X17019Y273394D01*
X17034Y273415D01*
X17048Y273459D01*
X17070Y273510D01*
X17092Y273569D01*
X17114Y273641D01*
X17121Y273714D01*
X17128Y273802D01*
Y272081D01*
D01*
Y274443D01*
D02*
G37*
G36*
X20937Y276131D02*
D01*
Y275176D01*
X20944D01*
X20951Y275169D01*
X20980Y275161D01*
X21010Y275147D01*
X21046Y275132D01*
X21097Y275118D01*
X21155Y275103D01*
X21221Y275081D01*
X21228D01*
X21236Y275074D01*
X21265Y275067D01*
X21301Y275052D01*
X21330Y275045D01*
X21323Y275030D01*
X21294Y275001D01*
X21250Y274950D01*
X21199Y274884D01*
X21141Y274804D01*
X21075Y274717D01*
X21024Y274615D01*
X20973Y274513D01*
X20966Y274498D01*
X20959Y274462D01*
X20937Y274403D01*
X20915Y274330D01*
X20893Y274243D01*
X20878Y274141D01*
X20864Y274024D01*
X20856Y273908D01*
Y272697D01*
D01*
Y273856D01*
X20864Y273813D01*
Y273769D01*
X20871Y273711D01*
X20893Y273587D01*
X20929Y273441D01*
X20980Y273295D01*
X21053Y273149D01*
X21155Y273018D01*
X21163D01*
X21170Y273004D01*
X21214Y272967D01*
X21279Y272916D01*
X21367Y272858D01*
X21476Y272799D01*
X21607Y272748D01*
X21760Y272712D01*
X21841Y272705D01*
X21928Y272697D01*
X20856D01*
X21979D01*
X22038Y272705D01*
X22110Y272719D01*
X22198Y272734D01*
X22285Y272756D01*
X22380Y272792D01*
X22475Y272843D01*
X22490Y272850D01*
X22519Y272872D01*
X22562Y272902D01*
X22613Y272953D01*
X22672Y273004D01*
X22737Y273077D01*
X22796Y273157D01*
X22847Y273252D01*
X22854Y273266D01*
X22869Y273303D01*
X22891Y273361D01*
X22927Y273448D01*
X22963Y273558D01*
X23000Y273689D01*
X23036Y273849D01*
X23073Y274024D01*
Y274031D01*
X23080Y274053D01*
X23087Y274090D01*
X23095Y274134D01*
X23102Y274192D01*
X23117Y274257D01*
X23153Y274403D01*
X23189Y274556D01*
X23226Y274717D01*
X23269Y274855D01*
X23291Y274921D01*
X23313Y274972D01*
X23408D01*
X23423D01*
X23452D01*
X23503Y274965D01*
X23568Y274957D01*
X23634Y274935D01*
X23700Y274914D01*
X23758Y274877D01*
X23809Y274826D01*
X23816Y274819D01*
X23831Y274797D01*
X23845Y274761D01*
X23875Y274710D01*
X23897Y274637D01*
X23911Y274549D01*
X23926Y274440D01*
X23933Y274308D01*
Y274265D01*
X23926Y274221D01*
X23918Y274163D01*
X23904Y274097D01*
X23889Y274024D01*
X23860Y273959D01*
X23824Y273900D01*
X23816Y273893D01*
X23802Y273878D01*
X23780Y273849D01*
X23743Y273820D01*
X23692Y273776D01*
X23627Y273740D01*
X23554Y273703D01*
X23466Y273667D01*
X23627Y272799D01*
X23634D01*
X23649Y272807D01*
X23678Y272814D01*
X23714Y272829D01*
X23758Y272843D01*
X23809Y272865D01*
X23926Y272916D01*
X24050Y272989D01*
X24181Y273077D01*
X24305Y273179D01*
X24414Y273303D01*
Y273310D01*
X24429Y273317D01*
X24436Y273339D01*
X24458Y273368D01*
X24472Y273412D01*
X24494Y273456D01*
X24523Y273514D01*
X24545Y273572D01*
X24567Y273645D01*
X24596Y273725D01*
X24618Y273813D01*
X24633Y273915D01*
X24655Y274017D01*
X24662Y274134D01*
X24677Y274250D01*
Y274491D01*
X24669Y274542D01*
Y274600D01*
X24655Y274746D01*
X24640Y274899D01*
X24611Y275059D01*
X24567Y275213D01*
X24545Y275278D01*
X24516Y275344D01*
Y275351D01*
X24509Y275358D01*
X24487Y275395D01*
X24458Y275453D01*
X24414Y275519D01*
X24356Y275599D01*
X24290Y275672D01*
X24210Y275737D01*
X24130Y275796D01*
X24115Y275803D01*
X24086Y275817D01*
X24020Y275839D01*
X23984Y275847D01*
X23933Y275861D01*
X23882Y275876D01*
X23816Y275883D01*
X23743Y275898D01*
X23663Y275905D01*
X23576Y275912D01*
X23481Y275920D01*
X23379Y275927D01*
X23262D01*
X22132Y275912D01*
X22125D01*
X22110D01*
X22089D01*
X22052D01*
X21965D01*
X21863Y275920D01*
X21746D01*
X21629Y275934D01*
X21513Y275941D01*
X21418Y275956D01*
X21411D01*
X21381Y275963D01*
X21330Y275978D01*
X21272Y275992D01*
X21199Y276022D01*
X21119Y276051D01*
X21032Y276087D01*
X20937Y276131D01*
D02*
G37*
G36*
X24677Y272202D02*
Y270387D01*
X24669Y270445D01*
X24662Y270518D01*
X24647Y270598D01*
X24633Y270693D01*
X24611Y270787D01*
X24582Y270897D01*
X24545Y271006D01*
X24502Y271115D01*
X24451Y271232D01*
X24385Y271349D01*
X24312Y271458D01*
X24232Y271568D01*
X24137Y271670D01*
X24130Y271677D01*
X24115Y271691D01*
X24079Y271721D01*
X24042Y271750D01*
X23984Y271794D01*
X23926Y271837D01*
X23845Y271888D01*
X23765Y271939D01*
X23671Y271983D01*
X23568Y272034D01*
X23452Y272078D01*
X23335Y272122D01*
X23204Y272151D01*
X23073Y272180D01*
X22927Y272194D01*
X22774Y272202D01*
X24677D01*
X22694D01*
X22635Y272194D01*
X22562Y272187D01*
X22482Y272172D01*
X22388Y272158D01*
X22293Y272136D01*
X22183Y272107D01*
X22074Y272071D01*
X21957Y272027D01*
X21841Y271976D01*
X21724Y271910D01*
X21615Y271837D01*
X21505Y271757D01*
X21396Y271662D01*
X21389Y271655D01*
X21374Y271640D01*
X21345Y271611D01*
X21308Y271568D01*
X21272Y271516D01*
X21228Y271451D01*
X21177Y271378D01*
X21126Y271298D01*
X21075Y271203D01*
X21024Y271101D01*
X20980Y270992D01*
X20944Y270868D01*
X20908Y270744D01*
X20878Y270605D01*
X20864Y270467D01*
X20856Y270314D01*
Y270263D01*
X20864Y270226D01*
Y270182D01*
X20871Y270131D01*
X20886Y270007D01*
X20915Y269854D01*
X20951Y269694D01*
X21010Y269526D01*
X21082Y269351D01*
Y269344D01*
X21090Y269329D01*
X21104Y269308D01*
X21126Y269278D01*
X21177Y269198D01*
X21250Y269096D01*
X21345Y268987D01*
X21462Y268870D01*
X21593Y268761D01*
X21746Y268659D01*
X21753D01*
X21768Y268652D01*
X21790Y268637D01*
X21826Y268622D01*
X21870Y268608D01*
X21921Y268586D01*
X21979Y268564D01*
X22045Y268542D01*
X22118Y268520D01*
X22198Y268498D01*
X22380Y268462D01*
X22592Y268433D01*
X22818Y268425D01*
X22869D01*
X22898Y268433D01*
X22941D01*
X22993Y268440D01*
X23117Y268455D01*
X23255Y268484D01*
X23408Y268528D01*
X23576Y268579D01*
X23743Y268659D01*
X23751D01*
X23765Y268673D01*
X23787Y268681D01*
X23816Y268703D01*
X23897Y268761D01*
X23999Y268834D01*
X24108Y268929D01*
X24225Y269045D01*
X24334Y269176D01*
X24436Y269329D01*
Y269337D01*
X24443Y269351D01*
X24458Y269373D01*
X24472Y269410D01*
X24494Y269446D01*
X24509Y269497D01*
X24531Y269555D01*
X24560Y269614D01*
X24604Y269759D01*
X24640Y269927D01*
X24669Y270110D01*
X24677Y270306D01*
Y268659D01*
Y272202D01*
D02*
G37*
G36*
X17128Y271330D02*
D01*
Y269668D01*
X17121Y269727D01*
X17114Y269792D01*
X17099Y269872D01*
X17085Y269960D01*
X17063Y270055D01*
X17034Y270157D01*
X16997Y270259D01*
X16953Y270368D01*
X16895Y270478D01*
X16837Y270580D01*
X16764Y270682D01*
X16677Y270784D01*
X16582Y270871D01*
X16574Y270879D01*
X16560Y270893D01*
X16523Y270915D01*
X16480Y270944D01*
X16421Y270981D01*
X16356Y271017D01*
X16268Y271061D01*
X16173Y271105D01*
X16064Y271148D01*
X15940Y271192D01*
X15809Y271229D01*
X15656Y271265D01*
X15495Y271294D01*
X15321Y271316D01*
X15138Y271330D01*
X17128D01*
X13308D01*
D01*
X14934D01*
Y268910D01*
X14927D01*
X14912D01*
X14890D01*
X14861Y268917D01*
X14788Y268925D01*
X14686Y268939D01*
X14584Y268969D01*
X14468Y269012D01*
X14358Y269063D01*
X14264Y269136D01*
X14256Y269144D01*
X14227Y269180D01*
X14191Y269224D01*
X14147Y269289D01*
X14103Y269370D01*
X14067Y269472D01*
X14038Y269581D01*
X14030Y269698D01*
Y269734D01*
X14038Y269778D01*
X14045Y269829D01*
X14059Y269887D01*
X14081Y269953D01*
X14110Y270018D01*
X14154Y270077D01*
X14161Y270084D01*
X14176Y270106D01*
X14205Y270135D01*
X14249Y270164D01*
X14307Y270208D01*
X14373Y270244D01*
X14460Y270281D01*
X14555Y270317D01*
X14395Y271280D01*
X14387D01*
X14373Y271272D01*
X14344Y271258D01*
X14307Y271243D01*
X14264Y271221D01*
X14212Y271199D01*
X14096Y271134D01*
X13965Y271054D01*
X13826Y270952D01*
X13702Y270828D01*
X13586Y270689D01*
Y270682D01*
X13571Y270674D01*
X13564Y270645D01*
X13542Y270616D01*
X13520Y270580D01*
X13498Y270529D01*
X13476Y270478D01*
X13447Y270412D01*
X13396Y270266D01*
X13352Y270098D01*
X13323Y269902D01*
X13308Y269690D01*
Y269647D01*
X13316Y269603D01*
Y269537D01*
X13330Y269457D01*
X13345Y269362D01*
X13360Y269260D01*
X13389Y269158D01*
X13418Y269041D01*
X13462Y268925D01*
X13513Y268808D01*
X13571Y268692D01*
X13644Y268575D01*
X13724Y268466D01*
X13819Y268371D01*
X13928Y268276D01*
X13935Y268269D01*
X13950Y268262D01*
X13979Y268247D01*
X14016Y268218D01*
X14067Y268196D01*
X14125Y268167D01*
X14191Y268130D01*
X14271Y268101D01*
X14358Y268065D01*
X14453Y268036D01*
X14555Y267999D01*
X14672Y267977D01*
X14788Y267955D01*
X14912Y267933D01*
X15051Y267926D01*
X15189Y267919D01*
X15277D01*
X15342Y267926D01*
X15415Y267933D01*
X15503Y267941D01*
X15597Y267955D01*
X15707Y267977D01*
X15933Y268036D01*
X16049Y268072D01*
X16173Y268116D01*
X16290Y268174D01*
X16399Y268240D01*
X16509Y268313D01*
X16611Y268393D01*
X16618Y268400D01*
X16633Y268414D01*
X16662Y268444D01*
X16691Y268480D01*
X16727Y268524D01*
X16771Y268582D01*
X16822Y268648D01*
X16873Y268721D01*
X16917Y268801D01*
X16968Y268896D01*
X17012Y268990D01*
X17048Y269100D01*
X17077Y269209D01*
X17107Y269333D01*
X17121Y269457D01*
X17128Y269588D01*
Y267919D01*
D01*
Y271330D01*
D02*
G37*
G36*
Y267219D02*
D01*
Y266031D01*
X17121Y266096D01*
X17114Y266177D01*
X17099Y266264D01*
X17077Y266359D01*
X17048Y266461D01*
X17012Y266563D01*
X17005Y266578D01*
X16990Y266607D01*
X16968Y266658D01*
X16932Y266716D01*
X16888Y266782D01*
X16837Y266847D01*
X16779Y266913D01*
X16713Y266971D01*
X16706Y266978D01*
X16684Y266993D01*
X16647Y267015D01*
X16596Y267044D01*
X16538Y267080D01*
X16465Y267110D01*
X16392Y267139D01*
X16305Y267161D01*
X16297D01*
X16261Y267168D01*
X16210Y267182D01*
X16137Y267190D01*
X16049Y267204D01*
X15933Y267212D01*
X15809Y267219D01*
X17128D01*
X13389D01*
Y266249D01*
X15248D01*
X15255D01*
X15277D01*
X15306D01*
X15342D01*
X15393D01*
X15445D01*
X15568Y266242D01*
X15692Y266235D01*
X15823Y266220D01*
X15933Y266206D01*
X15977Y266198D01*
X16013Y266184D01*
X16020D01*
X16042Y266169D01*
X16071Y266155D01*
X16115Y266133D01*
X16203Y266067D01*
X16246Y266031D01*
X16283Y265980D01*
X16290Y265972D01*
X16297Y265958D01*
X16312Y265929D01*
X16334Y265885D01*
X16356Y265834D01*
X16370Y265783D01*
X16378Y265717D01*
X16385Y265644D01*
Y265601D01*
X16378Y265557D01*
X16370Y265498D01*
X16348Y265426D01*
X16327Y265353D01*
X16290Y265273D01*
X16246Y265192D01*
X16239Y265185D01*
X16225Y265163D01*
X16188Y265127D01*
X16152Y265083D01*
X16093Y265039D01*
X16035Y264996D01*
X15955Y264952D01*
X15875Y264923D01*
X15867D01*
X15831Y264908D01*
X15773Y264901D01*
X15685Y264886D01*
X15634Y264879D01*
X15568Y264872D01*
X15503Y264864D01*
X15423D01*
X15342Y264857D01*
X15248Y264850D01*
X15146D01*
X15036D01*
X13389D01*
Y263880D01*
X17048D01*
Y264777D01*
X16509D01*
X16516Y264784D01*
X16538Y264799D01*
X16567Y264828D01*
X16604Y264864D01*
X16655Y264908D01*
X16706Y264966D01*
X16764Y265032D01*
X16822Y265105D01*
X16873Y265185D01*
X16932Y265280D01*
X16983Y265375D01*
X17034Y265484D01*
X17070Y265601D01*
X17099Y265717D01*
X17121Y265848D01*
X17128Y265980D01*
Y263880D01*
D01*
Y267219D01*
D02*
G37*
G36*
X25981Y267879D02*
Y265269D01*
X24166D01*
X24173Y265276D01*
X24188Y265291D01*
X24210Y265313D01*
X24246Y265349D01*
X24283Y265393D01*
X24327Y265444D01*
X24378Y265502D01*
X24421Y265568D01*
X24516Y265721D01*
X24596Y265903D01*
X24633Y265998D01*
X24655Y266107D01*
X24669Y266217D01*
X24677Y266326D01*
Y266392D01*
X24669Y266435D01*
X24662Y266494D01*
X24647Y266559D01*
X24633Y266632D01*
X24618Y266720D01*
X24560Y266895D01*
X24516Y266982D01*
X24472Y267077D01*
X24414Y267172D01*
X24349Y267259D01*
X24276Y267347D01*
X24188Y267434D01*
X24181Y267441D01*
X24166Y267456D01*
X24137Y267478D01*
X24101Y267507D01*
X24050Y267536D01*
X23991Y267573D01*
X23918Y267616D01*
X23838Y267660D01*
X23743Y267696D01*
X23641Y267740D01*
X23525Y267777D01*
X23401Y267813D01*
X23269Y267835D01*
X23124Y267857D01*
X22971Y267871D01*
X22803Y267879D01*
X25981D01*
X22715D01*
X22650Y267871D01*
X22570Y267864D01*
X22482Y267857D01*
X22380Y267842D01*
X22271Y267820D01*
X22038Y267769D01*
X21921Y267733D01*
X21797Y267689D01*
X21680Y267638D01*
X21564Y267573D01*
X21462Y267507D01*
X21360Y267427D01*
X21352Y267420D01*
X21338Y267405D01*
X21316Y267383D01*
X21279Y267347D01*
X21243Y267303D01*
X21199Y267252D01*
X21155Y267194D01*
X21112Y267128D01*
X21061Y267048D01*
X21017Y266968D01*
X20937Y266778D01*
X20900Y266676D01*
X20878Y266574D01*
X20864Y266457D01*
X20856Y266340D01*
Y266574D01*
Y266289D01*
X20864Y266224D01*
X20878Y266144D01*
X20893Y266049D01*
X20922Y265947D01*
X20959Y265838D01*
X21010Y265721D01*
X21017Y265706D01*
X21039Y265670D01*
X21075Y265612D01*
X21126Y265539D01*
X21192Y265458D01*
X21265Y265371D01*
X21360Y265283D01*
X21469Y265196D01*
X20937D01*
Y264299D01*
X20856D01*
X25981D01*
Y267879D01*
D02*
G37*
G36*
X17128Y263472D02*
Y262889D01*
X17121Y262954D01*
X17107Y263035D01*
X17085Y263137D01*
X17048Y263246D01*
X17005Y263355D01*
X16939Y263472D01*
X16101Y263166D01*
X16108Y263158D01*
X16122Y263122D01*
X16152Y263078D01*
X16181Y263020D01*
X16210Y262947D01*
X16239Y262874D01*
X16254Y262794D01*
X16261Y262714D01*
Y262685D01*
X16254Y262641D01*
X16246Y262597D01*
X16232Y262546D01*
X16210Y262488D01*
X16181Y262429D01*
X16144Y262371D01*
X16137Y262364D01*
X16122Y262349D01*
X16093Y262320D01*
X16049Y262291D01*
X15999Y262255D01*
X15926Y262218D01*
X15838Y262182D01*
X15736Y262152D01*
X15721D01*
X15700Y262145D01*
X15678Y262138D01*
X15641D01*
X15597Y262131D01*
X15539Y262123D01*
X15474Y262116D01*
X15401Y262109D01*
X15306Y262101D01*
X15211Y262094D01*
X15094D01*
X14971Y262087D01*
X14832Y262080D01*
X14679D01*
X14511D01*
X13389D01*
D01*
Y261110D01*
X17048D01*
Y262007D01*
X16531D01*
X16538Y262014D01*
X16582Y262043D01*
X16647Y262087D01*
X16727Y262145D01*
X16808Y262204D01*
X16888Y262276D01*
X16961Y262342D01*
X17012Y262415D01*
X17019Y262422D01*
X17034Y262444D01*
X17048Y262488D01*
X17070Y262539D01*
X17092Y262597D01*
X17114Y262670D01*
X17121Y262743D01*
X17128Y262830D01*
Y261110D01*
D01*
Y263472D01*
D02*
G37*
G36*
X24677Y263359D02*
D01*
Y262171D01*
X24669Y262236D01*
X24662Y262316D01*
X24647Y262404D01*
X24625Y262499D01*
X24596Y262601D01*
X24560Y262703D01*
X24553Y262717D01*
X24538Y262747D01*
X24516Y262798D01*
X24480Y262856D01*
X24436Y262922D01*
X24385Y262987D01*
X24327Y263053D01*
X24261Y263111D01*
X24254Y263118D01*
X24232Y263133D01*
X24195Y263155D01*
X24144Y263184D01*
X24086Y263220D01*
X24013Y263250D01*
X23940Y263279D01*
X23853Y263301D01*
X23845D01*
X23809Y263308D01*
X23758Y263322D01*
X23685Y263330D01*
X23598Y263344D01*
X23481Y263352D01*
X23357Y263359D01*
X24677D01*
X20937D01*
Y262389D01*
X22796D01*
X22803D01*
X22825D01*
X22854D01*
X22891D01*
X22941D01*
X22993D01*
X23117Y262382D01*
X23240Y262375D01*
X23372Y262360D01*
X23481Y262346D01*
X23525Y262338D01*
X23561Y262324D01*
X23568D01*
X23590Y262309D01*
X23619Y262295D01*
X23663Y262273D01*
X23751Y262207D01*
X23794Y262171D01*
X23831Y262120D01*
X23838Y262112D01*
X23845Y262098D01*
X23860Y262069D01*
X23882Y262025D01*
X23904Y261974D01*
X23918Y261923D01*
X23926Y261857D01*
X23933Y261784D01*
Y261740D01*
X23926Y261697D01*
X23918Y261638D01*
X23897Y261566D01*
X23875Y261493D01*
X23838Y261413D01*
X23794Y261332D01*
X23787Y261325D01*
X23773Y261303D01*
X23736Y261267D01*
X23700Y261223D01*
X23641Y261179D01*
X23583Y261136D01*
X23503Y261092D01*
X23423Y261063D01*
X23415D01*
X23379Y261048D01*
X23321Y261041D01*
X23233Y261026D01*
X23182Y261019D01*
X23117Y261012D01*
X23051Y261004D01*
X22971D01*
X22891Y260997D01*
X22796Y260990D01*
X22694D01*
X22584D01*
X20937D01*
Y260020D01*
X24596D01*
Y260917D01*
X24057D01*
X24064Y260924D01*
X24086Y260939D01*
X24115Y260968D01*
X24152Y261004D01*
X24203Y261048D01*
X24254Y261106D01*
X24312Y261172D01*
X24370Y261245D01*
X24421Y261325D01*
X24480Y261420D01*
X24531Y261515D01*
X24582Y261624D01*
X24618Y261740D01*
X24647Y261857D01*
X24669Y261988D01*
X24677Y262120D01*
Y260250D01*
Y263359D01*
D02*
G37*
G36*
X17128Y260359D02*
D01*
Y258697D01*
X17121Y258755D01*
X17114Y258821D01*
X17099Y258901D01*
X17085Y258989D01*
X17063Y259083D01*
X17034Y259185D01*
X16997Y259288D01*
X16953Y259397D01*
X16895Y259506D01*
X16837Y259608D01*
X16764Y259710D01*
X16677Y259812D01*
X16582Y259900D01*
X16574Y259907D01*
X16560Y259922D01*
X16523Y259944D01*
X16480Y259973D01*
X16421Y260009D01*
X16356Y260046D01*
X16268Y260089D01*
X16173Y260133D01*
X16064Y260177D01*
X15940Y260221D01*
X15809Y260257D01*
X15656Y260294D01*
X15495Y260323D01*
X15321Y260345D01*
X15138Y260359D01*
X17128D01*
X13308D01*
D01*
X14934D01*
Y257939D01*
X14927D01*
X14912D01*
X14890D01*
X14861Y257946D01*
X14788Y257953D01*
X14686Y257968D01*
X14584Y257997D01*
X14468Y258041D01*
X14358Y258092D01*
X14264Y258165D01*
X14256Y258172D01*
X14227Y258208D01*
X14191Y258252D01*
X14147Y258318D01*
X14103Y258398D01*
X14067Y258500D01*
X14038Y258610D01*
X14030Y258726D01*
Y258763D01*
X14038Y258806D01*
X14045Y258857D01*
X14059Y258916D01*
X14081Y258981D01*
X14110Y259047D01*
X14154Y259105D01*
X14161Y259113D01*
X14176Y259134D01*
X14205Y259163D01*
X14249Y259193D01*
X14307Y259236D01*
X14373Y259273D01*
X14460Y259309D01*
X14555Y259346D01*
X14395Y260308D01*
X14387D01*
X14373Y260301D01*
X14344Y260286D01*
X14307Y260272D01*
X14264Y260250D01*
X14212Y260228D01*
X14096Y260162D01*
X13965Y260082D01*
X13826Y259980D01*
X13702Y259856D01*
X13586Y259718D01*
Y259710D01*
X13571Y259703D01*
X13564Y259674D01*
X13542Y259645D01*
X13520Y259608D01*
X13498Y259557D01*
X13476Y259506D01*
X13447Y259440D01*
X13396Y259295D01*
X13352Y259127D01*
X13323Y258930D01*
X13308Y258719D01*
Y258675D01*
X13316Y258631D01*
Y258566D01*
X13330Y258486D01*
X13345Y258391D01*
X13360Y258289D01*
X13389Y258187D01*
X13418Y258070D01*
X13462Y257953D01*
X13513Y257837D01*
X13571Y257720D01*
X13644Y257604D01*
X13724Y257494D01*
X13819Y257399D01*
X13928Y257305D01*
X13935Y257297D01*
X13950Y257290D01*
X13979Y257275D01*
X14016Y257246D01*
X14067Y257224D01*
X14125Y257195D01*
X14191Y257159D01*
X14271Y257130D01*
X14358Y257093D01*
X14453Y257064D01*
X14555Y257028D01*
X14672Y257006D01*
X14788Y256984D01*
X14912Y256962D01*
X15051Y256955D01*
X15189Y256947D01*
X15277D01*
X15342Y256955D01*
X15415Y256962D01*
X15503Y256969D01*
X15597Y256984D01*
X15707Y257006D01*
X15933Y257064D01*
X16049Y257101D01*
X16173Y257144D01*
X16290Y257203D01*
X16399Y257268D01*
X16509Y257341D01*
X16611Y257421D01*
X16618Y257429D01*
X16633Y257443D01*
X16662Y257472D01*
X16691Y257509D01*
X16727Y257552D01*
X16771Y257611D01*
X16822Y257676D01*
X16873Y257749D01*
X16917Y257829D01*
X16968Y257924D01*
X17012Y258019D01*
X17048Y258128D01*
X17077Y258238D01*
X17107Y258362D01*
X17121Y258486D01*
X17128Y258617D01*
Y256947D01*
D01*
Y260359D01*
D02*
G37*
G36*
X24677Y259277D02*
Y257461D01*
X24669Y257520D01*
X24662Y257593D01*
X24647Y257673D01*
X24633Y257768D01*
X24611Y257862D01*
X24582Y257972D01*
X24545Y258081D01*
X24502Y258190D01*
X24451Y258307D01*
X24385Y258424D01*
X24312Y258533D01*
X24232Y258642D01*
X24137Y258744D01*
X24130Y258752D01*
X24115Y258766D01*
X24079Y258795D01*
X24042Y258824D01*
X23984Y258868D01*
X23926Y258912D01*
X23845Y258963D01*
X23765Y259014D01*
X23671Y259058D01*
X23568Y259109D01*
X23452Y259153D01*
X23335Y259196D01*
X23204Y259226D01*
X23073Y259255D01*
X22927Y259269D01*
X22774Y259277D01*
X24677D01*
X22694D01*
X22635Y259269D01*
X22562Y259262D01*
X22482Y259247D01*
X22388Y259233D01*
X22293Y259211D01*
X22183Y259182D01*
X22074Y259145D01*
X21957Y259102D01*
X21841Y259050D01*
X21724Y258985D01*
X21615Y258912D01*
X21505Y258832D01*
X21396Y258737D01*
X21389Y258730D01*
X21374Y258715D01*
X21345Y258686D01*
X21308Y258642D01*
X21272Y258591D01*
X21228Y258526D01*
X21177Y258453D01*
X21126Y258373D01*
X21075Y258278D01*
X21024Y258176D01*
X20980Y258066D01*
X20944Y257943D01*
X20908Y257819D01*
X20878Y257680D01*
X20864Y257541D01*
X20856Y257388D01*
Y257337D01*
X20864Y257301D01*
Y257257D01*
X20871Y257206D01*
X20886Y257082D01*
X20915Y256929D01*
X20951Y256769D01*
X21010Y256601D01*
X21082Y256426D01*
Y256419D01*
X21090Y256404D01*
X21104Y256382D01*
X21126Y256353D01*
X21177Y256273D01*
X21250Y256171D01*
X21345Y256062D01*
X21462Y255945D01*
X21593Y255836D01*
X21746Y255734D01*
X21753D01*
X21768Y255726D01*
X21790Y255712D01*
X21826Y255697D01*
X21870Y255683D01*
X21921Y255661D01*
X21979Y255639D01*
X22045Y255617D01*
X22118Y255595D01*
X22198Y255573D01*
X22380Y255537D01*
X22592Y255508D01*
X22818Y255500D01*
X22869D01*
X22898Y255508D01*
X22941D01*
X22993Y255515D01*
X23117Y255529D01*
X23255Y255559D01*
X23408Y255602D01*
X23576Y255653D01*
X23743Y255734D01*
X23751D01*
X23765Y255748D01*
X23787Y255755D01*
X23816Y255777D01*
X23897Y255836D01*
X23999Y255909D01*
X24108Y256003D01*
X24225Y256120D01*
X24334Y256251D01*
X24436Y256404D01*
Y256412D01*
X24443Y256426D01*
X24458Y256448D01*
X24472Y256485D01*
X24494Y256521D01*
X24509Y256572D01*
X24531Y256630D01*
X24560Y256689D01*
X24604Y256834D01*
X24640Y257002D01*
X24669Y257184D01*
X24677Y257381D01*
Y255734D01*
Y259277D01*
D02*
G37*
G36*
X17128Y256473D02*
Y254658D01*
X17121Y254717D01*
X17114Y254789D01*
X17099Y254870D01*
X17085Y254964D01*
X17063Y255059D01*
X17034Y255169D01*
X16997Y255278D01*
X16953Y255387D01*
X16902Y255504D01*
X16837Y255621D01*
X16764Y255730D01*
X16684Y255839D01*
X16589Y255941D01*
X16582Y255949D01*
X16567Y255963D01*
X16531Y255992D01*
X16494Y256021D01*
X16436Y256065D01*
X16378Y256109D01*
X16297Y256160D01*
X16217Y256211D01*
X16122Y256255D01*
X16020Y256306D01*
X15904Y256350D01*
X15787Y256393D01*
X15656Y256422D01*
X15525Y256452D01*
X15379Y256466D01*
X15226Y256473D01*
X17128D01*
X13308D01*
D01*
X15146D01*
X15087Y256466D01*
X15014Y256459D01*
X14934Y256444D01*
X14839Y256430D01*
X14745Y256408D01*
X14635Y256379D01*
X14526Y256342D01*
X14409Y256299D01*
X14293Y256247D01*
X14176Y256182D01*
X14067Y256109D01*
X13957Y256029D01*
X13848Y255934D01*
X13841Y255927D01*
X13826Y255912D01*
X13797Y255883D01*
X13760Y255839D01*
X13724Y255788D01*
X13680Y255723D01*
X13629Y255650D01*
X13578Y255570D01*
X13527Y255475D01*
X13476Y255373D01*
X13432Y255263D01*
X13396Y255139D01*
X13360Y255015D01*
X13330Y254877D01*
X13316Y254738D01*
X13308Y254585D01*
Y254534D01*
X13316Y254498D01*
Y254454D01*
X13323Y254403D01*
X13338Y254279D01*
X13367Y254126D01*
X13403Y253966D01*
X13462Y253798D01*
X13534Y253623D01*
Y253616D01*
X13542Y253601D01*
X13556Y253579D01*
X13578Y253550D01*
X13629Y253470D01*
X13702Y253368D01*
X13797Y253259D01*
X13914Y253142D01*
X14045Y253033D01*
X14198Y252931D01*
X14205D01*
X14220Y252923D01*
X14242Y252909D01*
X14278Y252894D01*
X14322Y252880D01*
X14373Y252858D01*
X14431Y252836D01*
X14497Y252814D01*
X14570Y252792D01*
X14650Y252770D01*
X14832Y252734D01*
X15044Y252705D01*
X15270Y252697D01*
X15321D01*
X15350Y252705D01*
X15393D01*
X15445Y252712D01*
X15568Y252727D01*
X15707Y252756D01*
X15860Y252799D01*
X16028Y252850D01*
X16195Y252931D01*
X16203D01*
X16217Y252945D01*
X16239Y252952D01*
X16268Y252974D01*
X16348Y253033D01*
X16451Y253105D01*
X16560Y253200D01*
X16677Y253317D01*
X16786Y253448D01*
X16888Y253601D01*
Y253609D01*
X16895Y253623D01*
X16910Y253645D01*
X16924Y253681D01*
X16946Y253718D01*
X16961Y253769D01*
X16983Y253827D01*
X17012Y253886D01*
X17055Y254031D01*
X17092Y254199D01*
X17121Y254381D01*
X17128Y254578D01*
Y252931D01*
Y256473D01*
D02*
G37*
G36*
X20995Y255136D02*
D01*
Y255129D01*
X20988Y255121D01*
X20973Y255078D01*
X20951Y255005D01*
X20929Y254910D01*
X20900Y254801D01*
X20878Y254669D01*
X20864Y254523D01*
X20856Y254370D01*
Y255136D01*
X20995D01*
X20856D01*
Y252978D01*
Y254327D01*
X20864Y254276D01*
X20871Y254210D01*
X20878Y254137D01*
X20893Y254057D01*
X20915Y253977D01*
X20944Y253896D01*
X20951Y253889D01*
X20959Y253860D01*
X20980Y253824D01*
X21002Y253780D01*
X21075Y253678D01*
X21119Y253627D01*
X21170Y253583D01*
X21177Y253576D01*
X21199Y253569D01*
X21228Y253554D01*
X21272Y253532D01*
X21323Y253510D01*
X21389Y253488D01*
X21462Y253466D01*
X21542Y253452D01*
X21549D01*
X21578Y253445D01*
X21622D01*
X21695Y253437D01*
X21790Y253430D01*
X21906D01*
X21972Y253423D01*
X22052D01*
X22132D01*
X22227D01*
X23824D01*
Y252978D01*
X20856D01*
X25894D01*
X24596D01*
Y253423D01*
X25325D01*
X25894Y254392D01*
X24596D01*
Y255056D01*
X23824D01*
Y254392D01*
X22344D01*
X22336D01*
X22322D01*
X22300D01*
X22271D01*
X22198D01*
X22110D01*
X22023Y254399D01*
X21936D01*
X21870D01*
X21841Y254407D01*
X21826D01*
X21812Y254414D01*
X21782Y254429D01*
X21746Y254451D01*
X21702Y254494D01*
X21695Y254509D01*
X21680Y254538D01*
X21666Y254589D01*
X21658Y254655D01*
Y254684D01*
X21666Y254713D01*
X21673Y254757D01*
X21680Y254815D01*
X21695Y254881D01*
X21717Y254961D01*
X21746Y255048D01*
X20995Y255136D01*
D02*
G37*
G36*
X25894Y252788D02*
Y252045D01*
X24596D01*
Y252708D01*
X23824D01*
Y252045D01*
X22344D01*
X22336D01*
X22322D01*
X22300D01*
X22271D01*
X22198D01*
X22110D01*
X22023Y252052D01*
X21936D01*
X21870D01*
X21841Y252059D01*
X21826D01*
X21812Y252067D01*
X21782Y252081D01*
X21746Y252103D01*
X21702Y252147D01*
X21695Y252162D01*
X21680Y252191D01*
X21666Y252242D01*
X21658Y252307D01*
Y252337D01*
X21666Y252366D01*
X21673Y252409D01*
X21680Y252468D01*
X21695Y252533D01*
X21717Y252613D01*
X21746Y252701D01*
X20995Y252788D01*
D01*
Y252781D01*
X20988Y252774D01*
X20973Y252730D01*
X20951Y252657D01*
X20929Y252562D01*
X20900Y252453D01*
X20878Y252322D01*
X20864Y252176D01*
X20856Y252023D01*
Y251979D01*
X20864Y251928D01*
X20871Y251863D01*
X20878Y251790D01*
X20893Y251710D01*
X20915Y251629D01*
X20944Y251549D01*
X20951Y251542D01*
X20959Y251513D01*
X20980Y251476D01*
X21002Y251432D01*
X21075Y251330D01*
X21119Y251279D01*
X21170Y251236D01*
X21177Y251228D01*
X21199Y251221D01*
X21228Y251206D01*
X21272Y251185D01*
X21323Y251163D01*
X21389Y251141D01*
X21462Y251119D01*
X21542Y251104D01*
X21549D01*
X21578Y251097D01*
X21622D01*
X21695Y251090D01*
X21790Y251083D01*
X21906D01*
X21972Y251075D01*
X22052D01*
X22132D01*
X22227D01*
X23824D01*
Y250631D01*
X20856D01*
X25894D01*
Y252788D01*
D02*
G37*
G36*
X24596Y250033D02*
X20937D01*
Y249136D01*
X21484D01*
X21469Y249129D01*
X21432Y249100D01*
X21381Y249056D01*
X21316Y248990D01*
X21236Y248917D01*
X21163Y248823D01*
X21082Y248721D01*
X21017Y248604D01*
X21010Y248589D01*
X20995Y248546D01*
X20966Y248480D01*
X20937Y248393D01*
X20908Y248290D01*
X20878Y248174D01*
X20864Y248050D01*
X20856Y247919D01*
D01*
Y247853D01*
X20864Y247787D01*
X20878Y247700D01*
X20893Y247591D01*
X20922Y247481D01*
X20966Y247365D01*
X21017Y247255D01*
X21024Y247241D01*
X21046Y247212D01*
X21082Y247153D01*
X21134Y247095D01*
X21199Y247022D01*
X21272Y246956D01*
X21367Y246891D01*
X21469Y246832D01*
X21484Y246825D01*
X21520Y246811D01*
X21586Y246789D01*
X21680Y246767D01*
X21797Y246745D01*
X21936Y246723D01*
X22096Y246709D01*
X22278Y246701D01*
X20856D01*
X24596D01*
Y250033D01*
D02*
G37*
G36*
X18433Y251873D02*
X13389D01*
Y250853D01*
X15597D01*
Y248863D01*
X13389D01*
Y247842D01*
X18433D01*
Y251873D01*
D02*
G37*
G36*
X14358Y244875D02*
X13389D01*
Y243906D01*
X14358D01*
Y244875D01*
D02*
G37*
G36*
X25981Y245950D02*
X22715D01*
X22650Y245943D01*
X22570Y245936D01*
X22482Y245929D01*
X22380Y245914D01*
X22271Y245892D01*
X22038Y245841D01*
X21921Y245805D01*
X21797Y245761D01*
X21680Y245710D01*
X21564Y245644D01*
X21462Y245579D01*
X21360Y245498D01*
X21352Y245491D01*
X21338Y245477D01*
X21316Y245455D01*
X21279Y245418D01*
X21243Y245374D01*
X21199Y245323D01*
X21155Y245265D01*
X21112Y245199D01*
X21061Y245119D01*
X21017Y245039D01*
X20937Y244850D01*
X20900Y244748D01*
X20878Y244646D01*
X20864Y244529D01*
X20856Y244412D01*
Y244361D01*
X20864Y244296D01*
X20878Y244215D01*
X20893Y244121D01*
X20922Y244019D01*
X20959Y243909D01*
X21010Y243793D01*
X21017Y243778D01*
X21039Y243741D01*
X21075Y243683D01*
X21126Y243610D01*
X21192Y243530D01*
X21265Y243443D01*
X21360Y243355D01*
X21469Y243268D01*
X20937D01*
Y242371D01*
X20856D01*
X25981D01*
Y243370D01*
Y243341D01*
X24166D01*
X24173Y243348D01*
X24188Y243362D01*
X24210Y243384D01*
X24246Y243421D01*
X24283Y243464D01*
X24327Y243515D01*
X24378Y243574D01*
X24421Y243639D01*
X24516Y243793D01*
X24596Y243975D01*
X24633Y244070D01*
X24655Y244179D01*
X24669Y244288D01*
X24677Y244398D01*
Y244463D01*
X24669Y244507D01*
X24662Y244565D01*
X24647Y244631D01*
X24633Y244704D01*
X24618Y244791D01*
X24560Y244966D01*
X24516Y245054D01*
X24472Y245148D01*
X24414Y245243D01*
X24349Y245331D01*
X24276Y245418D01*
X24188Y245506D01*
X24181Y245513D01*
X24166Y245528D01*
X24137Y245550D01*
X24101Y245579D01*
X24050Y245608D01*
X23991Y245644D01*
X23918Y245688D01*
X23838Y245732D01*
X23743Y245768D01*
X23641Y245812D01*
X23525Y245848D01*
X23401Y245885D01*
X23269Y245907D01*
X23124Y245929D01*
X22971Y245943D01*
X22803Y245950D01*
X25981D01*
D02*
G37*
G36*
X18433Y242885D02*
X13389D01*
Y241945D01*
X17354Y241937D01*
X13389Y240946D01*
Y239962D01*
X17354Y238970D01*
X13389D01*
Y238030D01*
X18433D01*
Y242885D01*
D02*
G37*
G36*
X20937Y241941D02*
X19544D01*
Y237917D01*
X20171D01*
Y241941D01*
X20937D01*
D02*
G37*
G36*
X25981Y237494D02*
X20937D01*
Y236524D01*
X25981D01*
Y237494D01*
D02*
G37*
G36*
X18521Y235573D02*
D01*
X13301Y234312D01*
Y233597D01*
X18521Y234844D01*
Y233597D01*
Y235573D01*
D02*
G37*
G36*
X22686Y235737D02*
X22482D01*
Y233317D01*
X22475D01*
X22460D01*
X22438D01*
X22409Y233324D01*
X22336Y233331D01*
X22234Y233346D01*
X22132Y233375D01*
X22016Y233419D01*
X21906Y233470D01*
X21812Y233543D01*
X21804Y233550D01*
X21775Y233587D01*
X21739Y233630D01*
X21695Y233696D01*
X21651Y233776D01*
X21615Y233878D01*
X21586Y233987D01*
X21578Y234104D01*
Y234141D01*
X21586Y234184D01*
X21593Y234235D01*
X21607Y234294D01*
X21629Y234359D01*
X21658Y234425D01*
X21702Y234483D01*
X21710Y234490D01*
X21724Y234512D01*
X21753Y234542D01*
X21797Y234571D01*
X21855Y234614D01*
X21921Y234651D01*
X22008Y234687D01*
X22103Y234724D01*
X21943Y235686D01*
X21936D01*
X21921Y235679D01*
X21892Y235664D01*
X21855Y235650D01*
X21812Y235628D01*
X21760Y235606D01*
X21644Y235540D01*
X21513Y235460D01*
X21374Y235358D01*
X21250Y235234D01*
X21134Y235096D01*
Y235088D01*
X21119Y235081D01*
X21112Y235052D01*
X21090Y235023D01*
X21068Y234986D01*
X21046Y234935D01*
X21024Y234884D01*
X20995Y234819D01*
X20944Y234673D01*
X20900Y234505D01*
X20871Y234308D01*
X20856Y234097D01*
Y234053D01*
X20864Y234009D01*
Y233944D01*
X20878Y233864D01*
X20893Y233769D01*
X20908Y233667D01*
X20937Y233565D01*
X20966Y233448D01*
X21010Y233331D01*
X21061Y233215D01*
X21119Y233098D01*
X21192Y232981D01*
X21272Y232872D01*
X21367Y232777D01*
X21476Y232683D01*
X21484Y232675D01*
X21498Y232668D01*
X21527Y232653D01*
X21564Y232624D01*
X21615Y232602D01*
X21673Y232573D01*
X21739Y232537D01*
X21819Y232508D01*
X21906Y232471D01*
X22001Y232442D01*
X22103Y232406D01*
X22220Y232384D01*
X22336Y232362D01*
X22460Y232340D01*
X22599Y232333D01*
X22737Y232325D01*
X24677D01*
X22825D01*
X22891Y232333D01*
X22963Y232340D01*
X23051Y232347D01*
X23146Y232362D01*
X23255Y232384D01*
X23481Y232442D01*
X23598Y232478D01*
X23721Y232522D01*
X23838Y232580D01*
X23947Y232646D01*
X24057Y232719D01*
X24159Y232799D01*
X24166Y232806D01*
X24181Y232821D01*
X24210Y232850D01*
X24239Y232887D01*
X24276Y232930D01*
X24319Y232989D01*
X24370Y233054D01*
X24421Y233127D01*
X24465Y233208D01*
X24516Y233302D01*
X24560Y233397D01*
X24596Y233506D01*
X24625Y233616D01*
X24655Y233740D01*
X24669Y233864D01*
X24677Y233995D01*
Y234097D01*
Y234075D01*
X24669Y234133D01*
X24662Y234199D01*
X24647Y234279D01*
X24633Y234367D01*
X24611Y234461D01*
X24582Y234563D01*
X24545Y234665D01*
X24502Y234775D01*
X24443Y234884D01*
X24385Y234986D01*
X24312Y235088D01*
X24225Y235190D01*
X24130Y235278D01*
X24123Y235285D01*
X24108Y235300D01*
X24071Y235322D01*
X24028Y235351D01*
X23969Y235387D01*
X23904Y235424D01*
X23816Y235467D01*
X23721Y235511D01*
X23612Y235555D01*
X23488Y235599D01*
X23357Y235635D01*
X23204Y235671D01*
X23043Y235701D01*
X22869Y235722D01*
X22686Y235737D01*
D02*
G37*
G36*
X17128Y231731D02*
X13389D01*
X17128D01*
Y231148D01*
X17121Y231214D01*
X17107Y231294D01*
X17085Y231396D01*
X17048Y231505D01*
X17005Y231615D01*
X16939Y231731D01*
X16101Y231425D01*
X16108Y231418D01*
X16122Y231381D01*
X16152Y231338D01*
X16181Y231279D01*
X16210Y231206D01*
X16239Y231134D01*
X16254Y231053D01*
X16261Y230973D01*
Y230944D01*
X16254Y230900D01*
X16246Y230856D01*
X16232Y230805D01*
X16210Y230747D01*
X16181Y230689D01*
X16144Y230630D01*
X16137Y230623D01*
X16122Y230609D01*
X16093Y230579D01*
X16049Y230550D01*
X15999Y230514D01*
X15926Y230477D01*
X15838Y230441D01*
X15736Y230412D01*
X15721D01*
X15700Y230404D01*
X15678Y230397D01*
X15641D01*
X15597Y230390D01*
X15539Y230383D01*
X15474Y230375D01*
X15401Y230368D01*
X15306Y230361D01*
X15211Y230353D01*
X15094D01*
X14971Y230346D01*
X14832Y230339D01*
X14679D01*
X14511D01*
X13389D01*
Y229369D01*
X17048D01*
Y230266D01*
X16531D01*
X16538Y230273D01*
X16582Y230302D01*
X16647Y230346D01*
X16727Y230404D01*
X16808Y230463D01*
X16888Y230536D01*
X16961Y230601D01*
X17012Y230674D01*
X17019Y230681D01*
X17034Y230703D01*
X17048Y230747D01*
X17070Y230798D01*
X17092Y230856D01*
X17114Y230929D01*
X17121Y231002D01*
X17128Y231090D01*
Y229369D01*
D01*
Y231731D01*
D02*
G37*
G36*
X24677Y231626D02*
X20937D01*
Y228287D01*
X24677D01*
X24596D01*
Y229183D01*
X24057D01*
X24064Y229191D01*
X24086Y229205D01*
X24115Y229234D01*
X24152Y229271D01*
X24203Y229315D01*
X24254Y229373D01*
X24312Y229439D01*
X24370Y229511D01*
X24421Y229592D01*
X24480Y229686D01*
X24531Y229781D01*
X24582Y229890D01*
X24618Y230007D01*
X24647Y230124D01*
X24669Y230255D01*
X24677Y230386D01*
Y230437D01*
X24669Y230503D01*
X24662Y230583D01*
X24647Y230671D01*
X24625Y230765D01*
X24596Y230867D01*
X24560Y230970D01*
X24553Y230984D01*
X24538Y231013D01*
X24516Y231064D01*
X24480Y231123D01*
X24436Y231188D01*
X24385Y231254D01*
X24327Y231319D01*
X24261Y231378D01*
X24254Y231385D01*
X24232Y231400D01*
X24195Y231421D01*
X24144Y231451D01*
X24086Y231487D01*
X24013Y231516D01*
X23940Y231545D01*
X23853Y231567D01*
X23845D01*
X23809Y231575D01*
X23758Y231589D01*
X23685Y231596D01*
X23598Y231611D01*
X23481Y231618D01*
X23357Y231626D01*
X24677D01*
D02*
G37*
G36*
X17128Y228618D02*
X13308D01*
X14934D01*
Y226198D01*
X14927D01*
X14912D01*
X14890D01*
X14861Y226205D01*
X14788Y226213D01*
X14686Y226227D01*
X14584Y226256D01*
X14468Y226300D01*
X14358Y226351D01*
X14264Y226424D01*
X14256Y226431D01*
X14227Y226468D01*
X14191Y226512D01*
X14147Y226577D01*
X14103Y226657D01*
X14067Y226760D01*
X14038Y226869D01*
X14030Y226986D01*
Y227022D01*
X14038Y227066D01*
X14045Y227117D01*
X14059Y227175D01*
X14081Y227241D01*
X14110Y227306D01*
X14154Y227365D01*
X14161Y227372D01*
X14176Y227394D01*
X14205Y227423D01*
X14249Y227452D01*
X14307Y227496D01*
X14373Y227532D01*
X14460Y227569D01*
X14555Y227605D01*
X14395Y228567D01*
X14387D01*
X14373Y228560D01*
X14344Y228545D01*
X14307Y228531D01*
X14264Y228509D01*
X14212Y228487D01*
X14096Y228422D01*
X13965Y228341D01*
X13826Y228239D01*
X13702Y228115D01*
X13586Y227977D01*
Y227970D01*
X13571Y227962D01*
X13564Y227933D01*
X13542Y227904D01*
X13520Y227868D01*
X13498Y227817D01*
X13476Y227765D01*
X13447Y227700D01*
X13396Y227554D01*
X13352Y227386D01*
X13323Y227190D01*
X13308Y226978D01*
Y226934D01*
X13316Y226891D01*
Y226825D01*
X13330Y226745D01*
X13345Y226650D01*
X13360Y226548D01*
X13389Y226446D01*
X13418Y226329D01*
X13462Y226213D01*
X13513Y226096D01*
X13571Y225979D01*
X13644Y225863D01*
X13724Y225753D01*
X13819Y225659D01*
X13928Y225564D01*
X13935Y225557D01*
X13950Y225549D01*
X13979Y225535D01*
X14016Y225506D01*
X14067Y225484D01*
X14125Y225455D01*
X14191Y225418D01*
X14271Y225389D01*
X14358Y225353D01*
X14453Y225323D01*
X14555Y225287D01*
X14672Y225265D01*
X14788Y225243D01*
X14912Y225221D01*
X15051Y225214D01*
X15189Y225207D01*
X15277D01*
X15342Y225214D01*
X15415Y225221D01*
X15503Y225229D01*
X15597Y225243D01*
X15707Y225265D01*
X15933Y225323D01*
X16049Y225360D01*
X16173Y225403D01*
X16290Y225462D01*
X16399Y225528D01*
X16509Y225600D01*
X16611Y225681D01*
X16618Y225688D01*
X16633Y225702D01*
X16662Y225732D01*
X16691Y225768D01*
X16727Y225812D01*
X16771Y225870D01*
X16822Y225936D01*
X16873Y226009D01*
X16917Y226089D01*
X16968Y226184D01*
X17012Y226278D01*
X17048Y226388D01*
X17077Y226497D01*
X17107Y226621D01*
X17121Y226745D01*
X17128Y226876D01*
Y225207D01*
D01*
Y228618D01*
D02*
G37*
G36*
X24677Y227551D02*
D01*
Y225910D01*
X24669Y225961D01*
Y226020D01*
X24655Y226165D01*
X24640Y226318D01*
X24611Y226479D01*
X24567Y226632D01*
X24545Y226697D01*
X24516Y226763D01*
Y226770D01*
X24509Y226778D01*
X24487Y226814D01*
X24458Y226872D01*
X24414Y226938D01*
X24356Y227018D01*
X24290Y227091D01*
X24210Y227157D01*
X24130Y227215D01*
X24115Y227222D01*
X24086Y227237D01*
X24020Y227259D01*
X23984Y227266D01*
X23933Y227281D01*
X23882Y227295D01*
X23816Y227303D01*
X23743Y227317D01*
X23663Y227325D01*
X23576Y227332D01*
X23481Y227339D01*
X23379Y227346D01*
X23262D01*
X22132Y227332D01*
X22125D01*
X22110D01*
X22089D01*
X22052D01*
X21965D01*
X21863Y227339D01*
X21746D01*
X21629Y227354D01*
X21513Y227361D01*
X21418Y227376D01*
X21411D01*
X21381Y227383D01*
X21330Y227397D01*
X21272Y227412D01*
X21199Y227441D01*
X21119Y227470D01*
X21032Y227507D01*
X20937Y227551D01*
Y226595D01*
X20944D01*
X20951Y226588D01*
X20980Y226581D01*
X21010Y226566D01*
X21046Y226552D01*
X21097Y226537D01*
X21155Y226523D01*
X21221Y226501D01*
X21228D01*
X21236Y226493D01*
X21265Y226486D01*
X21301Y226471D01*
X21330Y226464D01*
X21323Y226450D01*
X21294Y226420D01*
X21250Y226370D01*
X21199Y226304D01*
X21141Y226224D01*
X21075Y226136D01*
X21024Y226034D01*
X20973Y225932D01*
X20966Y225918D01*
X20959Y225881D01*
X20937Y225823D01*
X20915Y225750D01*
X20893Y225662D01*
X20878Y225560D01*
X20864Y225444D01*
X20856Y225327D01*
Y225276D01*
X20864Y225232D01*
Y225188D01*
X20871Y225130D01*
X20893Y225006D01*
X20929Y224860D01*
X20980Y224715D01*
X21053Y224569D01*
X21155Y224438D01*
X21163D01*
X21170Y224423D01*
X21214Y224387D01*
X21279Y224336D01*
X21367Y224277D01*
X21476Y224219D01*
X21607Y224168D01*
X21760Y224131D01*
X21841Y224124D01*
X21928Y224117D01*
X21979D01*
X22038Y224124D01*
X22110Y224139D01*
X22198Y224153D01*
X22285Y224175D01*
X22380Y224212D01*
X22475Y224263D01*
X22490Y224270D01*
X22519Y224292D01*
X22562Y224321D01*
X22613Y224372D01*
X22672Y224423D01*
X22737Y224496D01*
X22796Y224576D01*
X22847Y224671D01*
X22854Y224686D01*
X22869Y224722D01*
X22891Y224780D01*
X22927Y224868D01*
X22963Y224977D01*
X23000Y225108D01*
X23036Y225269D01*
X23073Y225444D01*
Y225451D01*
X23080Y225473D01*
X23087Y225509D01*
X23095Y225553D01*
X23102Y225611D01*
X23117Y225677D01*
X23153Y225823D01*
X23189Y225976D01*
X23226Y226136D01*
X23269Y226275D01*
X23291Y226340D01*
X23313Y226391D01*
X23408D01*
X23423D01*
X23452D01*
X23503Y226384D01*
X23568Y226377D01*
X23634Y226355D01*
X23700Y226333D01*
X23758Y226297D01*
X23809Y226245D01*
X23816Y226238D01*
X23831Y226216D01*
X23845Y226180D01*
X23875Y226129D01*
X23897Y226056D01*
X23911Y225969D01*
X23926Y225859D01*
X23933Y225728D01*
Y225684D01*
X23926Y225641D01*
X23918Y225582D01*
X23904Y225517D01*
X23889Y225444D01*
X23860Y225378D01*
X23824Y225320D01*
X23816Y225312D01*
X23802Y225298D01*
X23780Y225269D01*
X23743Y225239D01*
X23692Y225196D01*
X23627Y225159D01*
X23554Y225123D01*
X23466Y225086D01*
X23627Y224219D01*
X23634D01*
X23649Y224226D01*
X23678Y224234D01*
X23714Y224248D01*
X23758Y224263D01*
X23809Y224285D01*
X23926Y224336D01*
X24050Y224409D01*
X24181Y224496D01*
X24305Y224598D01*
X24414Y224722D01*
Y224729D01*
X24429Y224736D01*
X24436Y224758D01*
X24458Y224787D01*
X24472Y224831D01*
X24494Y224875D01*
X24523Y224933D01*
X24545Y224992D01*
X24567Y225065D01*
X24596Y225145D01*
X24618Y225232D01*
X24633Y225334D01*
X24655Y225436D01*
X24662Y225553D01*
X24677Y225670D01*
Y224248D01*
Y227551D01*
D02*
G37*
G36*
X18433Y224492D02*
X17052D01*
X17537D01*
Y223523D01*
X18433D01*
Y224492D01*
D02*
G37*
G36*
X17048D02*
X13389D01*
Y223523D01*
X17052D01*
X17048D01*
Y224492D01*
D02*
G37*
G36*
X17128Y222735D02*
X13308D01*
X14934D01*
Y220315D01*
X14927D01*
X14912D01*
X14890D01*
X14861Y220322D01*
X14788Y220330D01*
X14686Y220344D01*
X14584Y220373D01*
X14468Y220417D01*
X14358Y220468D01*
X14264Y220541D01*
X14256Y220548D01*
X14227Y220585D01*
X14191Y220629D01*
X14147Y220694D01*
X14103Y220774D01*
X14067Y220877D01*
X14038Y220986D01*
X14030Y221102D01*
Y221139D01*
X14038Y221183D01*
X14045Y221234D01*
X14059Y221292D01*
X14081Y221358D01*
X14110Y221423D01*
X14154Y221481D01*
X14161Y221489D01*
X14176Y221511D01*
X14205Y221540D01*
X14249Y221569D01*
X14307Y221613D01*
X14373Y221649D01*
X14460Y221686D01*
X14555Y221722D01*
X14395Y222684D01*
X14387D01*
X14373Y222677D01*
X14344Y222662D01*
X14307Y222648D01*
X14264Y222626D01*
X14212Y222604D01*
X14096Y222539D01*
X13965Y222458D01*
X13826Y222356D01*
X13702Y222232D01*
X13586Y222094D01*
Y222087D01*
X13571Y222079D01*
X13564Y222050D01*
X13542Y222021D01*
X13520Y221985D01*
X13498Y221934D01*
X13476Y221883D01*
X13447Y221817D01*
X13396Y221671D01*
X13352Y221503D01*
X13323Y221307D01*
X13308Y221095D01*
Y221099D01*
Y221051D01*
X13316Y221008D01*
Y220942D01*
X13330Y220862D01*
X13345Y220767D01*
X13360Y220665D01*
X13389Y220563D01*
X13418Y220446D01*
X13462Y220330D01*
X13513Y220213D01*
X13571Y220096D01*
X13644Y219980D01*
X13724Y219870D01*
X13819Y219776D01*
X13928Y219681D01*
X13935Y219674D01*
X13950Y219666D01*
X13979Y219652D01*
X14016Y219623D01*
X14067Y219601D01*
X14125Y219571D01*
X14191Y219535D01*
X14271Y219506D01*
X14358Y219469D01*
X14453Y219440D01*
X14555Y219404D01*
X14672Y219382D01*
X14788Y219360D01*
X14912Y219338D01*
X15051Y219331D01*
X15189Y219324D01*
X15277D01*
X15342Y219331D01*
X15415Y219338D01*
X15503Y219346D01*
X15597Y219360D01*
X15707Y219382D01*
X15933Y219440D01*
X16049Y219477D01*
X16173Y219520D01*
X16290Y219579D01*
X16399Y219644D01*
X16509Y219717D01*
X16611Y219797D01*
X16618Y219805D01*
X16633Y219819D01*
X16662Y219849D01*
X16691Y219885D01*
X16727Y219929D01*
X16771Y219987D01*
X16822Y220053D01*
X16873Y220126D01*
X16917Y220206D01*
X16968Y220301D01*
X17012Y220395D01*
X17048Y220505D01*
X17077Y220614D01*
X17107Y220738D01*
X17121Y220862D01*
X17128Y220993D01*
Y219324D01*
D01*
Y221073D01*
X17121Y221132D01*
X17114Y221197D01*
X17099Y221277D01*
X17085Y221365D01*
X17063Y221460D01*
X17034Y221562D01*
X16997Y221664D01*
X16953Y221773D01*
X16895Y221883D01*
X16837Y221985D01*
X16764Y222087D01*
X16677Y222189D01*
X16582Y222276D01*
X16574Y222283D01*
X16560Y222298D01*
X16523Y222320D01*
X16480Y222349D01*
X16421Y222386D01*
X16356Y222422D01*
X16268Y222466D01*
X16173Y222509D01*
X16064Y222553D01*
X15940Y222597D01*
X15809Y222633D01*
X15656Y222670D01*
X15495Y222699D01*
X15321Y222721D01*
X15138Y222735D01*
X17128D01*
D01*
D02*
G37*
G36*
X22781Y223607D02*
X21438D01*
X22694D01*
X22628Y223599D01*
X22555Y223592D01*
X22468Y223585D01*
X22366Y223570D01*
X22264Y223548D01*
X22030Y223497D01*
X21914Y223461D01*
X21797Y223417D01*
X21680Y223366D01*
X21571Y223300D01*
X21462Y223235D01*
X21360Y223155D01*
X21352Y223147D01*
X21338Y223133D01*
X21316Y223111D01*
X21279Y223074D01*
X21243Y223031D01*
X21199Y222980D01*
X21155Y222921D01*
X21112Y222856D01*
X21061Y222776D01*
X21017Y222695D01*
X20937Y222513D01*
X20900Y222411D01*
X20878Y222302D01*
X20864Y222192D01*
X20856Y222076D01*
Y222025D01*
X20864Y221966D01*
X20871Y221893D01*
X20886Y221806D01*
X20908Y221711D01*
X20937Y221616D01*
X20973Y221522D01*
X20980Y221514D01*
X20995Y221478D01*
X21032Y221434D01*
X21075Y221369D01*
X21126Y221288D01*
X21199Y221208D01*
X21287Y221113D01*
X21389Y221011D01*
X19537D01*
Y220042D01*
X24677D01*
X24596D01*
Y220946D01*
X24057D01*
X24071Y220953D01*
X24101Y220975D01*
X24152Y221019D01*
X24217Y221070D01*
X24290Y221135D01*
X24363Y221223D01*
X24436Y221310D01*
X24502Y221420D01*
X24509Y221434D01*
X24531Y221471D01*
X24560Y221536D01*
X24589Y221616D01*
X24618Y221711D01*
X24647Y221828D01*
X24669Y221952D01*
X24677Y222083D01*
Y222141D01*
X24669Y222192D01*
X24662Y222243D01*
X24647Y222309D01*
X24633Y222382D01*
X24611Y222455D01*
X24589Y222542D01*
X24553Y222622D01*
X24516Y222717D01*
X24465Y222805D01*
X24407Y222899D01*
X24341Y222987D01*
X24261Y223074D01*
X24173Y223162D01*
X24166Y223169D01*
X24152Y223184D01*
X24123Y223206D01*
X24079Y223235D01*
X24035Y223264D01*
X23969Y223300D01*
X23897Y223344D01*
X23816Y223388D01*
X23721Y223424D01*
X23619Y223468D01*
X23503Y223504D01*
X23379Y223541D01*
X23240Y223563D01*
X23102Y223585D01*
X22941Y223599D01*
X22781Y223607D01*
D02*
G37*
G36*
X20995Y219480D02*
D01*
Y219473D01*
X20988Y219466D01*
X20973Y219422D01*
X20951Y219349D01*
X20929Y219254D01*
X20900Y219145D01*
X20878Y219014D01*
X20864Y218868D01*
X20856Y218715D01*
Y219480D01*
D01*
Y217323D01*
Y218671D01*
X20864Y218620D01*
X20871Y218555D01*
X20878Y218482D01*
X20893Y218402D01*
X20915Y218321D01*
X20944Y218241D01*
X20951Y218234D01*
X20959Y218205D01*
X20980Y218168D01*
X21002Y218125D01*
X21075Y218022D01*
X21119Y217971D01*
X21170Y217928D01*
X21177Y217920D01*
X21199Y217913D01*
X21228Y217899D01*
X21272Y217877D01*
X21323Y217855D01*
X21389Y217833D01*
X21462Y217811D01*
X21542Y217796D01*
X21549D01*
X21578Y217789D01*
X21622D01*
X21695Y217782D01*
X21790Y217775D01*
X21906D01*
X21972Y217767D01*
X22052D01*
X22132D01*
X22227D01*
X23824D01*
Y217323D01*
X25894D01*
X24596D01*
Y217767D01*
X25325D01*
X25894Y218737D01*
X24596D01*
Y219400D01*
X23824D01*
Y218737D01*
X22344D01*
X22336D01*
X22322D01*
X22300D01*
X22271D01*
X22198D01*
X22110D01*
X22023Y218744D01*
X21936D01*
X21870D01*
X21841Y218751D01*
X21826D01*
X21812Y218759D01*
X21782Y218773D01*
X21746Y218795D01*
X21702Y218839D01*
X21695Y218853D01*
X21680Y218883D01*
X21666Y218934D01*
X21658Y218999D01*
Y219028D01*
X21666Y219058D01*
X21673Y219101D01*
X21680Y219160D01*
X21695Y219225D01*
X21717Y219305D01*
X21746Y219393D01*
X20995Y219480D01*
D02*
G37*
G36*
X24677Y216739D02*
D01*
Y215551D01*
X24669Y215617D01*
X24662Y215697D01*
X24647Y215784D01*
X24625Y215879D01*
X24596Y215981D01*
X24560Y216083D01*
X24553Y216098D01*
X24538Y216127D01*
X24516Y216178D01*
X24480Y216236D01*
X24436Y216302D01*
X24385Y216368D01*
X24327Y216433D01*
X24261Y216492D01*
X24254Y216499D01*
X24232Y216513D01*
X24195Y216535D01*
X24144Y216564D01*
X24086Y216601D01*
X24013Y216630D01*
X23940Y216659D01*
X23853Y216681D01*
X23845D01*
X23809Y216688D01*
X23758Y216703D01*
X23685Y216710D01*
X23598Y216725D01*
X23481Y216732D01*
X23357Y216739D01*
X24677D01*
X20937D01*
Y215770D01*
X22796D01*
X22803D01*
X22825D01*
X22854D01*
X22891D01*
X22941D01*
X22993D01*
X23117Y215762D01*
X23240Y215755D01*
X23372Y215741D01*
X23481Y215726D01*
X23525Y215719D01*
X23561Y215704D01*
X23568D01*
X23590Y215690D01*
X23619Y215675D01*
X23663Y215653D01*
X23751Y215588D01*
X23794Y215551D01*
X23831Y215500D01*
X23838Y215493D01*
X23845Y215478D01*
X23860Y215449D01*
X23882Y215405D01*
X23904Y215354D01*
X23918Y215303D01*
X23926Y215238D01*
X23933Y215165D01*
Y215121D01*
X23926Y215077D01*
X23918Y215019D01*
X23897Y214946D01*
X23875Y214873D01*
X23838Y214793D01*
X23794Y214713D01*
X23787Y214705D01*
X23773Y214684D01*
X23736Y214647D01*
X23700Y214603D01*
X23641Y214560D01*
X23583Y214516D01*
X23503Y214472D01*
X23423Y214443D01*
X23415D01*
X23379Y214428D01*
X23321Y214421D01*
X23233Y214407D01*
X23182Y214399D01*
X23117Y214392D01*
X23051Y214385D01*
X22971D01*
X22891Y214377D01*
X22796Y214370D01*
X22694D01*
X22584D01*
X20937D01*
Y213401D01*
X24677D01*
Y216739D01*
D02*
G37*
G36*
X18528Y218668D02*
X13294D01*
X14067D01*
X14052Y218653D01*
X14038Y218631D01*
X14016Y218609D01*
X13986Y218573D01*
X13957Y218536D01*
X13884Y218434D01*
X13804Y218296D01*
X13709Y218135D01*
X13615Y217953D01*
X13527Y217735D01*
Y217727D01*
X13520Y217705D01*
X13505Y217676D01*
X13491Y217632D01*
X13476Y217574D01*
X13454Y217509D01*
X13432Y217436D01*
X13410Y217355D01*
X13367Y217173D01*
X13330Y216962D01*
X13301Y216743D01*
X13294Y216510D01*
Y216430D01*
X13301Y216378D01*
Y216306D01*
X13308Y216225D01*
X13323Y216138D01*
X13338Y216036D01*
X13374Y215825D01*
X13432Y215591D01*
X13513Y215351D01*
X13564Y215241D01*
X13622Y215125D01*
X13629Y215117D01*
X13636Y215103D01*
X13658Y215066D01*
X13688Y215030D01*
X13717Y214979D01*
X13760Y214928D01*
X13812Y214862D01*
X13870Y214797D01*
X14001Y214651D01*
X14169Y214505D01*
X14358Y214367D01*
X14577Y214243D01*
X14584D01*
X14606Y214228D01*
X14642Y214213D01*
X14686Y214199D01*
X14745Y214177D01*
X14810Y214148D01*
X14890Y214126D01*
X14978Y214097D01*
X15073Y214068D01*
X15182Y214046D01*
X15408Y213995D01*
X15656Y213966D01*
X15926Y213951D01*
X16006D01*
X16057Y213958D01*
X16130D01*
X16210Y213966D01*
X16297Y213980D01*
X16399Y213995D01*
X16611Y214031D01*
X16851Y214089D01*
X17092Y214170D01*
X17209Y214221D01*
X17325Y214279D01*
X17333Y214286D01*
X17354Y214294D01*
X17384Y214316D01*
X17427Y214337D01*
X17478Y214374D01*
X17537Y214418D01*
X17602Y214469D01*
X17675Y214520D01*
X17748Y214585D01*
X17828Y214658D01*
X17909Y214738D01*
X17989Y214826D01*
X18062Y214920D01*
X18142Y215015D01*
X18273Y215241D01*
Y215249D01*
X18288Y215263D01*
X18295Y215292D01*
X18317Y215329D01*
X18331Y215380D01*
X18353Y215431D01*
X18375Y215504D01*
X18404Y215577D01*
X18426Y215657D01*
X18448Y215752D01*
X18470Y215854D01*
X18492Y215956D01*
X18521Y216189D01*
X18528Y216451D01*
Y214177D01*
Y216451D01*
Y216539D01*
X18521Y216604D01*
X18514Y216685D01*
X18506Y216779D01*
X18499Y216881D01*
X18477Y216991D01*
X18433Y217224D01*
X18361Y217465D01*
X18317Y217589D01*
X18266Y217705D01*
X18207Y217815D01*
X18135Y217917D01*
X18127Y217924D01*
X18120Y217939D01*
X18091Y217968D01*
X18062Y218004D01*
X18025Y218048D01*
X17974Y218092D01*
X17916Y218143D01*
X17850Y218201D01*
X17777Y218259D01*
X17697Y218318D01*
X17610Y218376D01*
X17507Y218427D01*
X17405Y218485D01*
X17296Y218529D01*
X17172Y218573D01*
X17048Y218602D01*
X16859Y217589D01*
X16866D01*
X16873Y217581D01*
X16917Y217567D01*
X16983Y217538D01*
X17070Y217494D01*
X17165Y217443D01*
X17260Y217370D01*
X17354Y217283D01*
X17442Y217180D01*
X17449Y217166D01*
X17478Y217129D01*
X17515Y217064D01*
X17551Y216984D01*
X17595Y216874D01*
X17624Y216750D01*
X17653Y216612D01*
X17661Y216451D01*
Y216386D01*
X17653Y216342D01*
X17646Y216284D01*
X17639Y216218D01*
X17624Y216145D01*
X17610Y216065D01*
X17559Y215897D01*
X17522Y215810D01*
X17478Y215722D01*
X17427Y215635D01*
X17376Y215547D01*
X17303Y215467D01*
X17231Y215387D01*
X17223Y215380D01*
X17209Y215372D01*
X17187Y215351D01*
X17150Y215329D01*
X17107Y215300D01*
X17055Y215263D01*
X16990Y215227D01*
X16917Y215197D01*
X16830Y215161D01*
X16735Y215125D01*
X16633Y215088D01*
X16523Y215059D01*
X16399Y215037D01*
X16261Y215015D01*
X16122Y215008D01*
X15969Y215001D01*
X15962D01*
X15933D01*
X15882D01*
X15823Y215008D01*
X15743Y215015D01*
X15663Y215023D01*
X15561Y215037D01*
X15459Y215052D01*
X15240Y215095D01*
X15014Y215168D01*
X14905Y215212D01*
X14803Y215263D01*
X14701Y215329D01*
X14613Y215394D01*
X14606Y215402D01*
X14592Y215416D01*
X14570Y215438D01*
X14540Y215467D01*
X14511Y215511D01*
X14468Y215555D01*
X14431Y215613D01*
X14387Y215679D01*
X14344Y215752D01*
X14307Y215825D01*
X14234Y216007D01*
X14205Y216109D01*
X14183Y216211D01*
X14169Y216328D01*
X14161Y216444D01*
Y216502D01*
X14169Y216561D01*
X14176Y216648D01*
X14191Y216743D01*
X14212Y216852D01*
X14242Y216969D01*
X14285Y217086D01*
Y217093D01*
X14293Y217100D01*
X14307Y217137D01*
X14336Y217202D01*
X14373Y217275D01*
X14417Y217363D01*
X14468Y217457D01*
X14526Y217552D01*
X14592Y217640D01*
X15240D01*
Y216473D01*
X16093D01*
Y218668D01*
X18528D01*
D01*
D02*
G37*
G36*
X24677Y212657D02*
Y210842D01*
X24669Y210900D01*
X24662Y210973D01*
X24647Y211053D01*
X24633Y211148D01*
X24611Y211243D01*
X24582Y211352D01*
X24545Y211461D01*
X24502Y211571D01*
X24451Y211687D01*
X24385Y211804D01*
X24312Y211913D01*
X24232Y212023D01*
X24137Y212125D01*
X24130Y212132D01*
X24115Y212147D01*
X24079Y212176D01*
X24042Y212205D01*
X23984Y212249D01*
X23926Y212293D01*
X23845Y212344D01*
X23765Y212394D01*
X23671Y212438D01*
X23568Y212489D01*
X23452Y212533D01*
X23335Y212577D01*
X23204Y212606D01*
X23073Y212635D01*
X22927Y212650D01*
X22774Y212657D01*
X24677D01*
X20856D01*
X22694D01*
X22635Y212650D01*
X22562Y212642D01*
X22482Y212628D01*
X22388Y212613D01*
X22293Y212591D01*
X22183Y212562D01*
X22074Y212526D01*
X21957Y212482D01*
X21841Y212431D01*
X21724Y212365D01*
X21615Y212293D01*
X21505Y212212D01*
X21396Y212118D01*
X21389Y212110D01*
X21374Y212096D01*
X21345Y212067D01*
X21308Y212023D01*
X21272Y211972D01*
X21228Y211906D01*
X21177Y211833D01*
X21126Y211753D01*
X21075Y211658D01*
X21024Y211556D01*
X20980Y211447D01*
X20944Y211323D01*
X20908Y211199D01*
X20878Y211061D01*
X20864Y210922D01*
X20856Y210769D01*
D01*
Y210718D01*
X20864Y210681D01*
Y210638D01*
X20871Y210587D01*
X20886Y210463D01*
X20915Y210310D01*
X20951Y210149D01*
X21010Y209982D01*
X21082Y209807D01*
Y209799D01*
X21090Y209785D01*
X21104Y209763D01*
X21126Y209734D01*
X21177Y209653D01*
X21250Y209551D01*
X21345Y209442D01*
X21462Y209326D01*
X21593Y209216D01*
X21746Y209114D01*
X21753D01*
X21768Y209107D01*
X21790Y209092D01*
X21826Y209078D01*
X21870Y209063D01*
X21921Y209041D01*
X21979Y209019D01*
X22045Y208997D01*
X22118Y208976D01*
X22198Y208954D01*
X22380Y208917D01*
X22592Y208888D01*
X22818Y208881D01*
X22869D01*
X22898Y208888D01*
X22941D01*
X22993Y208895D01*
X23117Y208910D01*
X23255Y208939D01*
X23408Y208983D01*
X23576Y209034D01*
X23743Y209114D01*
X23751D01*
X23765Y209129D01*
X23787Y209136D01*
X23816Y209158D01*
X23897Y209216D01*
X23999Y209289D01*
X24108Y209384D01*
X24225Y209500D01*
X24334Y209632D01*
X24436Y209785D01*
Y209792D01*
X24443Y209807D01*
X24458Y209828D01*
X24472Y209865D01*
X24494Y209901D01*
X24509Y209952D01*
X24531Y210011D01*
X24560Y210069D01*
X24604Y210215D01*
X24640Y210383D01*
X24669Y210565D01*
X24677Y210762D01*
Y209114D01*
Y212657D01*
D02*
G37*
G36*
X14358Y211166D02*
X13389D01*
Y210197D01*
X14358D01*
Y211166D01*
D02*
G37*
G36*
X24677Y208684D02*
X20937D01*
Y206322D01*
X24677D01*
X24596D01*
Y207219D01*
X24079D01*
X24086Y207226D01*
X24130Y207255D01*
X24195Y207299D01*
X24276Y207357D01*
X24356Y207416D01*
X24436Y207488D01*
X24509Y207554D01*
X24560Y207627D01*
X24567Y207634D01*
X24582Y207656D01*
X24596Y207700D01*
X24618Y207751D01*
X24640Y207809D01*
X24662Y207882D01*
X24669Y207955D01*
X24677Y208042D01*
Y208101D01*
X24669Y208166D01*
X24655Y208246D01*
X24633Y208349D01*
X24596Y208458D01*
X24553Y208567D01*
X24487Y208684D01*
X23649Y208378D01*
X23656Y208370D01*
X23671Y208334D01*
X23700Y208290D01*
X23729Y208232D01*
X23758Y208159D01*
X23787Y208086D01*
X23802Y208006D01*
X23809Y207926D01*
Y207897D01*
X23802Y207853D01*
X23794Y207809D01*
X23780Y207758D01*
X23758Y207700D01*
X23729Y207642D01*
X23692Y207583D01*
X23685Y207576D01*
X23671Y207561D01*
X23641Y207532D01*
X23598Y207503D01*
X23547Y207467D01*
X23474Y207430D01*
X23386Y207394D01*
X23284Y207364D01*
X23269D01*
X23248Y207357D01*
X23226Y207350D01*
X23189D01*
X23146Y207343D01*
X23087Y207335D01*
X23022Y207328D01*
X22949Y207321D01*
X22854Y207313D01*
X22759Y207306D01*
X22643D01*
X22519Y207299D01*
X22380Y207292D01*
X22227D01*
X22059D01*
X20937D01*
Y208684D01*
X24677D01*
D02*
G37*
G36*
X26076Y206067D02*
Y205323D01*
X26069Y205403D01*
X26062Y205505D01*
X26047Y205629D01*
X26025Y205768D01*
X25996Y205914D01*
X25952Y206067D01*
X25274Y205936D01*
Y205928D01*
X25282Y205899D01*
X25296Y205848D01*
X25304Y205790D01*
X25318Y205724D01*
X25325Y205651D01*
X25333Y205491D01*
Y205454D01*
X25325Y205418D01*
X25318Y205374D01*
X25289Y205272D01*
X25267Y205228D01*
X25231Y205185D01*
X25223D01*
X25209Y205170D01*
X25187Y205156D01*
X25143Y205141D01*
X25092Y205126D01*
X25026Y205112D01*
X24946Y205104D01*
X24851Y205097D01*
X24596D01*
Y205819D01*
X23838D01*
Y205097D01*
X20937D01*
D01*
Y204128D01*
X23838D01*
Y203588D01*
X26076D01*
Y206067D01*
D02*
G37*
G36*
X18433Y209176D02*
X13389D01*
Y208236D01*
X17354Y208228D01*
X13389Y207237D01*
Y206253D01*
X17354Y205261D01*
X13389D01*
Y204321D01*
X18433D01*
Y209176D01*
D02*
G37*
G36*
X20937Y203544D02*
X19544D01*
Y199520D01*
X20171D01*
Y203544D01*
X20937D01*
D02*
G37*
G36*
X24596Y199440D02*
Y199331D01*
X23911D01*
X22300Y197931D01*
X21768Y197443D01*
Y197479D01*
X21775Y197508D01*
Y197574D01*
X21782Y197654D01*
Y197742D01*
X21790Y197822D01*
Y199440D01*
X24596D01*
X20937D01*
Y196174D01*
X21702D01*
X23269Y197538D01*
X23277Y197545D01*
X23284Y197552D01*
X23335Y197596D01*
X23401Y197654D01*
X23481Y197727D01*
X23568Y197807D01*
X23663Y197895D01*
X23743Y197968D01*
X23816Y198040D01*
Y198011D01*
X23809Y197968D01*
Y197858D01*
X23802Y197778D01*
Y197596D01*
X23794Y196306D01*
X24596D01*
Y199440D01*
D02*
G37*
G36*
Y195569D02*
X20856D01*
X20937D01*
Y194673D01*
X21484D01*
X21469Y194665D01*
X21432Y194636D01*
X21381Y194592D01*
X21316Y194527D01*
X21236Y194454D01*
X21163Y194359D01*
X21082Y194257D01*
X21017Y194140D01*
X21010Y194126D01*
X20995Y194082D01*
X20966Y194017D01*
X20937Y193929D01*
X20908Y193827D01*
X20878Y193710D01*
X20864Y193586D01*
X20856Y193455D01*
D01*
Y193389D01*
X20864Y193324D01*
X20878Y193236D01*
X20893Y193127D01*
X20922Y193018D01*
X20966Y192901D01*
X21017Y192792D01*
X21024Y192777D01*
X21046Y192748D01*
X21082Y192690D01*
X21134Y192631D01*
X21199Y192558D01*
X21272Y192493D01*
X21367Y192427D01*
X21469Y192369D01*
X21484Y192362D01*
X21520Y192347D01*
X21586Y192325D01*
X21680Y192303D01*
X21797Y192281D01*
X21936Y192260D01*
X22096Y192245D01*
X22278Y192238D01*
X24596D01*
Y195569D01*
D02*
G37*
%LPD*%
G36*
X23721Y302820D02*
X23816D01*
X23911Y302812D01*
X24115Y302805D01*
X24312Y302790D01*
X24407Y302776D01*
X24502Y302761D01*
X24582Y302747D01*
X24647Y302732D01*
X24655D01*
X24662Y302725D01*
X24698Y302718D01*
X24757Y302696D01*
X24830Y302674D01*
X24903Y302637D01*
X24975Y302601D01*
X25041Y302557D01*
X25092Y302514D01*
X25099Y302506D01*
X25114Y302492D01*
X25128Y302463D01*
X25150Y302426D01*
X25172Y302382D01*
X25194Y302331D01*
X25201Y302273D01*
X25209Y302207D01*
Y302178D01*
X25201Y302142D01*
X25194Y302105D01*
X25179Y302054D01*
X25158Y302003D01*
X25128Y301945D01*
X25092Y301894D01*
X25085Y301887D01*
X25070Y301872D01*
X25041Y301850D01*
X25005Y301821D01*
X24946Y301784D01*
X24881Y301755D01*
X24793Y301719D01*
X24691Y301690D01*
X24684D01*
X24677Y301682D01*
X24647D01*
X24618Y301675D01*
X24574Y301668D01*
X24523Y301661D01*
X24465Y301653D01*
X24392Y301646D01*
X24305Y301631D01*
X24217Y301624D01*
X24108Y301617D01*
X23999Y301610D01*
X23867Y301602D01*
X23736D01*
X23583Y301595D01*
X23423D01*
X23415D01*
X23386D01*
X23335D01*
X23277D01*
X23204D01*
X23124Y301602D01*
X23029D01*
X22934Y301610D01*
X22730Y301617D01*
X22526Y301631D01*
X22431Y301639D01*
X22344Y301653D01*
X22264Y301668D01*
X22191Y301682D01*
X22176Y301690D01*
X22140Y301697D01*
X22081Y301719D01*
X22016Y301741D01*
X21943Y301777D01*
X21870Y301814D01*
X21804Y301857D01*
X21753Y301901D01*
X21746Y301908D01*
X21739Y301923D01*
X21717Y301952D01*
X21702Y301989D01*
X21680Y302032D01*
X21658Y302083D01*
X21651Y302142D01*
X21644Y302207D01*
Y302237D01*
X21651Y302273D01*
X21658Y302309D01*
X21673Y302360D01*
X21688Y302412D01*
X21717Y302463D01*
X21753Y302514D01*
X21760Y302521D01*
X21775Y302535D01*
X21804Y302565D01*
X21848Y302594D01*
X21899Y302623D01*
X21972Y302659D01*
X22052Y302696D01*
X22154Y302725D01*
X22162D01*
X22169Y302732D01*
X22198D01*
X22227Y302740D01*
X22271Y302747D01*
X22322Y302754D01*
X22380Y302769D01*
X22453Y302776D01*
X22533Y302783D01*
X22628Y302798D01*
X22730Y302805D01*
X22847Y302812D01*
X22971Y302820D01*
X23109D01*
X23262Y302827D01*
X23423D01*
X23430D01*
X23459D01*
X23510D01*
X23568D01*
X23641D01*
X23721Y302820D01*
D02*
G37*
G36*
X15160Y294724D02*
X15270Y294710D01*
X15386Y294680D01*
X15510Y294651D01*
X15627Y294600D01*
X15721Y294535D01*
X15729Y294527D01*
X15758Y294498D01*
X15794Y294462D01*
X15838Y294403D01*
X15882Y294331D01*
X15918Y294250D01*
X15947Y294156D01*
X15955Y294054D01*
Y294010D01*
X15940Y293951D01*
X15926Y293886D01*
X15896Y293813D01*
X15860Y293733D01*
X15802Y293653D01*
X15729Y293580D01*
X15721Y293572D01*
X15685Y293550D01*
X15634Y293521D01*
X15568Y293485D01*
X15474Y293448D01*
X15364Y293419D01*
X15233Y293397D01*
X15080Y293390D01*
X15073D01*
X15058D01*
X15036D01*
X15000D01*
X14920Y293405D01*
X14810Y293419D01*
X14694Y293441D01*
X14570Y293478D01*
X14453Y293529D01*
X14351Y293601D01*
X14344Y293609D01*
X14314Y293638D01*
X14271Y293689D01*
X14227Y293747D01*
X14176Y293820D01*
X14140Y293900D01*
X14110Y293995D01*
X14096Y294097D01*
Y294141D01*
X14110Y294192D01*
X14125Y294258D01*
X14147Y294323D01*
X14183Y294403D01*
X14234Y294476D01*
X14300Y294549D01*
X14307Y294556D01*
X14344Y294578D01*
X14395Y294607D01*
X14468Y294644D01*
X14562Y294673D01*
X14679Y294702D01*
X14825Y294724D01*
X14992Y294731D01*
X15000D01*
X15014D01*
X15044D01*
X15073D01*
X15160Y294724D01*
D02*
G37*
G36*
X23138Y295100D02*
X23219Y295092D01*
X23306Y295078D01*
X23408Y295049D01*
X23517Y295012D01*
X23619Y294954D01*
X23707Y294888D01*
X23714Y294881D01*
X23743Y294852D01*
X23780Y294808D01*
X23824Y294750D01*
X23860Y294677D01*
X23897Y294589D01*
X23926Y294495D01*
X23933Y294385D01*
Y294334D01*
X23918Y294276D01*
X23904Y294203D01*
X23875Y294123D01*
X23838Y294035D01*
X23780Y293948D01*
X23700Y293868D01*
X23692Y293860D01*
X23656Y293838D01*
X23605Y293802D01*
X23532Y293765D01*
X23445Y293722D01*
X23335Y293693D01*
X23211Y293671D01*
X23073Y293664D01*
Y295107D01*
X23080D01*
X23095D01*
X23109D01*
X23138Y295100D01*
D02*
G37*
G36*
X24582Y290930D02*
X24640Y290922D01*
X24706Y290901D01*
X24771Y290879D01*
X24844Y290842D01*
X24903Y290798D01*
X24910Y290791D01*
X24932Y290777D01*
X24953Y290740D01*
X24990Y290696D01*
X25026Y290645D01*
X25056Y290580D01*
X25085Y290500D01*
X25107Y290412D01*
Y290405D01*
X25114Y290383D01*
Y290339D01*
X25121Y290274D01*
Y290113D01*
X25128Y290048D01*
Y288881D01*
X23845D01*
Y289873D01*
X23853Y290019D01*
X23860Y290172D01*
X23867Y290325D01*
X23875Y290390D01*
X23882Y290449D01*
X23897Y290507D01*
X23904Y290543D01*
Y290551D01*
X23918Y290573D01*
X23933Y290609D01*
X23955Y290645D01*
X24020Y290740D01*
X24064Y290784D01*
X24115Y290828D01*
X24123Y290835D01*
X24144Y290842D01*
X24173Y290864D01*
X24217Y290886D01*
X24276Y290901D01*
X24341Y290922D01*
X24414Y290930D01*
X24494Y290937D01*
X24509D01*
X24538D01*
X24582Y290930D01*
D02*
G37*
G36*
X15160Y284919D02*
X15270Y284905D01*
X15386Y284875D01*
X15510Y284846D01*
X15627Y284795D01*
X15721Y284730D01*
X15729Y284722D01*
X15758Y284693D01*
X15794Y284657D01*
X15838Y284598D01*
X15882Y284525D01*
X15918Y284445D01*
X15947Y284350D01*
X15955Y284248D01*
Y284205D01*
X15940Y284146D01*
X15926Y284081D01*
X15896Y284008D01*
X15860Y283928D01*
X15802Y283847D01*
X15729Y283775D01*
X15721Y283767D01*
X15685Y283745D01*
X15634Y283716D01*
X15568Y283680D01*
X15474Y283643D01*
X15364Y283614D01*
X15233Y283592D01*
X15080Y283585D01*
X15073D01*
X15058D01*
X15036D01*
X15000D01*
X14920Y283600D01*
X14810Y283614D01*
X14694Y283636D01*
X14570Y283672D01*
X14453Y283723D01*
X14351Y283796D01*
X14344Y283804D01*
X14314Y283833D01*
X14271Y283884D01*
X14227Y283942D01*
X14176Y284015D01*
X14140Y284095D01*
X14110Y284190D01*
X14096Y284292D01*
Y284336D01*
X14110Y284387D01*
X14125Y284453D01*
X14147Y284518D01*
X14183Y284598D01*
X14234Y284671D01*
X14300Y284744D01*
X14307Y284751D01*
X14344Y284773D01*
X14395Y284803D01*
X14468Y284839D01*
X14562Y284868D01*
X14679Y284897D01*
X14825Y284919D01*
X14992Y284926D01*
X15000D01*
X15014D01*
X15044D01*
X15073D01*
X15160Y284919D01*
D02*
G37*
G36*
X22898Y281999D02*
X22963Y281992D01*
X23095Y281978D01*
X23248Y281948D01*
X23393Y281912D01*
X23539Y281854D01*
X23598Y281817D01*
X23656Y281773D01*
X23671Y281766D01*
X23700Y281730D01*
X23743Y281686D01*
X23794Y281620D01*
X23845Y281533D01*
X23889Y281438D01*
X23918Y281322D01*
X23933Y281198D01*
Y281183D01*
X23926Y281139D01*
X23918Y281074D01*
X23897Y281001D01*
X23867Y280906D01*
X23816Y280811D01*
X23751Y280716D01*
X23656Y280622D01*
X23641Y280614D01*
X23605Y280585D01*
X23539Y280549D01*
X23452Y280512D01*
X23335Y280469D01*
X23197Y280432D01*
X23029Y280403D01*
X22839Y280396D01*
X22832D01*
X22818D01*
X22781D01*
X22745D01*
X22694Y280403D01*
X22643D01*
X22519Y280417D01*
X22380Y280432D01*
X22234Y280461D01*
X22103Y280505D01*
X22045Y280527D01*
X21994Y280556D01*
X21986D01*
X21979Y280571D01*
X21936Y280600D01*
X21877Y280651D01*
X21812Y280724D01*
X21739Y280819D01*
X21680Y280928D01*
X21637Y281059D01*
X21629Y281132D01*
X21622Y281205D01*
Y281219D01*
X21629Y281263D01*
X21637Y281322D01*
X21658Y281402D01*
X21688Y281489D01*
X21739Y281584D01*
X21804Y281679D01*
X21899Y281773D01*
X21914Y281781D01*
X21950Y281810D01*
X22016Y281846D01*
X22110Y281890D01*
X22227Y281934D01*
X22373Y281970D01*
X22548Y281999D01*
X22745Y282007D01*
X22752D01*
X22774D01*
X22803D01*
X22847D01*
X22898Y281999D01*
D02*
G37*
G36*
X25981Y279404D02*
X22861D01*
X22927Y279412D01*
X23007Y279419D01*
X23095Y279426D01*
X23197Y279441D01*
X23299Y279455D01*
X23532Y279506D01*
X23649Y279543D01*
X23765Y279587D01*
X23882Y279638D01*
X23991Y279696D01*
X24093Y279761D01*
X24188Y279834D01*
X24195Y279842D01*
X24210Y279856D01*
X24232Y279878D01*
X24268Y279914D01*
X24305Y279958D01*
X24341Y280009D01*
X24385Y280068D01*
X24436Y280140D01*
X24480Y280213D01*
X24523Y280301D01*
X24604Y280483D01*
X24633Y280592D01*
X24655Y280702D01*
X24669Y280819D01*
X24677Y280942D01*
Y281001D01*
X24669Y281045D01*
X24662Y281096D01*
X24647Y281161D01*
X24633Y281227D01*
X24611Y281307D01*
X24589Y281387D01*
X24553Y281475D01*
X24509Y281562D01*
X24465Y281649D01*
X24399Y281744D01*
X24334Y281832D01*
X24254Y281919D01*
X24166Y282007D01*
X25981D01*
Y279404D01*
D02*
G37*
G36*
X16173Y280822D02*
X16268D01*
X16363Y280815D01*
X16567Y280807D01*
X16764Y280793D01*
X16859Y280778D01*
X16953Y280764D01*
X17034Y280749D01*
X17099Y280735D01*
X17107D01*
X17114Y280727D01*
X17150Y280720D01*
X17209Y280698D01*
X17281Y280676D01*
X17354Y280640D01*
X17427Y280603D01*
X17493Y280560D01*
X17544Y280516D01*
X17551Y280509D01*
X17566Y280494D01*
X17580Y280465D01*
X17602Y280429D01*
X17624Y280385D01*
X17646Y280334D01*
X17653Y280275D01*
X17661Y280210D01*
Y280181D01*
X17653Y280144D01*
X17646Y280108D01*
X17631Y280057D01*
X17610Y280006D01*
X17580Y279947D01*
X17544Y279896D01*
X17537Y279889D01*
X17522Y279874D01*
X17493Y279853D01*
X17457Y279823D01*
X17398Y279787D01*
X17333Y279758D01*
X17245Y279721D01*
X17143Y279692D01*
X17136D01*
X17128Y279685D01*
X17099D01*
X17070Y279678D01*
X17026Y279670D01*
X16975Y279663D01*
X16917Y279656D01*
X16844Y279648D01*
X16757Y279634D01*
X16669Y279627D01*
X16560Y279619D01*
X16451Y279612D01*
X16319Y279605D01*
X16188D01*
X16035Y279597D01*
X15875D01*
X15867D01*
X15838D01*
X15787D01*
X15729D01*
X15656D01*
X15576Y279605D01*
X15481D01*
X15386Y279612D01*
X15182Y279619D01*
X14978Y279634D01*
X14883Y279641D01*
X14796Y279656D01*
X14716Y279670D01*
X14642Y279685D01*
X14628Y279692D01*
X14592Y279699D01*
X14533Y279721D01*
X14468Y279743D01*
X14395Y279780D01*
X14322Y279816D01*
X14256Y279860D01*
X14205Y279904D01*
X14198Y279911D01*
X14191Y279925D01*
X14169Y279955D01*
X14154Y279991D01*
X14132Y280035D01*
X14110Y280086D01*
X14103Y280144D01*
X14096Y280210D01*
Y280239D01*
X14103Y280275D01*
X14110Y280312D01*
X14125Y280363D01*
X14140Y280414D01*
X14169Y280465D01*
X14205Y280516D01*
X14212Y280523D01*
X14227Y280538D01*
X14256Y280567D01*
X14300Y280596D01*
X14351Y280625D01*
X14424Y280662D01*
X14504Y280698D01*
X14606Y280727D01*
X14613D01*
X14621Y280735D01*
X14650D01*
X14679Y280742D01*
X14723Y280749D01*
X14774Y280756D01*
X14832Y280771D01*
X14905Y280778D01*
X14985Y280786D01*
X15080Y280800D01*
X15182Y280807D01*
X15299Y280815D01*
X15423Y280822D01*
X15561D01*
X15714Y280829D01*
X15875D01*
X15882D01*
X15911D01*
X15962D01*
X16020D01*
X16093D01*
X16173Y280822D01*
D02*
G37*
G36*
X22686Y274965D02*
X22672Y274935D01*
X22664Y274892D01*
X22643Y274826D01*
X22621Y274746D01*
X22592Y274637D01*
X22562Y274520D01*
X22533Y274374D01*
Y274359D01*
X22526Y274338D01*
X22519Y274308D01*
X22504Y274243D01*
X22482Y274155D01*
X22460Y274068D01*
X22431Y273980D01*
X22395Y273908D01*
X22366Y273849D01*
X22358Y273842D01*
X22344Y273820D01*
X22314Y273791D01*
X22278Y273762D01*
X22227Y273725D01*
X22169Y273696D01*
X22103Y273674D01*
X22030Y273667D01*
X22023D01*
X21994D01*
X21957Y273674D01*
X21914Y273689D01*
X21855Y273703D01*
X21797Y273725D01*
X21739Y273762D01*
X21680Y273813D01*
X21673Y273820D01*
X21658Y273842D01*
X21637Y273871D01*
X21607Y273922D01*
X21578Y273973D01*
X21556Y274039D01*
X21542Y274119D01*
X21534Y274199D01*
Y274243D01*
X21542Y274294D01*
X21556Y274359D01*
X21578Y274440D01*
X21607Y274520D01*
X21644Y274615D01*
X21702Y274702D01*
X21710Y274710D01*
X21724Y274731D01*
X21753Y274761D01*
X21790Y274797D01*
X21841Y274833D01*
X21892Y274870D01*
X21957Y274906D01*
X22023Y274928D01*
X22030D01*
X22045Y274935D01*
X22081Y274943D01*
X22125Y274950D01*
X22191Y274957D01*
X22271Y274965D01*
X22373Y274972D01*
X22490D01*
X22686D01*
Y274965D01*
D02*
G37*
G36*
X22854Y271203D02*
X22898D01*
X22956Y271196D01*
X23073Y271181D01*
X23204Y271145D01*
X23342Y271101D01*
X23481Y271035D01*
X23598Y270948D01*
X23612Y270933D01*
X23641Y270904D01*
X23692Y270846D01*
X23743Y270773D01*
X23794Y270678D01*
X23845Y270576D01*
X23875Y270452D01*
X23889Y270314D01*
Y270277D01*
X23882Y270248D01*
X23875Y270182D01*
X23853Y270095D01*
X23816Y269993D01*
X23765Y269883D01*
X23692Y269774D01*
X23598Y269672D01*
X23583Y269665D01*
X23547Y269636D01*
X23474Y269592D01*
X23386Y269548D01*
X23269Y269497D01*
X23124Y269461D01*
X22956Y269431D01*
X22767Y269417D01*
X22759D01*
X22745D01*
X22715D01*
X22679Y269424D01*
X22628D01*
X22577Y269431D01*
X22460Y269446D01*
X22322Y269482D01*
X22183Y269526D01*
X22045Y269585D01*
X21928Y269672D01*
X21914Y269687D01*
X21884Y269716D01*
X21841Y269774D01*
X21790Y269854D01*
X21731Y269942D01*
X21688Y270051D01*
X21658Y270175D01*
X21644Y270314D01*
Y270350D01*
X21651Y270379D01*
X21658Y270445D01*
X21680Y270532D01*
X21717Y270634D01*
X21760Y270744D01*
X21833Y270846D01*
X21928Y270948D01*
X21943Y270962D01*
X21979Y270992D01*
X22052Y271028D01*
X22140Y271079D01*
X22264Y271130D01*
X22402Y271166D01*
X22577Y271196D01*
X22767Y271210D01*
X22774D01*
X22788D01*
X22818D01*
X22854Y271203D01*
D02*
G37*
G36*
X15590Y270361D02*
X15670Y270354D01*
X15758Y270339D01*
X15860Y270310D01*
X15969Y270273D01*
X16071Y270215D01*
X16159Y270150D01*
X16166Y270142D01*
X16195Y270113D01*
X16232Y270069D01*
X16275Y270011D01*
X16312Y269938D01*
X16348Y269851D01*
X16378Y269756D01*
X16385Y269647D01*
Y269596D01*
X16370Y269537D01*
X16356Y269464D01*
X16327Y269384D01*
X16290Y269297D01*
X16232Y269209D01*
X16152Y269129D01*
X16144Y269122D01*
X16108Y269100D01*
X16057Y269063D01*
X15984Y269027D01*
X15896Y268983D01*
X15787Y268954D01*
X15663Y268932D01*
X15525Y268925D01*
Y270368D01*
X15532D01*
X15547D01*
X15561D01*
X15590Y270361D01*
D02*
G37*
G36*
X22905Y266880D02*
X22963Y266873D01*
X23102Y266858D01*
X23248Y266829D01*
X23401Y266792D01*
X23539Y266734D01*
X23598Y266698D01*
X23656Y266654D01*
X23671Y266647D01*
X23700Y266610D01*
X23743Y266566D01*
X23794Y266494D01*
X23845Y266413D01*
X23889Y266311D01*
X23918Y266202D01*
X23933Y266071D01*
Y266056D01*
X23926Y266013D01*
X23918Y265947D01*
X23897Y265867D01*
X23867Y265772D01*
X23816Y265670D01*
X23751Y265575D01*
X23663Y265480D01*
X23649Y265473D01*
X23612Y265444D01*
X23547Y265407D01*
X23459Y265371D01*
X23342Y265327D01*
X23204Y265291D01*
X23036Y265262D01*
X22839Y265254D01*
X22832D01*
X22818D01*
X22788D01*
X22745D01*
X22701Y265262D01*
X22643D01*
X22519Y265276D01*
X22388Y265298D01*
X22249Y265327D01*
X22118Y265371D01*
X22001Y265429D01*
X21994D01*
X21986Y265444D01*
X21943Y265473D01*
X21884Y265531D01*
X21812Y265612D01*
X21739Y265706D01*
X21680Y265823D01*
X21637Y265954D01*
X21629Y266027D01*
X21622Y266107D01*
Y266122D01*
X21629Y266158D01*
X21637Y266224D01*
X21658Y266297D01*
X21688Y266384D01*
X21739Y266472D01*
X21804Y266566D01*
X21892Y266654D01*
X21906Y266661D01*
X21943Y266690D01*
X22008Y266727D01*
X22103Y266771D01*
X22220Y266814D01*
X22366Y266851D01*
X22453Y266865D01*
X22548Y266880D01*
X22643Y266887D01*
X22752D01*
X22759D01*
X22781D01*
X22810D01*
X22854D01*
X22905Y266880D01*
D02*
G37*
G36*
X15590Y259389D02*
X15670Y259382D01*
X15758Y259368D01*
X15860Y259338D01*
X15969Y259302D01*
X16071Y259244D01*
X16159Y259178D01*
X16166Y259171D01*
X16195Y259142D01*
X16232Y259098D01*
X16275Y259040D01*
X16312Y258967D01*
X16348Y258879D01*
X16378Y258785D01*
X16385Y258675D01*
Y258624D01*
X16370Y258566D01*
X16356Y258493D01*
X16327Y258413D01*
X16290Y258325D01*
X16232Y258238D01*
X16152Y258157D01*
X16144Y258150D01*
X16108Y258128D01*
X16057Y258092D01*
X15984Y258055D01*
X15896Y258012D01*
X15787Y257982D01*
X15663Y257961D01*
X15525Y257953D01*
Y259397D01*
X15532D01*
X15547D01*
X15561D01*
X15590Y259389D01*
D02*
G37*
G36*
X22854Y258278D02*
X22898D01*
X22956Y258271D01*
X23073Y258256D01*
X23204Y258220D01*
X23342Y258176D01*
X23481Y258110D01*
X23598Y258023D01*
X23612Y258008D01*
X23641Y257979D01*
X23692Y257921D01*
X23743Y257848D01*
X23794Y257753D01*
X23845Y257651D01*
X23875Y257527D01*
X23889Y257388D01*
Y257352D01*
X23882Y257323D01*
X23875Y257257D01*
X23853Y257170D01*
X23816Y257068D01*
X23765Y256958D01*
X23692Y256849D01*
X23598Y256747D01*
X23583Y256740D01*
X23547Y256710D01*
X23474Y256667D01*
X23386Y256623D01*
X23269Y256572D01*
X23124Y256536D01*
X22956Y256506D01*
X22767Y256492D01*
X22759D01*
X22745D01*
X22715D01*
X22679Y256499D01*
X22628D01*
X22577Y256506D01*
X22460Y256521D01*
X22322Y256557D01*
X22183Y256601D01*
X22045Y256659D01*
X21928Y256747D01*
X21914Y256762D01*
X21884Y256791D01*
X21841Y256849D01*
X21790Y256929D01*
X21731Y257017D01*
X21688Y257126D01*
X21658Y257250D01*
X21644Y257388D01*
Y257425D01*
X21651Y257454D01*
X21658Y257520D01*
X21680Y257607D01*
X21717Y257709D01*
X21760Y257819D01*
X21833Y257921D01*
X21928Y258023D01*
X21943Y258037D01*
X21979Y258066D01*
X22052Y258103D01*
X22140Y258154D01*
X22264Y258205D01*
X22402Y258241D01*
X22577Y258271D01*
X22767Y258285D01*
X22774D01*
X22788D01*
X22818D01*
X22854Y258278D01*
D02*
G37*
G36*
X15306Y255475D02*
X15350D01*
X15408Y255468D01*
X15525Y255453D01*
X15656Y255416D01*
X15794Y255373D01*
X15933Y255307D01*
X16049Y255220D01*
X16064Y255205D01*
X16093Y255176D01*
X16144Y255118D01*
X16195Y255045D01*
X16246Y254950D01*
X16297Y254848D01*
X16327Y254724D01*
X16341Y254585D01*
Y254549D01*
X16334Y254520D01*
X16327Y254454D01*
X16305Y254367D01*
X16268Y254265D01*
X16217Y254155D01*
X16144Y254046D01*
X16049Y253944D01*
X16035Y253937D01*
X15999Y253907D01*
X15926Y253864D01*
X15838Y253820D01*
X15721Y253769D01*
X15576Y253732D01*
X15408Y253703D01*
X15218Y253689D01*
X15211D01*
X15197D01*
X15167D01*
X15131Y253696D01*
X15080D01*
X15029Y253703D01*
X14912Y253718D01*
X14774Y253754D01*
X14635Y253798D01*
X14497Y253856D01*
X14380Y253944D01*
X14366Y253959D01*
X14336Y253988D01*
X14293Y254046D01*
X14242Y254126D01*
X14183Y254214D01*
X14140Y254323D01*
X14110Y254447D01*
X14096Y254585D01*
Y254622D01*
X14103Y254651D01*
X14110Y254717D01*
X14132Y254804D01*
X14169Y254906D01*
X14212Y255015D01*
X14285Y255118D01*
X14380Y255220D01*
X14395Y255234D01*
X14431Y255263D01*
X14504Y255300D01*
X14592Y255351D01*
X14716Y255402D01*
X14854Y255438D01*
X15029Y255468D01*
X15218Y255482D01*
X15226D01*
X15240D01*
X15270D01*
X15306Y255475D01*
D02*
G37*
G36*
X25894Y250631D02*
X24596D01*
Y251075D01*
X25325D01*
X25894Y252045D01*
Y250631D01*
D02*
G37*
G36*
X24596Y247671D02*
X22912D01*
X22905D01*
X22876D01*
X22839D01*
X22788D01*
X22730D01*
X22664D01*
X22511Y247678D01*
X22344Y247685D01*
X22191Y247693D01*
X22125Y247700D01*
X22059Y247707D01*
X22008Y247715D01*
X21972Y247722D01*
X21965D01*
X21943Y247729D01*
X21914Y247744D01*
X21870Y247766D01*
X21826Y247787D01*
X21782Y247824D01*
X21739Y247860D01*
X21695Y247911D01*
X21688Y247919D01*
X21680Y247941D01*
X21666Y247970D01*
X21651Y248013D01*
X21629Y248064D01*
X21615Y248130D01*
X21607Y248196D01*
X21600Y248276D01*
Y248320D01*
X21607Y248363D01*
X21615Y248422D01*
X21629Y248495D01*
X21658Y248568D01*
X21688Y248648D01*
X21731Y248721D01*
X21739Y248728D01*
X21753Y248750D01*
X21782Y248786D01*
X21826Y248830D01*
X21877Y248874D01*
X21928Y248917D01*
X21994Y248961D01*
X22067Y248990D01*
X22074D01*
X22110Y249005D01*
X22140D01*
X22176Y249012D01*
X22212Y249020D01*
X22264Y249027D01*
X22329Y249034D01*
X22395Y249041D01*
X22475Y249049D01*
X22570D01*
X22672Y249056D01*
X22788Y249063D01*
X22912D01*
X23051D01*
X24596D01*
Y247671D01*
D02*
G37*
G36*
X18433Y248863D02*
X16451D01*
Y250853D01*
X18433D01*
Y248863D01*
D02*
G37*
G36*
X22905Y244952D02*
X22963Y244944D01*
X23102Y244930D01*
X23248Y244901D01*
X23401Y244864D01*
X23539Y244806D01*
X23598Y244769D01*
X23656Y244726D01*
X23671Y244718D01*
X23700Y244682D01*
X23743Y244638D01*
X23794Y244565D01*
X23845Y244485D01*
X23889Y244383D01*
X23918Y244274D01*
X23933Y244143D01*
Y244128D01*
X23926Y244084D01*
X23918Y244019D01*
X23897Y243938D01*
X23867Y243844D01*
X23816Y243741D01*
X23751Y243647D01*
X23663Y243552D01*
X23649Y243545D01*
X23612Y243515D01*
X23547Y243479D01*
X23459Y243443D01*
X23342Y243399D01*
X23204Y243362D01*
X23036Y243333D01*
X22839Y243326D01*
X22832D01*
X22818D01*
X22788D01*
X22745D01*
X22701Y243333D01*
X22643D01*
X22519Y243348D01*
X22388Y243370D01*
X22249Y243399D01*
X22118Y243443D01*
X22001Y243501D01*
X21994D01*
X21986Y243515D01*
X21943Y243545D01*
X21884Y243603D01*
X21812Y243683D01*
X21739Y243778D01*
X21680Y243895D01*
X21637Y244026D01*
X21629Y244099D01*
X21622Y244179D01*
Y244194D01*
X21629Y244230D01*
X21637Y244296D01*
X21658Y244369D01*
X21688Y244456D01*
X21739Y244543D01*
X21804Y244638D01*
X21892Y244726D01*
X21906Y244733D01*
X21943Y244762D01*
X22008Y244799D01*
X22103Y244842D01*
X22220Y244886D01*
X22366Y244922D01*
X22453Y244937D01*
X22548Y244952D01*
X22643Y244959D01*
X22752D01*
X22759D01*
X22781D01*
X22810D01*
X22854D01*
X22905Y244952D01*
D02*
G37*
G36*
X18433Y239553D02*
X14985Y240457D01*
X18433Y241354D01*
Y239553D01*
D02*
G37*
G36*
X23138Y234768D02*
X23219Y234760D01*
X23306Y234746D01*
X23408Y234717D01*
X23517Y234680D01*
X23619Y234622D01*
X23707Y234556D01*
X23714Y234549D01*
X23743Y234520D01*
X23780Y234476D01*
X23824Y234418D01*
X23860Y234345D01*
X23897Y234257D01*
X23926Y234162D01*
X23933Y234053D01*
Y234002D01*
X23918Y233944D01*
X23904Y233871D01*
X23875Y233791D01*
X23838Y233703D01*
X23780Y233616D01*
X23700Y233536D01*
X23692Y233528D01*
X23656Y233506D01*
X23605Y233470D01*
X23532Y233434D01*
X23445Y233390D01*
X23335Y233361D01*
X23211Y233339D01*
X23073Y233331D01*
Y234775D01*
X23080D01*
X23095D01*
X23109D01*
X23138Y234768D01*
D02*
G37*
G36*
X23117Y230649D02*
X23240Y230641D01*
X23372Y230627D01*
X23481Y230612D01*
X23525Y230605D01*
X23561Y230590D01*
X23568D01*
X23590Y230576D01*
X23619Y230561D01*
X23663Y230539D01*
X23751Y230474D01*
X23794Y230437D01*
X23831Y230386D01*
X23838Y230379D01*
X23845Y230364D01*
X23860Y230335D01*
X23882Y230292D01*
X23904Y230241D01*
X23918Y230189D01*
X23926Y230124D01*
X23933Y230051D01*
Y230007D01*
X23926Y229963D01*
X23918Y229905D01*
X23897Y229832D01*
X23875Y229759D01*
X23838Y229679D01*
X23794Y229599D01*
X23787Y229592D01*
X23773Y229570D01*
X23736Y229533D01*
X23700Y229490D01*
X23641Y229446D01*
X23583Y229402D01*
X23503Y229358D01*
X23423Y229329D01*
X23415D01*
X23379Y229315D01*
X23321Y229307D01*
X23233Y229293D01*
X23182Y229286D01*
X23117Y229278D01*
X23051Y229271D01*
X22971D01*
X22891Y229264D01*
X22796Y229256D01*
X22694D01*
X22584D01*
X20937D01*
Y230656D01*
X22796D01*
X22803D01*
X22825D01*
X22854D01*
X22891D01*
X22941D01*
X22993D01*
X23117Y230649D01*
D02*
G37*
G36*
X17128Y226956D02*
X17121Y227015D01*
X17114Y227080D01*
X17099Y227160D01*
X17085Y227248D01*
X17063Y227343D01*
X17034Y227445D01*
X16997Y227547D01*
X16953Y227656D01*
X16895Y227765D01*
X16837Y227868D01*
X16764Y227970D01*
X16677Y228072D01*
X16582Y228159D01*
X16574Y228166D01*
X16560Y228181D01*
X16523Y228203D01*
X16480Y228232D01*
X16421Y228269D01*
X16356Y228305D01*
X16268Y228349D01*
X16173Y228392D01*
X16064Y228436D01*
X15940Y228480D01*
X15809Y228516D01*
X15656Y228553D01*
X15495Y228582D01*
X15321Y228604D01*
X15138Y228618D01*
X17128D01*
Y226956D01*
D02*
G37*
G36*
X15590Y227649D02*
X15670Y227642D01*
X15758Y227627D01*
X15860Y227598D01*
X15969Y227561D01*
X16071Y227503D01*
X16159Y227437D01*
X16166Y227430D01*
X16195Y227401D01*
X16232Y227357D01*
X16275Y227299D01*
X16312Y227226D01*
X16348Y227139D01*
X16378Y227044D01*
X16385Y226934D01*
Y226883D01*
X16370Y226825D01*
X16356Y226752D01*
X16327Y226672D01*
X16290Y226585D01*
X16232Y226497D01*
X16152Y226417D01*
X16144Y226410D01*
X16108Y226388D01*
X16057Y226351D01*
X15984Y226315D01*
X15896Y226271D01*
X15787Y226242D01*
X15663Y226220D01*
X15525Y226213D01*
Y227656D01*
X15532D01*
X15547D01*
X15561D01*
X15590Y227649D01*
D02*
G37*
G36*
X22686Y226384D02*
X22672Y226355D01*
X22664Y226311D01*
X22643Y226245D01*
X22621Y226165D01*
X22592Y226056D01*
X22562Y225939D01*
X22533Y225794D01*
Y225779D01*
X22526Y225757D01*
X22519Y225728D01*
X22504Y225662D01*
X22482Y225575D01*
X22460Y225487D01*
X22431Y225400D01*
X22395Y225327D01*
X22366Y225269D01*
X22358Y225261D01*
X22344Y225239D01*
X22314Y225210D01*
X22278Y225181D01*
X22227Y225145D01*
X22169Y225116D01*
X22103Y225094D01*
X22030Y225086D01*
X22023D01*
X21994D01*
X21957Y225094D01*
X21914Y225108D01*
X21855Y225123D01*
X21797Y225145D01*
X21739Y225181D01*
X21680Y225232D01*
X21673Y225239D01*
X21658Y225261D01*
X21637Y225290D01*
X21607Y225342D01*
X21578Y225393D01*
X21556Y225458D01*
X21542Y225538D01*
X21534Y225619D01*
Y225662D01*
X21542Y225713D01*
X21556Y225779D01*
X21578Y225859D01*
X21607Y225939D01*
X21644Y226034D01*
X21702Y226122D01*
X21710Y226129D01*
X21724Y226151D01*
X21753Y226180D01*
X21790Y226216D01*
X21841Y226253D01*
X21892Y226289D01*
X21957Y226326D01*
X22023Y226348D01*
X22030D01*
X22045Y226355D01*
X22081Y226362D01*
X22125Y226370D01*
X22191Y226377D01*
X22271Y226384D01*
X22373Y226391D01*
X22490D01*
X22686D01*
Y226384D01*
D02*
G37*
G36*
X15590Y221766D02*
X15670Y221759D01*
X15758Y221744D01*
X15860Y221715D01*
X15969Y221678D01*
X16071Y221620D01*
X16159Y221554D01*
X16166Y221547D01*
X16195Y221518D01*
X16232Y221474D01*
X16275Y221416D01*
X16312Y221343D01*
X16348Y221255D01*
X16378Y221161D01*
X16385Y221051D01*
Y221000D01*
X16370Y220942D01*
X16356Y220869D01*
X16327Y220789D01*
X16290Y220702D01*
X16232Y220614D01*
X16152Y220534D01*
X16144Y220527D01*
X16108Y220505D01*
X16057Y220468D01*
X15984Y220432D01*
X15896Y220388D01*
X15787Y220359D01*
X15663Y220337D01*
X15525Y220330D01*
Y221773D01*
X15532D01*
X15547D01*
X15561D01*
X15590Y221766D01*
D02*
G37*
G36*
X22920Y222608D02*
X22971Y222601D01*
X23095Y222586D01*
X23233Y222557D01*
X23379Y222520D01*
X23510Y222462D01*
X23627Y222382D01*
X23641Y222375D01*
X23671Y222338D01*
X23714Y222287D01*
X23773Y222221D01*
X23824Y222141D01*
X23867Y222046D01*
X23897Y221937D01*
X23911Y221813D01*
Y221799D01*
X23904Y221755D01*
X23897Y221689D01*
X23875Y221609D01*
X23845Y221514D01*
X23794Y221412D01*
X23729Y221318D01*
X23634Y221223D01*
X23619Y221215D01*
X23583Y221186D01*
X23517Y221150D01*
X23430Y221113D01*
X23313Y221070D01*
X23175Y221033D01*
X23014Y221004D01*
X22825Y220997D01*
X22818D01*
X22796D01*
X22767D01*
X22723Y221004D01*
X22672D01*
X22613Y221011D01*
X22482Y221026D01*
X22329Y221055D01*
X22176Y221099D01*
X22038Y221157D01*
X21972Y221194D01*
X21914Y221237D01*
X21899Y221252D01*
X21870Y221281D01*
X21819Y221332D01*
X21768Y221405D01*
X21717Y221485D01*
X21666Y221587D01*
X21637Y221704D01*
X21622Y221828D01*
Y221842D01*
X21629Y221886D01*
X21637Y221944D01*
X21658Y222025D01*
X21688Y222112D01*
X21739Y222207D01*
X21804Y222302D01*
X21892Y222389D01*
X21906Y222396D01*
X21943Y222426D01*
X22008Y222462D01*
X22103Y222506D01*
X22162Y222520D01*
X22227Y222542D01*
X22300Y222564D01*
X22380Y222579D01*
X22468Y222593D01*
X22562Y222608D01*
X22664Y222615D01*
X22774D01*
X22781D01*
X22803D01*
X22832D01*
X22869D01*
X22920Y222608D01*
D02*
G37*
G36*
X24677Y213401D02*
X24596D01*
Y214297D01*
X24057D01*
X24064Y214304D01*
X24086Y214319D01*
X24115Y214348D01*
X24152Y214385D01*
X24203Y214428D01*
X24254Y214487D01*
X24312Y214552D01*
X24370Y214625D01*
X24421Y214705D01*
X24480Y214800D01*
X24531Y214895D01*
X24582Y215004D01*
X24618Y215121D01*
X24647Y215238D01*
X24669Y215369D01*
X24677Y215500D01*
Y213401D01*
D02*
G37*
G36*
X22854Y211658D02*
X22898D01*
X22956Y211651D01*
X23073Y211636D01*
X23204Y211600D01*
X23342Y211556D01*
X23481Y211491D01*
X23598Y211403D01*
X23612Y211388D01*
X23641Y211359D01*
X23692Y211301D01*
X23743Y211228D01*
X23794Y211133D01*
X23845Y211031D01*
X23875Y210907D01*
X23889Y210769D01*
Y210732D01*
X23882Y210703D01*
X23875Y210638D01*
X23853Y210550D01*
X23816Y210448D01*
X23765Y210339D01*
X23692Y210229D01*
X23598Y210127D01*
X23583Y210120D01*
X23547Y210091D01*
X23474Y210047D01*
X23386Y210003D01*
X23269Y209952D01*
X23124Y209916D01*
X22956Y209887D01*
X22767Y209872D01*
X22759D01*
X22745D01*
X22715D01*
X22679Y209879D01*
X22628D01*
X22577Y209887D01*
X22460Y209901D01*
X22322Y209938D01*
X22183Y209982D01*
X22045Y210040D01*
X21928Y210127D01*
X21914Y210142D01*
X21884Y210171D01*
X21841Y210229D01*
X21790Y210310D01*
X21731Y210397D01*
X21688Y210506D01*
X21658Y210630D01*
X21644Y210769D01*
Y210805D01*
X21651Y210835D01*
X21658Y210900D01*
X21680Y210988D01*
X21717Y211090D01*
X21760Y211199D01*
X21833Y211301D01*
X21928Y211403D01*
X21943Y211418D01*
X21979Y211447D01*
X22052Y211483D01*
X22140Y211534D01*
X22264Y211585D01*
X22402Y211622D01*
X22577Y211651D01*
X22767Y211666D01*
X22774D01*
X22788D01*
X22818D01*
X22854Y211658D01*
D02*
G37*
G36*
X26076Y203588D02*
X24596D01*
Y204128D01*
X24866D01*
X24873D01*
X24888D01*
X24910D01*
X24946D01*
X25026Y204135D01*
X25128Y204142D01*
X25238Y204150D01*
X25354Y204171D01*
X25464Y204193D01*
X25559Y204222D01*
X25566Y204230D01*
X25595Y204244D01*
X25639Y204266D01*
X25690Y204303D01*
X25748Y204354D01*
X25814Y204412D01*
X25872Y204492D01*
X25930Y204580D01*
X25938Y204594D01*
X25952Y204631D01*
X25974Y204689D01*
X26003Y204762D01*
X26033Y204864D01*
X26054Y204973D01*
X26069Y205104D01*
X26076Y205250D01*
Y203588D01*
D02*
G37*
G36*
X18433Y205844D02*
X14985Y206748D01*
X18433Y207645D01*
Y205844D01*
D02*
G37*
G36*
X24596Y193207D02*
X22912D01*
X22905D01*
X22876D01*
X22839D01*
X22788D01*
X22730D01*
X22664D01*
X22511Y193215D01*
X22344Y193222D01*
X22191Y193229D01*
X22125Y193236D01*
X22059Y193244D01*
X22008Y193251D01*
X21972Y193258D01*
X21965D01*
X21943Y193266D01*
X21914Y193280D01*
X21870Y193302D01*
X21826Y193324D01*
X21782Y193360D01*
X21739Y193397D01*
X21695Y193448D01*
X21688Y193455D01*
X21680Y193477D01*
X21666Y193506D01*
X21651Y193550D01*
X21629Y193601D01*
X21615Y193667D01*
X21607Y193732D01*
X21600Y193812D01*
Y193856D01*
X21607Y193900D01*
X21615Y193958D01*
X21629Y194031D01*
X21658Y194104D01*
X21688Y194184D01*
X21731Y194257D01*
X21739Y194264D01*
X21753Y194286D01*
X21782Y194323D01*
X21826Y194366D01*
X21877Y194410D01*
X21928Y194454D01*
X21994Y194498D01*
X22067Y194527D01*
X22074D01*
X22110Y194541D01*
X22140D01*
X22176Y194549D01*
X22212Y194556D01*
X22264Y194563D01*
X22329Y194571D01*
X22395Y194578D01*
X22475Y194585D01*
X22570D01*
X22672Y194592D01*
X22788Y194600D01*
X22912D01*
X23051D01*
X24596D01*
Y193207D01*
D02*
G37*
%LPC*%
G36*
X93076Y264170D02*
X91622D01*
Y261318D01*
X93076D01*
Y264170D01*
D02*
G37*
G36*
X97208Y260203D02*
X89458D01*
Y255295D01*
D01*
Y257700D01*
X89469Y257634D01*
Y257558D01*
X89480Y257470D01*
X89502Y257361D01*
X89524Y257241D01*
X89568Y257109D01*
X89611Y256967D01*
X89666Y256825D01*
X89732Y256672D01*
X89819Y256530D01*
X89906Y256377D01*
X90027Y256235D01*
X90147Y256093D01*
X90300Y255962D01*
X90311Y255951D01*
X90344Y255929D01*
X90398Y255896D01*
X90464Y255863D01*
X90562Y255809D01*
X90682Y255754D01*
X90835Y255689D01*
X90999Y255634D01*
X91196Y255568D01*
X91415Y255503D01*
X91666Y255448D01*
X91939Y255404D01*
X92245Y255361D01*
X92584Y255328D01*
X92945Y255306D01*
X93338Y255295D01*
X93546D01*
X93688Y255306D01*
X93863Y255317D01*
X94071Y255339D01*
X94289Y255361D01*
X94530Y255383D01*
X94781Y255426D01*
X95033Y255470D01*
X95295Y255536D01*
X95546Y255601D01*
X95787Y255689D01*
X96016Y255787D01*
X96235Y255896D01*
X96421Y256028D01*
X96432Y256038D01*
X96453Y256060D01*
X96497Y256093D01*
X96541Y256148D01*
X96606Y256202D01*
X96672Y256279D01*
X96738Y256377D01*
X96814Y256476D01*
X96891Y256596D01*
X96956Y256716D01*
X97022Y256858D01*
X97087Y257011D01*
X97131Y257175D01*
X97175Y257361D01*
X97197Y257547D01*
X97208Y257744D01*
Y257853D01*
X97197Y257929D01*
X97186Y258017D01*
X97164Y258126D01*
X97142Y258235D01*
X97109Y258366D01*
X97066Y258509D01*
X97011Y258640D01*
X96956Y258782D01*
X96880Y258924D01*
X96781Y259066D01*
X96683Y259208D01*
X96563Y259339D01*
X96421Y259459D01*
X96410Y259470D01*
X96377Y259492D01*
X96322Y259525D01*
X96246Y259580D01*
X96136Y259634D01*
X96005Y259700D01*
X95863Y259766D01*
X95678Y259831D01*
X95481Y259897D01*
X95251Y259973D01*
X95000Y260028D01*
X94716Y260083D01*
X94410Y260137D01*
X94082Y260170D01*
X93721Y260192D01*
X93327Y260203D01*
X97208D01*
D01*
D02*
G37*
G36*
Y254322D02*
X89458D01*
X93120D01*
X92978Y254311D01*
X92803Y254300D01*
X92595Y254279D01*
X92377Y254257D01*
X92136Y254235D01*
X91885Y254191D01*
X91622Y254137D01*
X91371Y254082D01*
X91120Y254005D01*
X90868Y253929D01*
X90639Y253820D01*
X90420Y253710D01*
X90234Y253579D01*
X90223Y253568D01*
X90201Y253546D01*
X90158Y253514D01*
X90114Y253470D01*
X90059Y253404D01*
X89994Y253328D01*
X89917Y253229D01*
X89852Y253131D01*
X89775Y253011D01*
X89699Y252891D01*
X89633Y252748D01*
X89578Y252595D01*
X89535Y252432D01*
X89491Y252246D01*
X89469Y252060D01*
X89458Y251863D01*
Y251819D01*
X89469Y251754D01*
Y251677D01*
X89480Y251590D01*
X89502Y251481D01*
X89524Y251360D01*
X89568Y251229D01*
X89611Y251087D01*
X89666Y250945D01*
X89732Y250792D01*
X89819Y250650D01*
X89906Y250497D01*
X90027Y250355D01*
X90147Y250213D01*
X90300Y250082D01*
X90311Y250071D01*
X90344Y250049D01*
X90398Y250016D01*
X90464Y249983D01*
X90562Y249928D01*
X90682Y249874D01*
X90835Y249808D01*
X90999Y249754D01*
X91196Y249688D01*
X91415Y249623D01*
X91666Y249568D01*
X91939Y249524D01*
X92245Y249480D01*
X92584Y249448D01*
X92945Y249426D01*
X93338Y249415D01*
X93546D01*
X93688Y249426D01*
X93863Y249437D01*
X94071Y249459D01*
X94289Y249480D01*
X94530Y249502D01*
X94781Y249546D01*
X95033Y249590D01*
X95295Y249655D01*
X95546Y249721D01*
X95787Y249808D01*
X96016Y249907D01*
X96235Y250016D01*
X96421Y250147D01*
X96432Y250158D01*
X96453Y250180D01*
X96497Y250213D01*
X96541Y250267D01*
X96606Y250322D01*
X96672Y250398D01*
X96738Y250497D01*
X96814Y250595D01*
X96891Y250715D01*
X96956Y250836D01*
X97022Y250978D01*
X97087Y251131D01*
X97131Y251295D01*
X97175Y251481D01*
X97197Y251666D01*
X97208Y251863D01*
Y251972D01*
X97197Y252049D01*
X97186Y252136D01*
X97164Y252246D01*
X97142Y252355D01*
X97109Y252486D01*
X97066Y252628D01*
X97011Y252759D01*
X96956Y252902D01*
X96880Y253044D01*
X96781Y253186D01*
X96683Y253328D01*
X96563Y253459D01*
X96421Y253579D01*
X96410Y253590D01*
X96377Y253612D01*
X96322Y253645D01*
X96246Y253699D01*
X96136Y253754D01*
X96005Y253820D01*
X95863Y253885D01*
X95678Y253951D01*
X95481Y254016D01*
X95251Y254093D01*
X95000Y254148D01*
X94716Y254202D01*
X94410Y254257D01*
X94082Y254290D01*
X93721Y254311D01*
X93327Y254322D01*
X97208D01*
D01*
D02*
G37*
G36*
Y248431D02*
X93595D01*
X95000D01*
X94901Y248420D01*
X94781Y248409D01*
X94628Y248387D01*
X94464Y248355D01*
X94289Y248311D01*
X94115Y248245D01*
X94093Y248234D01*
X94038Y248213D01*
X93940Y248169D01*
X93819Y248103D01*
X93677Y248027D01*
X93513Y247928D01*
X93338Y247808D01*
X93153Y247666D01*
X93142Y247655D01*
X93087Y247611D01*
X93010Y247546D01*
X92901Y247447D01*
X92770Y247316D01*
X92595Y247152D01*
X92409Y246956D01*
X92180Y246715D01*
X92169Y246704D01*
X92158Y246682D01*
X92125Y246650D01*
X92081Y246606D01*
X91972Y246486D01*
X91841Y246343D01*
X91699Y246201D01*
X91557Y246059D01*
X91437Y245928D01*
X91382Y245884D01*
X91338Y245841D01*
X91327Y245830D01*
X91306Y245808D01*
X91262Y245775D01*
X91207Y245731D01*
X91087Y245633D01*
X90945Y245546D01*
Y248431D01*
X89600D01*
Y243349D01*
X89633D01*
X89677Y243360D01*
X89732Y243371D01*
X89797Y243382D01*
X89874Y243392D01*
X90070Y243436D01*
X90289Y243502D01*
X90529Y243589D01*
X90792Y243698D01*
X91043Y243841D01*
X91054D01*
X91076Y243862D01*
X91120Y243884D01*
X91163Y243928D01*
X91240Y243972D01*
X91316Y244037D01*
X91415Y244114D01*
X91524Y244201D01*
X91655Y244300D01*
X91786Y244420D01*
X91939Y244551D01*
X92103Y244704D01*
X92267Y244868D01*
X92453Y245054D01*
X92650Y245251D01*
X92857Y245469D01*
X92868Y245480D01*
X92901Y245513D01*
X92945Y245556D01*
X93010Y245622D01*
X93076Y245709D01*
X93164Y245797D01*
X93360Y245994D01*
X93568Y246191D01*
X93776Y246387D01*
X93863Y246475D01*
X93962Y246562D01*
X94038Y246628D01*
X94103Y246671D01*
X94125Y246682D01*
X94180Y246715D01*
X94267Y246770D01*
X94388Y246824D01*
X94519Y246879D01*
X94672Y246934D01*
X94825Y246967D01*
X94989Y246977D01*
X95000D01*
X95011D01*
X95065D01*
X95164Y246967D01*
X95273Y246945D01*
X95393Y246912D01*
X95513Y246868D01*
X95634Y246803D01*
X95743Y246715D01*
X95754Y246704D01*
X95787Y246671D01*
X95831Y246606D01*
X95874Y246529D01*
X95918Y246420D01*
X95962Y246300D01*
X95994Y246158D01*
X96005Y245994D01*
Y245917D01*
X95994Y245830D01*
X95973Y245731D01*
X95940Y245611D01*
X95885Y245491D01*
X95820Y245371D01*
X95732Y245261D01*
X95721Y245251D01*
X95678Y245218D01*
X95612Y245174D01*
X95513Y245130D01*
X95393Y245076D01*
X95229Y245032D01*
X95043Y244988D01*
X94825Y244966D01*
X94967Y243524D01*
X94978D01*
X95022Y243534D01*
X95076D01*
X95164Y243556D01*
X95262Y243567D01*
X95371Y243600D01*
X95492Y243633D01*
X95634Y243666D01*
X95907Y243775D01*
X96191Y243906D01*
X96333Y243993D01*
X96464Y244092D01*
X96574Y244201D01*
X96683Y244321D01*
X96694Y244332D01*
X96705Y244354D01*
X96727Y244387D01*
X96771Y244442D01*
X96803Y244507D01*
X96847Y244595D01*
X96902Y244682D01*
X96945Y244791D01*
X97000Y244912D01*
X97044Y245043D01*
X97131Y245327D01*
X97186Y245666D01*
X97197Y245841D01*
X97208Y246026D01*
Y246136D01*
X97197Y246212D01*
X97186Y246311D01*
X97175Y246420D01*
X97153Y246540D01*
X97131Y246671D01*
X97055Y246956D01*
X96945Y247240D01*
X96880Y247393D01*
X96803Y247524D01*
X96705Y247666D01*
X96596Y247786D01*
X96585Y247797D01*
X96574Y247819D01*
X96530Y247841D01*
X96486Y247885D01*
X96432Y247939D01*
X96355Y247994D01*
X96279Y248049D01*
X96180Y248114D01*
X95962Y248223D01*
X95710Y248333D01*
X95568Y248376D01*
X95415Y248398D01*
X95251Y248420D01*
X95087Y248431D01*
X97208D01*
D01*
D02*
G37*
G36*
Y242562D02*
X89458D01*
X93120D01*
X92978Y242551D01*
X92803Y242540D01*
X92595Y242518D01*
X92377Y242496D01*
X92136Y242474D01*
X91885Y242430D01*
X91622Y242376D01*
X91371Y242321D01*
X91120Y242245D01*
X90868Y242168D01*
X90639Y242059D01*
X90420Y241950D01*
X90234Y241818D01*
X90223Y241808D01*
X90201Y241786D01*
X90158Y241753D01*
X90114Y241709D01*
X90059Y241644D01*
X89994Y241567D01*
X89917Y241469D01*
X89852Y241370D01*
X89775Y241250D01*
X89699Y241130D01*
X89633Y240988D01*
X89578Y240835D01*
X89535Y240671D01*
X89491Y240485D01*
X89469Y240299D01*
X89458Y240103D01*
Y240059D01*
X89469Y239993D01*
Y239917D01*
X89480Y239829D01*
X89502Y239720D01*
X89524Y239600D01*
X89568Y239469D01*
X89611Y239326D01*
X89666Y239184D01*
X89732Y239031D01*
X89819Y238889D01*
X89906Y238736D01*
X90027Y238594D01*
X90147Y238452D01*
X90300Y238321D01*
X90311Y238310D01*
X90344Y238288D01*
X90398Y238255D01*
X90464Y238223D01*
X90562Y238168D01*
X90682Y238113D01*
X90835Y238048D01*
X90999Y237993D01*
X91196Y237927D01*
X91415Y237862D01*
X91666Y237807D01*
X91939Y237763D01*
X92245Y237720D01*
X92584Y237687D01*
X92945Y237665D01*
X93338Y237654D01*
X93546D01*
X93688Y237665D01*
X93863Y237676D01*
X94071Y237698D01*
X94289Y237720D01*
X94530Y237742D01*
X94781Y237785D01*
X95033Y237829D01*
X95295Y237895D01*
X95546Y237960D01*
X95787Y238048D01*
X96016Y238146D01*
X96235Y238255D01*
X96421Y238387D01*
X96432Y238397D01*
X96453Y238419D01*
X96497Y238452D01*
X96541Y238507D01*
X96606Y238561D01*
X96672Y238638D01*
X96738Y238736D01*
X96814Y238835D01*
X96891Y238955D01*
X96956Y239075D01*
X97022Y239217D01*
X97087Y239370D01*
X97131Y239534D01*
X97175Y239720D01*
X97197Y239906D01*
X97208Y240103D01*
Y240212D01*
X97197Y240288D01*
X97186Y240376D01*
X97164Y240485D01*
X97142Y240594D01*
X97109Y240725D01*
X97066Y240868D01*
X97011Y240999D01*
X96956Y241141D01*
X96880Y241283D01*
X96781Y241425D01*
X96683Y241567D01*
X96563Y241698D01*
X96421Y241818D01*
X96410Y241829D01*
X96377Y241851D01*
X96322Y241884D01*
X96246Y241939D01*
X96136Y241993D01*
X96005Y242059D01*
X95863Y242125D01*
X95678Y242190D01*
X95481Y242256D01*
X95251Y242332D01*
X95000Y242387D01*
X94716Y242442D01*
X94410Y242496D01*
X94082Y242529D01*
X93721Y242551D01*
X93327Y242562D01*
X97208D01*
D01*
D02*
G37*
G36*
X93076Y237129D02*
X91622D01*
Y234277D01*
X93076D01*
Y237129D01*
D02*
G37*
G36*
X97208Y233315D02*
X89458D01*
Y228254D01*
D01*
Y230823D01*
X89469Y230768D01*
Y230692D01*
X89491Y230593D01*
X89502Y230473D01*
X89535Y230353D01*
X89568Y230211D01*
X89611Y230069D01*
X89677Y229916D01*
X89742Y229752D01*
X89830Y229599D01*
X89928Y229435D01*
X90048Y229282D01*
X90191Y229129D01*
X90344Y228987D01*
X90355Y228976D01*
X90387Y228954D01*
X90442Y228921D01*
X90518Y228877D01*
X90617Y228812D01*
X90737Y228757D01*
X90879Y228692D01*
X91043Y228626D01*
X91240Y228549D01*
X91448Y228484D01*
X91688Y228429D01*
X91961Y228375D01*
X92245Y228320D01*
X92562Y228287D01*
X92901Y228265D01*
X93273Y228254D01*
X93470D01*
X93612Y228265D01*
X93787Y228276D01*
X93983Y228298D01*
X94202Y228320D01*
X94431Y228353D01*
X94672Y228385D01*
X94923Y228440D01*
X95175Y228506D01*
X95426Y228582D01*
X95656Y228670D01*
X95885Y228768D01*
X96093Y228888D01*
X96279Y229019D01*
X96289Y229030D01*
X96322Y229052D01*
X96366Y229096D01*
X96421Y229162D01*
X96497Y229238D01*
X96574Y229326D01*
X96661Y229435D01*
X96749Y229555D01*
X96825Y229697D01*
X96912Y229839D01*
X96989Y230014D01*
X97066Y230189D01*
X97120Y230375D01*
X97164Y230582D01*
X97197Y230790D01*
X97208Y231020D01*
Y231107D01*
X97197Y231162D01*
Y231238D01*
X97186Y231326D01*
X97142Y231522D01*
X97087Y231741D01*
X97000Y231981D01*
X96880Y232222D01*
X96803Y232331D01*
X96716Y232440D01*
Y232452D01*
X96694Y232462D01*
X96661Y232495D01*
X96628Y232528D01*
X96574Y232583D01*
X96519Y232626D01*
X96366Y232747D01*
X96158Y232867D01*
X95918Y232987D01*
X95645Y233096D01*
X95317Y233173D01*
X95164Y231774D01*
X95186D01*
X95229Y231763D01*
X95306Y231741D01*
X95404Y231719D01*
X95503Y231686D01*
X95612Y231632D01*
X95710Y231577D01*
X95798Y231501D01*
X95809Y231490D01*
X95831Y231457D01*
X95863Y231413D01*
X95907Y231347D01*
X95940Y231271D01*
X95973Y231173D01*
X95994Y231052D01*
X96005Y230932D01*
Y230910D01*
X95994Y230856D01*
X95983Y230768D01*
X95951Y230659D01*
X95907Y230539D01*
X95831Y230408D01*
X95732Y230276D01*
X95590Y230156D01*
X95568Y230145D01*
X95546Y230123D01*
X95503Y230101D01*
X95459Y230080D01*
X95393Y230047D01*
X95317Y230025D01*
X95218Y229992D01*
X95109Y229948D01*
X94989Y229916D01*
X94847Y229883D01*
X94694Y229850D01*
X94519Y229817D01*
X94322Y229796D01*
X94103Y229774D01*
X93874Y229752D01*
X93885Y229763D01*
X93907Y229774D01*
X93929Y229806D01*
X93972Y229850D01*
X94027Y229905D01*
X94082Y229970D01*
X94202Y230123D01*
X94311Y230320D01*
X94420Y230550D01*
X94464Y230681D01*
X94486Y230812D01*
X94508Y230954D01*
X94519Y231107D01*
Y231194D01*
X94508Y231260D01*
X94497Y231337D01*
X94486Y231424D01*
X94464Y231533D01*
X94431Y231643D01*
X94344Y231883D01*
X94289Y232014D01*
X94224Y232145D01*
X94147Y232277D01*
X94049Y232408D01*
X93940Y232539D01*
X93819Y232659D01*
X93808Y232670D01*
X93787Y232692D01*
X93754Y232725D01*
X93699Y232757D01*
X93623Y232812D01*
X93546Y232867D01*
X93448Y232922D01*
X93338Y232987D01*
X93218Y233053D01*
X93076Y233107D01*
X92934Y233162D01*
X92770Y233217D01*
X92606Y233249D01*
X92420Y233282D01*
X92234Y233304D01*
X92027Y233315D01*
X97208D01*
D01*
D02*
G37*
G36*
Y227282D02*
X89458D01*
D01*
X93120D01*
X92978Y227271D01*
X92803Y227260D01*
X92595Y227238D01*
X92377Y227216D01*
X92136Y227194D01*
X91885Y227150D01*
X91622Y227096D01*
X91371Y227041D01*
X91120Y226965D01*
X90868Y226888D01*
X90639Y226779D01*
X90420Y226670D01*
X90234Y226538D01*
X90223Y226527D01*
X90201Y226505D01*
X90158Y226473D01*
X90114Y226429D01*
X90059Y226363D01*
X89994Y226287D01*
X89917Y226189D01*
X89852Y226090D01*
X89775Y225970D01*
X89699Y225850D01*
X89633Y225708D01*
X89578Y225555D01*
X89535Y225391D01*
X89491Y225205D01*
X89469Y225019D01*
X89458Y224822D01*
Y224779D01*
X89469Y224713D01*
Y224637D01*
X89480Y224549D01*
X89502Y224440D01*
X89524Y224320D01*
X89568Y224188D01*
X89611Y224046D01*
X89666Y223904D01*
X89732Y223751D01*
X89819Y223609D01*
X89906Y223456D01*
X90027Y223314D01*
X90147Y223172D01*
X90300Y223041D01*
X90311Y223030D01*
X90344Y223008D01*
X90398Y222975D01*
X90464Y222942D01*
X90562Y222888D01*
X90682Y222833D01*
X90835Y222767D01*
X90999Y222713D01*
X91196Y222647D01*
X91415Y222582D01*
X91666Y222527D01*
X91939Y222483D01*
X92245Y222440D01*
X92584Y222407D01*
X92945Y222385D01*
X93338Y222374D01*
X93546D01*
X93688Y222385D01*
X93863Y222396D01*
X94071Y222418D01*
X94289Y222440D01*
X94530Y222461D01*
X94781Y222505D01*
X95033Y222549D01*
X95295Y222615D01*
X95546Y222680D01*
X95787Y222767D01*
X96016Y222866D01*
X96235Y222975D01*
X96421Y223106D01*
X96432Y223117D01*
X96453Y223139D01*
X96497Y223172D01*
X96541Y223226D01*
X96606Y223281D01*
X96672Y223358D01*
X96738Y223456D01*
X96814Y223554D01*
X96891Y223675D01*
X96956Y223795D01*
X97022Y223937D01*
X97087Y224090D01*
X97131Y224254D01*
X97175Y224440D01*
X97197Y224626D01*
X97208Y224822D01*
Y224932D01*
X97197Y225008D01*
X97186Y225096D01*
X97164Y225205D01*
X97142Y225314D01*
X97109Y225445D01*
X97066Y225587D01*
X97011Y225719D01*
X96956Y225861D01*
X96880Y226003D01*
X96781Y226145D01*
X96683Y226287D01*
X96563Y226418D01*
X96421Y226538D01*
X96410Y226549D01*
X96377Y226571D01*
X96322Y226604D01*
X96246Y226659D01*
X96136Y226713D01*
X96005Y226779D01*
X95863Y226844D01*
X95678Y226910D01*
X95481Y226975D01*
X95251Y227052D01*
X95000Y227107D01*
X94716Y227161D01*
X94410Y227216D01*
X94082Y227249D01*
X93721Y227271D01*
X93327Y227282D01*
X97208D01*
D02*
G37*
G36*
Y221401D02*
X89458D01*
Y216494D01*
D01*
Y218898D01*
X89469Y218833D01*
Y218756D01*
X89480Y218669D01*
X89502Y218559D01*
X89524Y218439D01*
X89568Y218308D01*
X89611Y218166D01*
X89666Y218024D01*
X89732Y217871D01*
X89819Y217729D01*
X89906Y217576D01*
X90027Y217434D01*
X90147Y217292D01*
X90300Y217160D01*
X90311Y217149D01*
X90344Y217128D01*
X90398Y217095D01*
X90464Y217062D01*
X90562Y217007D01*
X90682Y216953D01*
X90835Y216887D01*
X90999Y216832D01*
X91196Y216767D01*
X91415Y216701D01*
X91666Y216647D01*
X91939Y216603D01*
X92245Y216559D01*
X92584Y216527D01*
X92945Y216505D01*
X93338Y216494D01*
X93546D01*
X93688Y216505D01*
X93863Y216515D01*
X94071Y216537D01*
X94289Y216559D01*
X94530Y216581D01*
X94781Y216625D01*
X95033Y216669D01*
X95295Y216734D01*
X95546Y216800D01*
X95787Y216887D01*
X96016Y216986D01*
X96235Y217095D01*
X96421Y217226D01*
X96432Y217237D01*
X96453Y217259D01*
X96497Y217292D01*
X96541Y217346D01*
X96606Y217401D01*
X96672Y217477D01*
X96738Y217576D01*
X96814Y217674D01*
X96891Y217794D01*
X96956Y217915D01*
X97022Y218057D01*
X97087Y218210D01*
X97131Y218374D01*
X97175Y218559D01*
X97197Y218745D01*
X97208Y218942D01*
Y219051D01*
X97197Y219128D01*
X97186Y219215D01*
X97164Y219324D01*
X97142Y219434D01*
X97109Y219565D01*
X97066Y219707D01*
X97011Y219838D01*
X96956Y219980D01*
X96880Y220122D01*
X96781Y220265D01*
X96683Y220407D01*
X96563Y220538D01*
X96421Y220658D01*
X96410Y220669D01*
X96377Y220691D01*
X96322Y220724D01*
X96246Y220778D01*
X96136Y220833D01*
X96005Y220899D01*
X95863Y220964D01*
X95678Y221030D01*
X95481Y221095D01*
X95251Y221172D01*
X95000Y221226D01*
X94716Y221281D01*
X94410Y221336D01*
X94082Y221368D01*
X93721Y221390D01*
X93327Y221401D01*
X97208D01*
D02*
G37*
G36*
X93076Y215969D02*
X91622D01*
Y213116D01*
X93076D01*
Y215969D01*
D02*
G37*
G36*
X97197Y212286D02*
Y211346D01*
X92387D01*
Y212286D01*
X97197D01*
X89600D01*
Y206842D01*
Y209947D01*
X91120D01*
Y206842D01*
X92377D01*
X97197Y210121D01*
Y212286D01*
D02*
G37*
G36*
X97208Y206121D02*
X89458D01*
D01*
X93120D01*
X92978Y206110D01*
X92803Y206099D01*
X92595Y206077D01*
X92377Y206055D01*
X92136Y206034D01*
X91885Y205990D01*
X91622Y205935D01*
X91371Y205881D01*
X91120Y205804D01*
X90868Y205728D01*
X90639Y205618D01*
X90420Y205509D01*
X90234Y205378D01*
X90223Y205367D01*
X90201Y205345D01*
X90158Y205312D01*
X90114Y205269D01*
X90059Y205203D01*
X89994Y205127D01*
X89917Y205028D01*
X89852Y204930D01*
X89775Y204809D01*
X89699Y204689D01*
X89633Y204547D01*
X89578Y204394D01*
X89535Y204230D01*
X89491Y204044D01*
X89469Y203859D01*
X89458Y203662D01*
Y203618D01*
X89469Y203553D01*
Y203476D01*
X89480Y203389D01*
X89502Y203279D01*
X89524Y203159D01*
X89568Y203028D01*
X89611Y202886D01*
X89666Y202744D01*
X89732Y202591D01*
X89819Y202449D01*
X89906Y202296D01*
X90027Y202153D01*
X90147Y202011D01*
X90300Y201880D01*
X90311Y201869D01*
X90344Y201848D01*
X90398Y201815D01*
X90464Y201782D01*
X90562Y201727D01*
X90682Y201673D01*
X90835Y201607D01*
X90999Y201552D01*
X91196Y201487D01*
X91415Y201421D01*
X91666Y201366D01*
X91939Y201323D01*
X92245Y201279D01*
X92584Y201246D01*
X92945Y201224D01*
X93338Y201214D01*
X93546D01*
X93688Y201224D01*
X93863Y201235D01*
X94071Y201257D01*
X94289Y201279D01*
X94530Y201301D01*
X94781Y201345D01*
X95033Y201388D01*
X95295Y201454D01*
X95546Y201520D01*
X95787Y201607D01*
X96016Y201705D01*
X96235Y201815D01*
X96421Y201946D01*
X96432Y201957D01*
X96453Y201979D01*
X96497Y202011D01*
X96541Y202066D01*
X96606Y202121D01*
X96672Y202197D01*
X96738Y202296D01*
X96814Y202394D01*
X96891Y202514D01*
X96956Y202634D01*
X97022Y202777D01*
X97087Y202929D01*
X97131Y203094D01*
X97175Y203279D01*
X97197Y203465D01*
X97208Y203662D01*
Y203771D01*
X97197Y203848D01*
X97186Y203935D01*
X97164Y204044D01*
X97142Y204154D01*
X97109Y204285D01*
X97066Y204427D01*
X97011Y204558D01*
X96956Y204700D01*
X96880Y204842D01*
X96781Y204984D01*
X96683Y205127D01*
X96563Y205258D01*
X96421Y205378D01*
X96410Y205389D01*
X96377Y205411D01*
X96322Y205443D01*
X96246Y205498D01*
X96136Y205553D01*
X96005Y205618D01*
X95863Y205684D01*
X95678Y205750D01*
X95481Y205815D01*
X95251Y205892D01*
X95000Y205946D01*
X94716Y206001D01*
X94410Y206055D01*
X94082Y206088D01*
X93721Y206110D01*
X93327Y206121D01*
X97208D01*
D02*
G37*
G36*
Y200241D02*
X89458D01*
Y195333D01*
D01*
Y197738D01*
X89469Y197672D01*
Y197596D01*
X89480Y197508D01*
X89502Y197399D01*
X89524Y197279D01*
X89568Y197148D01*
X89611Y197005D01*
X89666Y196863D01*
X89732Y196710D01*
X89819Y196568D01*
X89906Y196415D01*
X90027Y196273D01*
X90147Y196131D01*
X90300Y196000D01*
X90311Y195989D01*
X90344Y195967D01*
X90398Y195934D01*
X90464Y195902D01*
X90562Y195847D01*
X90682Y195792D01*
X90835Y195727D01*
X90999Y195672D01*
X91196Y195606D01*
X91415Y195541D01*
X91666Y195486D01*
X91939Y195442D01*
X92245Y195399D01*
X92584Y195366D01*
X92945Y195344D01*
X93338Y195333D01*
X93546D01*
X93688Y195344D01*
X93863Y195355D01*
X94071Y195377D01*
X94289Y195399D01*
X94530Y195421D01*
X94781Y195464D01*
X95033Y195508D01*
X95295Y195574D01*
X95546Y195639D01*
X95787Y195727D01*
X96016Y195825D01*
X96235Y195934D01*
X96421Y196065D01*
X96432Y196076D01*
X96453Y196098D01*
X96497Y196131D01*
X96541Y196186D01*
X96606Y196240D01*
X96672Y196317D01*
X96738Y196415D01*
X96814Y196514D01*
X96891Y196634D01*
X96956Y196754D01*
X97022Y196896D01*
X97087Y197049D01*
X97131Y197213D01*
X97175Y197399D01*
X97197Y197585D01*
X97208Y197782D01*
Y197891D01*
D01*
Y198044D01*
Y197891D01*
X97197Y197967D01*
X97186Y198055D01*
X97164Y198164D01*
X97142Y198273D01*
X97109Y198405D01*
X97066Y198547D01*
X97011Y198678D01*
X96956Y198820D01*
X96880Y198962D01*
X96781Y199104D01*
X96683Y199246D01*
X96563Y199377D01*
X96421Y199497D01*
X96410Y199508D01*
X96377Y199530D01*
X96322Y199563D01*
X96246Y199618D01*
X96136Y199672D01*
X96005Y199738D01*
X95863Y199803D01*
X95678Y199869D01*
X95481Y199935D01*
X95251Y200011D01*
X95000Y200066D01*
X94716Y200120D01*
X94410Y200175D01*
X94082Y200208D01*
X93721Y200230D01*
X93327Y200241D01*
X97208D01*
D02*
G37*
%LPD*%
G36*
X92978Y260192D02*
X92803Y260181D01*
X92595Y260159D01*
X92377Y260137D01*
X92136Y260115D01*
X91885Y260072D01*
X91622Y260017D01*
X91371Y259962D01*
X91120Y259886D01*
X90868Y259809D01*
X90639Y259700D01*
X90420Y259591D01*
X90234Y259459D01*
X90223Y259449D01*
X90201Y259427D01*
X90158Y259394D01*
X90114Y259350D01*
X90059Y259285D01*
X89994Y259208D01*
X89917Y259110D01*
X89852Y259011D01*
X89775Y258891D01*
X89699Y258771D01*
X89633Y258629D01*
X89578Y258476D01*
X89535Y258312D01*
X89491Y258126D01*
X89469Y257940D01*
X89458Y257744D01*
Y260203D01*
X93120D01*
X92978Y260192D01*
D02*
G37*
G36*
X93776Y258662D02*
X93918D01*
X94060Y258651D01*
X94366Y258640D01*
X94661Y258618D01*
X94803Y258596D01*
X94945Y258574D01*
X95065Y258552D01*
X95164Y258530D01*
X95175D01*
X95186Y258520D01*
X95240Y258509D01*
X95328Y258476D01*
X95437Y258443D01*
X95546Y258388D01*
X95656Y258334D01*
X95754Y258268D01*
X95831Y258203D01*
X95841Y258192D01*
X95863Y258170D01*
X95885Y258126D01*
X95918Y258071D01*
X95951Y258006D01*
X95983Y257929D01*
X95994Y257842D01*
X96005Y257744D01*
Y257700D01*
X95994Y257645D01*
X95983Y257591D01*
X95962Y257514D01*
X95929Y257437D01*
X95885Y257350D01*
X95831Y257274D01*
X95820Y257263D01*
X95798Y257241D01*
X95754Y257208D01*
X95699Y257164D01*
X95612Y257109D01*
X95513Y257066D01*
X95382Y257011D01*
X95229Y256967D01*
X95218D01*
X95208Y256957D01*
X95164D01*
X95120Y256946D01*
X95054Y256935D01*
X94978Y256924D01*
X94890Y256913D01*
X94781Y256902D01*
X94650Y256880D01*
X94519Y256869D01*
X94355Y256858D01*
X94191Y256847D01*
X93994Y256836D01*
X93797D01*
X93568Y256825D01*
X93327D01*
X93317D01*
X93273D01*
X93196D01*
X93109D01*
X93000D01*
X92879Y256836D01*
X92737D01*
X92595Y256847D01*
X92289Y256858D01*
X91983Y256880D01*
X91841Y256891D01*
X91710Y256913D01*
X91590Y256935D01*
X91480Y256957D01*
X91458Y256967D01*
X91404Y256978D01*
X91316Y257011D01*
X91218Y257044D01*
X91109Y257099D01*
X90999Y257153D01*
X90901Y257219D01*
X90825Y257284D01*
X90814Y257295D01*
X90803Y257317D01*
X90770Y257361D01*
X90748Y257416D01*
X90715Y257481D01*
X90682Y257558D01*
X90671Y257645D01*
X90661Y257744D01*
Y257787D01*
X90671Y257842D01*
X90682Y257896D01*
X90704Y257973D01*
X90726Y258050D01*
X90770Y258126D01*
X90825Y258203D01*
X90835Y258213D01*
X90857Y258235D01*
X90901Y258279D01*
X90967Y258323D01*
X91043Y258366D01*
X91152Y258421D01*
X91273Y258476D01*
X91426Y258520D01*
X91437D01*
X91448Y258530D01*
X91491D01*
X91535Y258541D01*
X91601Y258552D01*
X91677Y258563D01*
X91764Y258585D01*
X91874Y258596D01*
X91994Y258607D01*
X92136Y258629D01*
X92289Y258640D01*
X92464Y258651D01*
X92650Y258662D01*
X92857D01*
X93087Y258672D01*
X93327D01*
X93338D01*
X93382D01*
X93459D01*
X93546D01*
X93655D01*
X93776Y258662D01*
D02*
G37*
G36*
Y252781D02*
X93918D01*
X94060Y252770D01*
X94366Y252759D01*
X94661Y252737D01*
X94803Y252716D01*
X94945Y252694D01*
X95065Y252672D01*
X95164Y252650D01*
X95175D01*
X95186Y252639D01*
X95240Y252628D01*
X95328Y252595D01*
X95437Y252563D01*
X95546Y252508D01*
X95656Y252453D01*
X95754Y252388D01*
X95831Y252322D01*
X95841Y252311D01*
X95863Y252289D01*
X95885Y252246D01*
X95918Y252191D01*
X95951Y252126D01*
X95983Y252049D01*
X95994Y251961D01*
X96005Y251863D01*
Y251819D01*
X95994Y251765D01*
X95983Y251710D01*
X95962Y251634D01*
X95929Y251557D01*
X95885Y251470D01*
X95831Y251393D01*
X95820Y251382D01*
X95798Y251360D01*
X95754Y251328D01*
X95699Y251284D01*
X95612Y251229D01*
X95513Y251185D01*
X95382Y251131D01*
X95229Y251087D01*
X95218D01*
X95208Y251076D01*
X95164D01*
X95120Y251065D01*
X95054Y251054D01*
X94978Y251043D01*
X94890Y251032D01*
X94781Y251022D01*
X94650Y251000D01*
X94519Y250989D01*
X94355Y250978D01*
X94191Y250967D01*
X93994Y250956D01*
X93797D01*
X93568Y250945D01*
X93327D01*
X93317D01*
X93273D01*
X93196D01*
X93109D01*
X93000D01*
X92879Y250956D01*
X92737D01*
X92595Y250967D01*
X92289Y250978D01*
X91983Y251000D01*
X91841Y251011D01*
X91710Y251032D01*
X91590Y251054D01*
X91480Y251076D01*
X91458Y251087D01*
X91404Y251098D01*
X91316Y251131D01*
X91218Y251164D01*
X91109Y251218D01*
X90999Y251273D01*
X90901Y251339D01*
X90825Y251404D01*
X90814Y251415D01*
X90803Y251437D01*
X90770Y251481D01*
X90748Y251535D01*
X90715Y251601D01*
X90682Y251677D01*
X90671Y251765D01*
X90661Y251863D01*
Y251907D01*
X90671Y251961D01*
X90682Y252016D01*
X90704Y252093D01*
X90726Y252169D01*
X90770Y252246D01*
X90825Y252322D01*
X90835Y252333D01*
X90857Y252355D01*
X90901Y252399D01*
X90967Y252442D01*
X91043Y252486D01*
X91152Y252541D01*
X91273Y252595D01*
X91426Y252639D01*
X91437D01*
X91448Y252650D01*
X91491D01*
X91535Y252661D01*
X91601Y252672D01*
X91677Y252683D01*
X91764Y252705D01*
X91874Y252716D01*
X91994Y252727D01*
X92136Y252748D01*
X92289Y252759D01*
X92464Y252770D01*
X92650Y252781D01*
X92857D01*
X93087Y252792D01*
X93327D01*
X93338D01*
X93382D01*
X93459D01*
X93546D01*
X93655D01*
X93776Y252781D01*
D02*
G37*
G36*
Y241021D02*
X93918D01*
X94060Y241010D01*
X94366Y240999D01*
X94661Y240977D01*
X94803Y240955D01*
X94945Y240933D01*
X95065Y240911D01*
X95164Y240889D01*
X95175D01*
X95186Y240879D01*
X95240Y240868D01*
X95328Y240835D01*
X95437Y240802D01*
X95546Y240747D01*
X95656Y240693D01*
X95754Y240627D01*
X95831Y240562D01*
X95841Y240551D01*
X95863Y240529D01*
X95885Y240485D01*
X95918Y240430D01*
X95951Y240365D01*
X95983Y240288D01*
X95994Y240201D01*
X96005Y240103D01*
Y240059D01*
X95994Y240004D01*
X95983Y239949D01*
X95962Y239873D01*
X95929Y239796D01*
X95885Y239709D01*
X95831Y239633D01*
X95820Y239621D01*
X95798Y239600D01*
X95754Y239567D01*
X95699Y239523D01*
X95612Y239469D01*
X95513Y239425D01*
X95382Y239370D01*
X95229Y239326D01*
X95218D01*
X95208Y239316D01*
X95164D01*
X95120Y239305D01*
X95054Y239294D01*
X94978Y239283D01*
X94890Y239272D01*
X94781Y239261D01*
X94650Y239239D01*
X94519Y239228D01*
X94355Y239217D01*
X94191Y239206D01*
X93994Y239195D01*
X93797D01*
X93568Y239184D01*
X93327D01*
X93317D01*
X93273D01*
X93196D01*
X93109D01*
X93000D01*
X92879Y239195D01*
X92737D01*
X92595Y239206D01*
X92289Y239217D01*
X91983Y239239D01*
X91841Y239250D01*
X91710Y239272D01*
X91590Y239294D01*
X91480Y239316D01*
X91458Y239326D01*
X91404Y239337D01*
X91316Y239370D01*
X91218Y239403D01*
X91109Y239458D01*
X90999Y239512D01*
X90901Y239578D01*
X90825Y239643D01*
X90814Y239654D01*
X90803Y239676D01*
X90770Y239720D01*
X90748Y239775D01*
X90715Y239840D01*
X90682Y239917D01*
X90671Y240004D01*
X90661Y240103D01*
Y240146D01*
X90671Y240201D01*
X90682Y240255D01*
X90704Y240332D01*
X90726Y240408D01*
X90770Y240485D01*
X90825Y240562D01*
X90835Y240572D01*
X90857Y240594D01*
X90901Y240638D01*
X90967Y240682D01*
X91043Y240725D01*
X91152Y240780D01*
X91273Y240835D01*
X91426Y240879D01*
X91437D01*
X91448Y240889D01*
X91491D01*
X91535Y240900D01*
X91601Y240911D01*
X91677Y240922D01*
X91764Y240944D01*
X91874Y240955D01*
X91994Y240966D01*
X92136Y240988D01*
X92289Y240999D01*
X92464Y241010D01*
X92650Y241021D01*
X92857D01*
X93087Y241032D01*
X93327D01*
X93338D01*
X93382D01*
X93459D01*
X93546D01*
X93655D01*
X93776Y241021D01*
D02*
G37*
G36*
X91830Y233304D02*
X91732Y233293D01*
X91622Y233282D01*
X91491Y233260D01*
X91360Y233227D01*
X91054Y233151D01*
X90901Y233096D01*
X90748Y233020D01*
X90595Y232943D01*
X90442Y232856D01*
X90289Y232747D01*
X90158Y232626D01*
X90147Y232615D01*
X90125Y232594D01*
X90092Y232561D01*
X90048Y232506D01*
X89994Y232440D01*
X89939Y232353D01*
X89874Y232266D01*
X89808Y232156D01*
X89742Y232036D01*
X89677Y231905D01*
X89622Y231763D01*
X89568Y231599D01*
X89524Y231435D01*
X89491Y231260D01*
X89469Y231074D01*
X89458Y230877D01*
Y233315D01*
X91918D01*
X91830Y233304D01*
D02*
G37*
G36*
X92256Y231883D02*
X92420Y231861D01*
X92595Y231818D01*
X92781Y231774D01*
X92956Y231697D01*
X93098Y231599D01*
X93109Y231588D01*
X93153Y231544D01*
X93207Y231490D01*
X93273Y231402D01*
X93338Y231293D01*
X93393Y231173D01*
X93437Y231031D01*
X93448Y230877D01*
Y230812D01*
X93426Y230725D01*
X93404Y230626D01*
X93360Y230517D01*
X93306Y230397D01*
X93218Y230276D01*
X93109Y230167D01*
X93098Y230156D01*
X93043Y230123D01*
X92967Y230080D01*
X92868Y230025D01*
X92726Y229970D01*
X92562Y229927D01*
X92366Y229894D01*
X92136Y229883D01*
X92125D01*
X92103D01*
X92071D01*
X92016D01*
X91896Y229905D01*
X91732Y229927D01*
X91557Y229959D01*
X91371Y230014D01*
X91196Y230091D01*
X91043Y230200D01*
X91032Y230211D01*
X90988Y230255D01*
X90923Y230331D01*
X90857Y230418D01*
X90781Y230528D01*
X90726Y230648D01*
X90682Y230790D01*
X90661Y230943D01*
Y231009D01*
X90682Y231085D01*
X90704Y231184D01*
X90737Y231282D01*
X90792Y231402D01*
X90868Y231511D01*
X90967Y231621D01*
X90978Y231632D01*
X91032Y231664D01*
X91109Y231708D01*
X91218Y231763D01*
X91360Y231807D01*
X91535Y231850D01*
X91754Y231883D01*
X92005Y231894D01*
X92016D01*
X92038D01*
X92081D01*
X92125D01*
X92256Y231883D01*
D02*
G37*
G36*
X93776Y225740D02*
X93918D01*
X94060Y225729D01*
X94366Y225719D01*
X94661Y225697D01*
X94803Y225675D01*
X94945Y225653D01*
X95065Y225631D01*
X95164Y225609D01*
X95175D01*
X95186Y225598D01*
X95240Y225587D01*
X95328Y225555D01*
X95437Y225522D01*
X95546Y225467D01*
X95656Y225413D01*
X95754Y225347D01*
X95831Y225281D01*
X95841Y225270D01*
X95863Y225249D01*
X95885Y225205D01*
X95918Y225150D01*
X95951Y225085D01*
X95983Y225008D01*
X95994Y224921D01*
X96005Y224822D01*
Y224779D01*
X95994Y224724D01*
X95983Y224669D01*
X95962Y224593D01*
X95929Y224516D01*
X95885Y224429D01*
X95831Y224352D01*
X95820Y224341D01*
X95798Y224320D01*
X95754Y224287D01*
X95699Y224243D01*
X95612Y224188D01*
X95513Y224145D01*
X95382Y224090D01*
X95229Y224046D01*
X95218D01*
X95208Y224035D01*
X95164D01*
X95120Y224024D01*
X95054Y224013D01*
X94978Y224003D01*
X94890Y223992D01*
X94781Y223981D01*
X94650Y223959D01*
X94519Y223948D01*
X94355Y223937D01*
X94191Y223926D01*
X93994Y223915D01*
X93797D01*
X93568Y223904D01*
X93327D01*
X93317D01*
X93273D01*
X93196D01*
X93109D01*
X93000D01*
X92879Y223915D01*
X92737D01*
X92595Y223926D01*
X92289Y223937D01*
X91983Y223959D01*
X91841Y223970D01*
X91710Y223992D01*
X91590Y224013D01*
X91480Y224035D01*
X91458Y224046D01*
X91404Y224057D01*
X91316Y224090D01*
X91218Y224123D01*
X91109Y224177D01*
X90999Y224232D01*
X90901Y224298D01*
X90825Y224363D01*
X90814Y224374D01*
X90803Y224396D01*
X90770Y224440D01*
X90748Y224494D01*
X90715Y224560D01*
X90682Y224637D01*
X90671Y224724D01*
X90661Y224822D01*
Y224866D01*
X90671Y224921D01*
X90682Y224975D01*
X90704Y225052D01*
X90726Y225128D01*
X90770Y225205D01*
X90825Y225281D01*
X90835Y225292D01*
X90857Y225314D01*
X90901Y225358D01*
X90967Y225402D01*
X91043Y225445D01*
X91152Y225500D01*
X91273Y225555D01*
X91426Y225598D01*
X91437D01*
X91448Y225609D01*
X91491D01*
X91535Y225620D01*
X91601Y225631D01*
X91677Y225642D01*
X91764Y225664D01*
X91874Y225675D01*
X91994Y225686D01*
X92136Y225708D01*
X92289Y225719D01*
X92464Y225729D01*
X92650Y225740D01*
X92857D01*
X93087Y225751D01*
X93327D01*
X93338D01*
X93382D01*
X93459D01*
X93546D01*
X93655D01*
X93776Y225740D01*
D02*
G37*
G36*
X92978Y221390D02*
X92803Y221379D01*
X92595Y221357D01*
X92377Y221336D01*
X92136Y221314D01*
X91885Y221270D01*
X91622Y221215D01*
X91371Y221161D01*
X91120Y221084D01*
X90868Y221008D01*
X90639Y220899D01*
X90420Y220789D01*
X90234Y220658D01*
X90223Y220647D01*
X90201Y220625D01*
X90158Y220592D01*
X90114Y220549D01*
X90059Y220483D01*
X89994Y220407D01*
X89917Y220308D01*
X89852Y220210D01*
X89775Y220090D01*
X89699Y219969D01*
X89633Y219827D01*
X89578Y219674D01*
X89535Y219510D01*
X89491Y219324D01*
X89469Y219139D01*
X89458Y218942D01*
Y221401D01*
X93120D01*
X92978Y221390D01*
D02*
G37*
G36*
X93776Y219860D02*
X93918D01*
X94060Y219849D01*
X94366Y219838D01*
X94661Y219816D01*
X94803Y219795D01*
X94945Y219773D01*
X95065Y219751D01*
X95164Y219729D01*
X95175D01*
X95186Y219718D01*
X95240Y219707D01*
X95328Y219674D01*
X95437Y219641D01*
X95546Y219587D01*
X95656Y219532D01*
X95754Y219467D01*
X95831Y219401D01*
X95841Y219390D01*
X95863Y219368D01*
X95885Y219324D01*
X95918Y219270D01*
X95951Y219204D01*
X95983Y219128D01*
X95994Y219040D01*
X96005Y218942D01*
Y218898D01*
X95994Y218844D01*
X95983Y218789D01*
X95962Y218712D01*
X95929Y218636D01*
X95885Y218548D01*
X95831Y218472D01*
X95820Y218461D01*
X95798Y218439D01*
X95754Y218406D01*
X95699Y218363D01*
X95612Y218308D01*
X95513Y218264D01*
X95382Y218210D01*
X95229Y218166D01*
X95218D01*
X95208Y218155D01*
X95164D01*
X95120Y218144D01*
X95054Y218133D01*
X94978Y218122D01*
X94890Y218111D01*
X94781Y218100D01*
X94650Y218078D01*
X94519Y218068D01*
X94355Y218057D01*
X94191Y218046D01*
X93994Y218035D01*
X93797D01*
X93568Y218024D01*
X93327D01*
X93317D01*
X93273D01*
X93196D01*
X93109D01*
X93000D01*
X92879Y218035D01*
X92737D01*
X92595Y218046D01*
X92289Y218057D01*
X91983Y218078D01*
X91841Y218089D01*
X91710Y218111D01*
X91590Y218133D01*
X91480Y218155D01*
X91458Y218166D01*
X91404Y218177D01*
X91316Y218210D01*
X91218Y218243D01*
X91109Y218297D01*
X90999Y218352D01*
X90901Y218417D01*
X90825Y218483D01*
X90814Y218494D01*
X90803Y218516D01*
X90770Y218559D01*
X90748Y218614D01*
X90715Y218680D01*
X90682Y218756D01*
X90671Y218844D01*
X90661Y218942D01*
Y218986D01*
X90671Y219040D01*
X90682Y219095D01*
X90704Y219172D01*
X90726Y219248D01*
X90770Y219324D01*
X90825Y219401D01*
X90835Y219412D01*
X90857Y219434D01*
X90901Y219478D01*
X90967Y219521D01*
X91043Y219565D01*
X91152Y219620D01*
X91273Y219674D01*
X91426Y219718D01*
X91437D01*
X91448Y219729D01*
X91491D01*
X91535Y219740D01*
X91601Y219751D01*
X91677Y219762D01*
X91764Y219784D01*
X91874Y219795D01*
X91994Y219806D01*
X92136Y219827D01*
X92289Y219838D01*
X92464Y219849D01*
X92650Y219860D01*
X92857D01*
X93087Y219871D01*
X93327D01*
X93338D01*
X93382D01*
X93459D01*
X93546D01*
X93655D01*
X93776Y219860D01*
D02*
G37*
G36*
X91120Y211346D02*
X89600D01*
Y212286D01*
X91120D01*
Y211346D01*
D02*
G37*
G36*
X92387Y208187D02*
Y209947D01*
X94989D01*
X92387Y208187D01*
D02*
G37*
G36*
X93776Y204580D02*
X93918D01*
X94060Y204569D01*
X94366Y204558D01*
X94661Y204536D01*
X94803Y204514D01*
X94945Y204492D01*
X95065Y204471D01*
X95164Y204449D01*
X95175D01*
X95186Y204438D01*
X95240Y204427D01*
X95328Y204394D01*
X95437Y204361D01*
X95546Y204307D01*
X95656Y204252D01*
X95754Y204187D01*
X95831Y204121D01*
X95841Y204110D01*
X95863Y204088D01*
X95885Y204044D01*
X95918Y203990D01*
X95951Y203924D01*
X95983Y203848D01*
X95994Y203760D01*
X96005Y203662D01*
Y203618D01*
X95994Y203563D01*
X95983Y203509D01*
X95962Y203432D01*
X95929Y203356D01*
X95885Y203268D01*
X95831Y203192D01*
X95820Y203181D01*
X95798Y203159D01*
X95754Y203126D01*
X95699Y203082D01*
X95612Y203028D01*
X95513Y202984D01*
X95382Y202929D01*
X95229Y202886D01*
X95218D01*
X95208Y202875D01*
X95164D01*
X95120Y202864D01*
X95054Y202853D01*
X94978Y202842D01*
X94890Y202831D01*
X94781Y202820D01*
X94650Y202798D01*
X94519Y202787D01*
X94355Y202777D01*
X94191Y202766D01*
X93994Y202755D01*
X93797D01*
X93568Y202744D01*
X93327D01*
X93317D01*
X93273D01*
X93196D01*
X93109D01*
X93000D01*
X92879Y202755D01*
X92737D01*
X92595Y202766D01*
X92289Y202777D01*
X91983Y202798D01*
X91841Y202809D01*
X91710Y202831D01*
X91590Y202853D01*
X91480Y202875D01*
X91458Y202886D01*
X91404Y202897D01*
X91316Y202929D01*
X91218Y202962D01*
X91109Y203017D01*
X90999Y203072D01*
X90901Y203137D01*
X90825Y203203D01*
X90814Y203214D01*
X90803Y203236D01*
X90770Y203279D01*
X90748Y203334D01*
X90715Y203399D01*
X90682Y203476D01*
X90671Y203563D01*
X90661Y203662D01*
Y203706D01*
X90671Y203760D01*
X90682Y203815D01*
X90704Y203891D01*
X90726Y203968D01*
X90770Y204044D01*
X90825Y204121D01*
X90835Y204132D01*
X90857Y204154D01*
X90901Y204197D01*
X90967Y204241D01*
X91043Y204285D01*
X91152Y204340D01*
X91273Y204394D01*
X91426Y204438D01*
X91437D01*
X91448Y204449D01*
X91491D01*
X91535Y204460D01*
X91601Y204471D01*
X91677Y204482D01*
X91764Y204503D01*
X91874Y204514D01*
X91994Y204525D01*
X92136Y204547D01*
X92289Y204558D01*
X92464Y204569D01*
X92650Y204580D01*
X92857D01*
X93087Y204591D01*
X93327D01*
X93338D01*
X93382D01*
X93459D01*
X93546D01*
X93655D01*
X93776Y204580D01*
D02*
G37*
G36*
X92978Y200230D02*
X92803Y200219D01*
X92595Y200197D01*
X92377Y200175D01*
X92136Y200153D01*
X91885Y200110D01*
X91622Y200055D01*
X91371Y200000D01*
X91120Y199924D01*
X90868Y199847D01*
X90639Y199738D01*
X90420Y199629D01*
X90234Y199497D01*
X90223Y199487D01*
X90201Y199465D01*
X90158Y199432D01*
X90114Y199388D01*
X90059Y199323D01*
X89994Y199246D01*
X89917Y199148D01*
X89852Y199049D01*
X89775Y198929D01*
X89699Y198809D01*
X89633Y198667D01*
X89578Y198514D01*
X89535Y198350D01*
X89491Y198164D01*
X89469Y197978D01*
X89458Y197782D01*
Y200241D01*
X93120D01*
X92978Y200230D01*
D02*
G37*
G36*
X93776Y198700D02*
X93918D01*
X94060Y198689D01*
X94366Y198678D01*
X94661Y198656D01*
X94803Y198634D01*
X94945Y198612D01*
X95065Y198590D01*
X95164Y198568D01*
X95175D01*
X95186Y198557D01*
X95240Y198547D01*
X95328Y198514D01*
X95437Y198481D01*
X95546Y198426D01*
X95656Y198372D01*
X95754Y198306D01*
X95831Y198241D01*
X95841Y198230D01*
X95863Y198208D01*
X95885Y198164D01*
X95918Y198109D01*
X95951Y198044D01*
X95983Y197967D01*
X95994Y197880D01*
X96005Y197782D01*
Y197738D01*
X95994Y197683D01*
X95983Y197628D01*
X95962Y197552D01*
X95929Y197476D01*
X95885Y197388D01*
X95831Y197311D01*
X95820Y197301D01*
X95798Y197279D01*
X95754Y197246D01*
X95699Y197202D01*
X95612Y197148D01*
X95513Y197104D01*
X95382Y197049D01*
X95229Y197005D01*
X95218D01*
X95208Y196994D01*
X95164D01*
X95120Y196984D01*
X95054Y196973D01*
X94978Y196962D01*
X94890Y196951D01*
X94781Y196940D01*
X94650Y196918D01*
X94519Y196907D01*
X94355Y196896D01*
X94191Y196885D01*
X93994Y196874D01*
X93797D01*
X93568Y196863D01*
X93327D01*
X93317D01*
X93273D01*
X93196D01*
X93109D01*
X93000D01*
X92879Y196874D01*
X92737D01*
X92595Y196885D01*
X92289Y196896D01*
X91983Y196918D01*
X91841Y196929D01*
X91710Y196951D01*
X91590Y196973D01*
X91480Y196994D01*
X91458Y197005D01*
X91404Y197016D01*
X91316Y197049D01*
X91218Y197082D01*
X91109Y197137D01*
X90999Y197191D01*
X90901Y197257D01*
X90825Y197322D01*
X90814Y197333D01*
X90803Y197355D01*
X90770Y197399D01*
X90748Y197454D01*
X90715Y197519D01*
X90682Y197596D01*
X90671Y197683D01*
X90661Y197782D01*
Y197825D01*
X90671Y197880D01*
X90682Y197934D01*
X90704Y198011D01*
X90726Y198088D01*
X90770Y198164D01*
X90825Y198241D01*
X90835Y198251D01*
X90857Y198273D01*
X90901Y198317D01*
X90967Y198361D01*
X91043Y198405D01*
X91152Y198459D01*
X91273Y198514D01*
X91426Y198557D01*
X91437D01*
X91448Y198568D01*
X91491D01*
X91535Y198579D01*
X91601Y198590D01*
X91677Y198601D01*
X91764Y198623D01*
X91874Y198634D01*
X91994Y198645D01*
X92136Y198667D01*
X92289Y198678D01*
X92464Y198689D01*
X92650Y198700D01*
X92857D01*
X93087Y198711D01*
X93327D01*
X93338D01*
X93382D01*
X93459D01*
X93546D01*
X93655D01*
X93776Y198700D01*
D02*
G37*
D11*
X83157Y42946D02*
X81157D01*
X82157D01*
Y48944D01*
X83157Y47944D01*
X33639Y61844D02*
Y67842D01*
X36638Y64842D01*
X32639D01*
X32245Y42946D02*
X36244D01*
X32245Y46945D01*
Y47944D01*
X33245Y48944D01*
X35244D01*
X36244Y47944D01*
X85156Y66842D02*
X84157Y67842D01*
X82157D01*
X81157Y66842D01*
Y65842D01*
X82157Y64842D01*
X83157D01*
X82157D01*
X81157Y63843D01*
Y62843D01*
X82157Y61844D01*
X84157D01*
X85156Y62843D01*
X98128Y35947D02*
X94129Y29949D01*
Y35947D02*
X98128Y29949D01*
X92130D02*
X90131D01*
X91130D01*
Y35947D01*
X92130Y34947D01*
D18*
X90177Y39980D02*
Y59980D01*
X160177D01*
Y39980D02*
Y59980D01*
X90177Y39980D02*
X160177Y39980D01*
D25*
X72122Y101165D02*
G03*
X70814Y103530I-2667J70D01*
G01*
X31577Y105348D02*
G03*
X30253Y106622I-5104J-3979D01*
G01*
X26170Y105344D02*
G03*
X24816Y106618I-4610J-3542D01*
G01*
X48072Y99588D02*
G03*
X49322Y99822I46J3214D01*
G01*
X76624Y106537D02*
G03*
X75847Y107279I-3664J-3059D01*
G01*
X92720Y99770D02*
G03*
X94390Y99584I1604J6828D01*
G01*
X49686Y107679D02*
G03*
X48072Y107987I-1565J-3821D01*
G01*
X49322Y106839D02*
G03*
X46833Y106839I-1245J-3198D01*
G01*
X46419Y98987D02*
G03*
X49686Y98987I1633J4142D01*
G01*
X92036Y99045D02*
G03*
X94395Y98673I2167J6091D01*
G01*
X36398Y107697D02*
G03*
X35296Y106409I1015J-1983D01*
G01*
X46421Y107670D02*
G03*
X45165Y106756I1322J-3135D01*
G01*
X50942Y106771D02*
G03*
X49686Y107679I-2578J-2240D01*
G01*
X89795Y101838D02*
G03*
X90555Y100117I4138J800D01*
G01*
X24816Y106618D02*
G03*
X23380Y107069I-1468J-2165D01*
G01*
X26244Y106364D02*
G03*
X25513Y107160I-3382J-2372D01*
G01*
X30253Y106622D02*
G03*
X28869Y107073I-1404J-1961D01*
G01*
X36085Y105754D02*
G03*
X35976Y104685I4528J-1004D01*
G01*
X39519Y106628D02*
G03*
X38061Y107073I-1474J-2218D01*
G01*
X40925Y106444D02*
G03*
X40068Y107245I-4235J-3670D01*
G01*
X46833Y106839D02*
G03*
X45870Y106142I987J-2376D01*
G01*
X45165Y106756D02*
G03*
X44362Y105296I3155J-2687D01*
G01*
Y101371D02*
G03*
X45162Y99901I4021J1236D01*
G01*
X45162Y99901D02*
G03*
X46419Y98987I2593J2245D01*
G01*
X46833Y99822D02*
G03*
X48072Y99588I1198J2951D01*
G01*
X51743Y105313D02*
G03*
X50942Y106771I-3943J-1218D01*
G01*
X50285Y106142D02*
G03*
X49322Y106839I-1950J-1678D01*
G01*
X50936Y99896D02*
G03*
X51743Y101365I-3248J2740D01*
G01*
X49686Y98987D02*
G03*
X50936Y99896I-1285J3082D01*
G01*
X58803Y128142D02*
G03*
X58710Y128086I-2J-102D01*
G01*
X54693Y127890D02*
G03*
X54393Y128612I-1022J0D01*
G01*
X70239Y103834D02*
G03*
X69912Y103961I-1926J-4478D01*
G01*
X65824Y101154D02*
G03*
X66394Y100610I4777J4435D01*
G01*
X67950Y99731D02*
G03*
X68867Y99588I904J2788D01*
G01*
X65824Y100044D02*
G03*
X66752Y99365I4137J4679D01*
G01*
X71622Y106410D02*
G03*
X71424Y106784I-2218J-936D01*
G01*
X71326Y99352D02*
G03*
X71909Y100143I-1553J1754D01*
G01*
X90555Y100117D02*
G03*
X92036Y99044I2652J2104D01*
G01*
X98497Y100478D02*
G03*
X98970Y101621I-4043J2343D01*
G01*
X94390Y99584D02*
G03*
X96042Y99770I72J6817D01*
G01*
X24729Y107657D02*
G03*
X23927Y107913I-1448J-3150D01*
G01*
X23188Y107064D02*
G03*
X23007Y107047I160J-2724D01*
G01*
X21880Y107697D02*
G03*
X21062Y106827I995J-1755D01*
G01*
X23927Y107913D02*
G03*
X23144Y107987I-792J-4192D01*
G01*
X21777Y106114D02*
G03*
X21725Y105952I2273J-816D01*
G01*
X30707Y107262D02*
G03*
X29936Y107726I-2487J-3264D01*
G01*
X29244Y107937D02*
G03*
X28617Y107987I-644J-4118D01*
G01*
X28617Y107987D02*
G03*
X27133Y107589I-87J-2638D01*
G01*
X27478Y106513D02*
G03*
X27183Y105771I1517J-1032D01*
G01*
X41910Y128912D02*
G03*
X41187Y128612I0J-1022D01*
G01*
X42053Y128137D02*
G03*
X41665Y127747I2J-390D01*
G01*
X39248Y107713D02*
G03*
X38487Y107930I-1296J-3100D01*
G01*
X37803Y107987D02*
G03*
X36811Y107859I-45J-3531D01*
G01*
X38061Y107073D02*
G03*
X37087Y106930I-77J-2869D01*
G01*
X40930Y105370D02*
G03*
X39519Y106628I-5151J-4360D01*
G01*
X48072Y107987D02*
G03*
X46421Y107670I-54J-4175D01*
G01*
X45870Y100530D02*
G03*
X46833Y99822I1934J1620D01*
G01*
X49322D02*
G03*
X50285Y100530I-972J2328D01*
G01*
X54211Y112983D02*
G03*
X54935Y112679I729J720D01*
G01*
X70271Y107689D02*
G03*
X70043Y107769I-1240J-3200D01*
G01*
X68788Y107057D02*
G03*
X68312Y107073I-465J-6951D01*
G01*
X68962Y107964D02*
G03*
X68650Y107982I-582J-7358D01*
G01*
X68312Y107073D02*
G03*
X66963Y106867I-142J-3590D01*
G01*
X68321Y107987D02*
G03*
X66737Y107759I-114J-4822D01*
G01*
D02*
G03*
X65676Y107103I823J-2516D01*
G01*
X70195Y106685D02*
G03*
X70063Y106759I-931J-1514D01*
G01*
X66221Y106301D02*
G03*
X65899Y105450I1581J-1086D01*
G01*
X67400Y104367D02*
G03*
X66889Y104376I-504J-15009D01*
G01*
X68774Y104240D02*
G03*
X68342Y104300I-1486J-9230D01*
G01*
X70210Y102890D02*
G03*
X70002Y102998I-1398J-2417D01*
G01*
X68969Y103318D02*
G03*
X68660Y103370I-1257J-6609D01*
G01*
X67980Y103438D02*
G03*
X67217Y103461I-742J-12043D01*
G01*
X70157Y99803D02*
G03*
X70571Y100028I-754J1887D01*
G01*
X67114Y100102D02*
G03*
X67950Y99731I2125J3663D01*
G01*
X68492Y98731D02*
G03*
X69356Y98673I852J6286D01*
G01*
X66752Y99365D02*
G03*
X67633Y98942I2540J4161D01*
G01*
X69356Y98673D02*
G03*
X70451Y98850I26J3326D01*
G01*
X74804Y106913D02*
G03*
X74042Y107073I-759J-1727D01*
G01*
X75105Y107726D02*
G03*
X74408Y107937I-1179J-2633D01*
G01*
X76129Y105913D02*
G03*
X75507Y106496I-3288J-2885D01*
G01*
X81741Y128722D02*
G03*
X81466Y128836I-276J-276D01*
G01*
X80833Y112679D02*
G03*
X81855Y113703I-2J1024D01*
G01*
X79952Y99692D02*
G03*
X80488Y99744I30J2478D01*
G01*
X81273Y98942D02*
G03*
X81829Y99440I-457J1072D01*
G01*
X91498Y100462D02*
G03*
X92720Y99770I1793J1743D01*
G01*
X96042Y99770D02*
G03*
X97265Y100456I-613J2524D01*
G01*
X94395Y98673D02*
G03*
X96324Y98907I137J6946D01*
G01*
X96324D02*
G03*
X97656Y99542I-1067J3956D01*
G01*
X44362Y105296D02*
G03*
X44362Y101371I6712J-1963D01*
G01*
X45243Y104977D02*
G03*
X45243Y101708I5788J-1634D01*
G01*
X50906D02*
G03*
X50906Y104977I-5992J1634D01*
G01*
X51743Y101365D02*
G03*
X51743Y105313I-6697J1974D01*
G01*
X27133Y107589D02*
G03*
X26244Y106364I1277J-1861D01*
G01*
X71195Y101256D02*
G03*
X70210Y102890I-1795J32D01*
G01*
X90756Y101862D02*
G03*
X91498Y100462I3170J783D01*
G01*
X97265Y100456D02*
G03*
X98025Y101857I-2341J2178D01*
G01*
X98970Y101621D02*
G03*
X99172Y102879I-6278J1654D01*
G01*
X21618Y105383D02*
G03*
X21598Y105165I5190J-582D01*
G01*
X20691Y105377D02*
G03*
X20666Y104765I7169J-593D01*
G01*
X21062Y106827D02*
G03*
X20888Y106409I2601J-1322D01*
G01*
X22275Y106797D02*
G03*
X21980Y106513I622J-942D01*
G01*
X27183Y105771D02*
G03*
X27097Y104685I5859J-1007D01*
G01*
X28034Y106936D02*
G03*
X27478Y106513I427J-1139D01*
G01*
X31577Y106444D02*
G03*
X30707Y107262I-4481J-3893D01*
G01*
X35076Y105377D02*
G03*
X35048Y104765I6454J-597D01*
G01*
X37087Y106930D02*
G03*
X36441Y106496I484J-1417D01*
G01*
X41187Y128612D02*
G03*
X40888Y127890I723J-723D01*
G01*
X45870Y106142D02*
G03*
X45243Y104977I2477J-2084D01*
G01*
X45243Y101708D02*
G03*
X45870Y100530I3201J948D01*
G01*
X50906Y104977D02*
G03*
X50285Y106142I-3050J-879D01*
G01*
Y100530D02*
G03*
X50906Y101708I-2530J2087D01*
G01*
X57595Y128640D02*
G03*
X57659Y128096I444J-224D01*
G01*
X65899Y105450D02*
G03*
X65830Y104376I7604J-1025D01*
G01*
X65082Y106062D02*
G03*
X64897Y104685I4596J-1320D01*
G01*
X65676Y107103D02*
G03*
X65082Y106062I1845J-1742D01*
G01*
X66963Y106867D02*
G03*
X66221Y106301I587J-1539D01*
G01*
X69146Y128028D02*
G03*
X68870Y128142I-276J-276D01*
G01*
X70037Y127890D02*
G03*
X69738Y128612I-1022J0D01*
G01*
X70063Y106759D02*
G03*
X69918Y106825I-927J-1841D01*
G01*
X69475Y99628D02*
G03*
X69659Y99658I-472J3398D01*
G01*
X70571Y100028D02*
G03*
X71195Y101256I-795J1176D01*
G01*
X71909Y100143D02*
G03*
X72122Y101165I-2187J990D01*
G01*
X75507Y106496D02*
G03*
X74804Y106913I-2021J-2604D01*
G01*
X76624Y105246D02*
G03*
X76129Y105913I-3844J-2333D01*
G01*
X81126Y100475D02*
G03*
X81208Y101350I-3690J786D01*
G01*
X81829Y99440D02*
G03*
X82078Y100267I-1885J1017D01*
G01*
X82078Y100267D02*
G03*
X82135Y101428I-10046J1080D01*
G01*
X89576Y104146D02*
G03*
X89795Y101838I10970J-124D01*
G01*
X90503Y104183D02*
G03*
X90756Y101862I8716J-227D01*
G01*
X98025Y101857D02*
G03*
X98285Y104183I-8336J2108D01*
G01*
X97656Y99542D02*
G03*
X98497Y100478I-1870J2523D01*
G01*
X99206Y103648D02*
G03*
X99212Y104024I-19045J515D01*
G01*
X21646Y105587D02*
G03*
X21618Y105383I4278J-687D01*
G01*
X21725Y105952D02*
G03*
X21682Y105777I2831J-797D01*
G01*
X20888Y106409D02*
G03*
X20765Y105925I3695J-1204D01*
G01*
X21682Y105777D02*
G03*
X21646Y105587I3496J-756D01*
G01*
X20765Y105925D02*
G03*
X20691Y105377I5192J-981D01*
G01*
X21598Y105165D02*
G03*
X21583Y104685I6815J-466D01*
G01*
X22532Y106930D02*
G03*
X22398Y106869I535J-1357D01*
G01*
X22679Y106980D02*
G03*
X22532Y106930I469J-1612D01*
G01*
X22837Y107019D02*
G03*
X22679Y106980I389J-1921D01*
G01*
X23007Y107047D02*
G03*
X22837Y107019I288J-2290D01*
G01*
X22252Y107859D02*
G03*
X21880Y107697I640J-1987D01*
G01*
X22398Y106869D02*
G03*
X22275Y106797I595J-1151D01*
G01*
X23144Y107987D02*
G03*
X22252Y107859I-40J-2882D01*
G01*
X21837Y106261D02*
G03*
X21777Y106114I1811J-818D01*
G01*
X21904Y106394D02*
G03*
X21837Y106261I1433J-811D01*
G01*
X21980Y106513D02*
G03*
X21904Y106394I1128J-800D01*
G01*
X23380Y107069D02*
G03*
X23188Y107064I-3J-3227D01*
G01*
X25513Y107160D02*
G03*
X24729Y107657I-2406J-2930D01*
G01*
X28869Y107073D02*
G03*
X28034Y106936I-65J-2208D01*
G01*
X29936Y107726D02*
G03*
X29244Y107937I-1179J-2619D01*
G01*
X35158Y105925D02*
G03*
X35076Y105377I4686J-987D01*
G01*
X35296Y106409D02*
G03*
X35158Y105925I3363J-1220D01*
G01*
X36203Y112796D02*
G03*
X36480Y112679I279J272D01*
G01*
X36480Y113465D02*
G03*
X36092Y113076I2J-390D01*
G01*
Y113076D02*
G03*
X36203Y112796I390J-7D01*
G01*
X36811Y107859D02*
G03*
X36398Y107697I684J-2365D01*
G01*
X36441Y106496D02*
G03*
X36085Y105754I1391J-1124D01*
G01*
X38487Y107930D02*
G03*
X37803Y107987I-701J-4237D01*
G01*
X40068Y107245D02*
G03*
X39248Y107713I-2265J-3020D01*
G01*
X40773Y113578D02*
G03*
X40888Y113853I-274J275D01*
G01*
X40498Y113465D02*
G03*
X40773Y113578I2J388D01*
G01*
X40643Y112679D02*
G03*
X41665Y113703I-2J1024D01*
G01*
X54393Y128612D02*
G03*
X53670Y128912I-723J-723D01*
G01*
X53915Y127747D02*
G03*
X53528Y128137I-390J0D01*
G01*
X53915Y113712D02*
G03*
X54211Y112983I1024J-9D01*
G01*
X54807Y113571D02*
G03*
X55082Y113458I274J275D01*
G01*
X54693Y113846D02*
G03*
X54807Y113571I388J0D01*
G01*
X58070Y128912D02*
G03*
X57595Y128640I-31J-496D01*
G01*
X58710Y128086D02*
G03*
X58720Y127979I91J-46D01*
G01*
X64836Y112679D02*
G03*
X65111Y112793I0J390D01*
G01*
X65225Y113068D02*
G03*
X65111Y113344I-390J0D01*
G01*
D02*
G03*
X64836Y113458I-276J-276D01*
G01*
X65111Y112793D02*
G03*
X65225Y113068I-276J276D01*
G01*
X66394Y100610D02*
G03*
X67114Y100102I3207J3777D01*
G01*
X68650Y107982D02*
G03*
X68321Y107987I-315J-8583D01*
G01*
X67884Y104342D02*
G03*
X67400Y104367I-915J-12837D01*
G01*
X68342Y104300D02*
G03*
X67884Y104342I-1239J-10916D01*
G01*
X68330Y103410D02*
G03*
X67979Y103438I-944J-9418D01*
G01*
X68660Y103370D02*
G03*
X68330Y103410I-1127J-7918D01*
G01*
X67633Y98942D02*
G03*
X68492Y98731I1399J3834D01*
G01*
X69738Y128612D02*
G03*
X69015Y128912I-723J-723D01*
G01*
X69260Y127752D02*
G03*
X69146Y128028I-390J0D01*
G01*
X69648Y117368D02*
G03*
X69923Y117482I0J390D01*
G01*
D02*
G03*
X70037Y117758I-276J276D01*
G01*
X69260Y117758D02*
G03*
X69373Y117482I388J-2D01*
G01*
D02*
G03*
X69648Y117368I275J274D01*
G01*
X69397Y113510D02*
G03*
X69479Y113467I133J155D01*
G01*
X68776Y113050D02*
G03*
X69479Y112679I743J556D01*
G01*
X69592Y106933D02*
G03*
X69410Y106976I-857J-3249D01*
G01*
X69761Y106883D02*
G03*
X69592Y106933I-895J-2701D01*
G01*
X69918Y106825D02*
G03*
X69761Y106883I-917J-2234D01*
G01*
X70043Y107769D02*
G03*
X69797Y107836I-1174J-3804D01*
G01*
X69797D02*
G03*
X69535Y107891I-1082J-4511D01*
G01*
X69008Y107038D02*
G03*
X68788Y107057I-594J-5472D01*
G01*
X69215Y107011D02*
G03*
X69008Y107038I-712J-4627D01*
G01*
X69257Y107933D02*
G03*
X68962Y107964I-794J-6278D01*
G01*
X69410Y106976D02*
G03*
X69215Y107011I-798J-3889D01*
G01*
X69535Y107891D02*
G03*
X69257Y107933I-958J-5333D01*
G01*
X69912Y103961D02*
G03*
X69559Y104071I-1875J-5401D01*
G01*
X69179Y104164D02*
G03*
X68774Y104240I-1666J-7760D01*
G01*
X69559Y104071D02*
G03*
X69179Y104164I-1793J-6489D01*
G01*
X69775Y103096D02*
G03*
X69527Y103181I-1411J-3682D01*
G01*
X70002Y102998D02*
G03*
X69775Y103096I-1410J-2991D01*
G01*
X69258Y103255D02*
G03*
X68969Y103318I-1342J-5477D01*
G01*
X69527Y103181D02*
G03*
X69258Y103255I-1391J-4506D01*
G01*
X69834Y99698D02*
G03*
X70157Y99803I-635J2486D01*
G01*
X69659Y99658D02*
G03*
X69834Y99698I-582J2984D01*
G01*
X69078Y99592D02*
G03*
X69281Y99606I-185J4403D01*
G01*
X68867Y99588D02*
G03*
X69078Y99592I2J5003D01*
G01*
X69281Y99606D02*
G03*
X69475Y99628I-341J3870D01*
G01*
X70483Y107597D02*
G03*
X70271Y107689I-1290J-2689D01*
G01*
X71424Y106784D02*
G03*
X70857Y107377I-1852J-1204D01*
G01*
X70857Y107377D02*
G03*
X70483Y107597I-1440J-2016D01*
G01*
X70937Y105507D02*
G03*
X70195Y106685I-1566J-164D01*
G01*
X70814Y103530D02*
G03*
X70239Y103834I-2106J-3283D01*
G01*
X70451Y98850D02*
G03*
X71326Y99352I-836J2470D01*
G01*
X71763Y105984D02*
G03*
X71700Y106204I-2928J-728D01*
G01*
D02*
G03*
X71622Y106410I-2582J-854D01*
G01*
X71848Y105507D02*
G03*
X71763Y105984I-3590J-387D01*
G01*
X74408Y107937D02*
G03*
X73797Y107987I-643J-4098D01*
G01*
X73706Y107073D02*
G03*
X73430Y107051I-10J-1605D01*
G01*
X75847Y107279D02*
G03*
X75105Y107726I-2435J-3203D01*
G01*
X79592Y99696D02*
G03*
X79614Y99694I86J1141D01*
G01*
X79548Y99700D02*
G03*
X79592Y99696I118J989D01*
G01*
X79525Y99703D02*
G03*
X79548Y99700I129J885D01*
G01*
X79919Y98787D02*
G03*
X80036Y98780I271J3833D01*
G01*
X81466Y128836D02*
G03*
X81078Y128446I2J-390D01*
G01*
X80964Y113580D02*
G03*
X81078Y113855I-274J275D01*
G01*
X80689Y113467D02*
G03*
X80964Y113580I2J388D01*
G01*
X80885Y99972D02*
G03*
X81126Y100475I-865J724D01*
G01*
X80488Y99744D02*
G03*
X80885Y99972I-144J711D01*
G01*
X80310Y98776D02*
G03*
X81273Y98942I93J2322D01*
G01*
X81855Y128446D02*
G03*
X81741Y128722I-390J0D01*
G01*
X99192Y103266D02*
G03*
X99206Y103648I-21770J970D01*
G01*
X54657Y110501D02*
X63175Y100113D01*
X58720Y127979D02*
X69397Y113510D01*
X57659Y128096D02*
X68776Y113050D01*
X58803Y128142D02*
X68870D01*
X58070Y128912D02*
X69015D01*
X36480Y112679D02*
X40643D01*
X36480Y113465D02*
X40498D01*
X54935Y112679D02*
X64836D01*
X55082Y113458D02*
X64836D01*
X53707Y111417D02*
X62426D01*
X54657Y110501D02*
X62426D01*
X53470Y98902D02*
X63175D01*
X53707Y110193D02*
X62240Y99816D01*
X41910Y128912D02*
X53670D01*
X42053Y128137D02*
X53528D01*
X53470Y99816D02*
X62240D01*
X69479Y112679D02*
X80833D01*
X69479Y113467D02*
X80689D01*
X82135Y106845D02*
X83276D01*
X82135Y107759D02*
X83276D01*
X31577D02*
X32505D01*
X31577Y98902D02*
X32505D01*
X40930Y111417D02*
X41858D01*
X40930Y98902D02*
X41858D01*
X65830Y104376D02*
X66889D01*
X65824Y103461D02*
X67217D01*
X70937Y105507D02*
X71848D01*
X81208Y110082D02*
X82135D01*
X76624Y107759D02*
X77552D01*
X79744Y106847D02*
X81208D01*
X79744Y107761D02*
X81208D01*
X80154Y98777D02*
X80193Y98776D01*
X76624Y98902D02*
X77552D01*
X85428Y111417D02*
X86356D01*
X85428Y98902D02*
X86356D01*
X89576Y111417D02*
X90503D01*
X98285D02*
X99213D01*
X21583Y98902D02*
Y104685D01*
X20655Y98902D02*
X20666Y104765D01*
X27097Y98898D02*
Y104685D01*
X26170Y98898D02*
Y105344D01*
X31577Y98902D02*
Y105348D01*
X32505Y98902D02*
Y107759D01*
X35976Y98902D02*
Y104685D01*
X35048Y98902D02*
Y104765D01*
X40930Y98902D02*
Y105370D01*
X41665Y113703D02*
Y127747D01*
X40888Y113853D02*
Y127890D01*
X41858Y98902D02*
Y111417D01*
X53915Y113712D02*
Y127747D01*
X54693Y113846D02*
Y127890D01*
X64897Y98902D02*
Y104685D01*
X70037Y117758D02*
Y127890D01*
X69260Y117758D02*
Y127752D01*
X76624Y98902D02*
Y105246D01*
X77552Y98902D02*
Y107759D01*
X81208Y101350D02*
Y106847D01*
X81078Y113855D02*
Y128446D01*
X82135Y101428D02*
Y106845D01*
X81855Y113703D02*
Y128446D01*
X85428Y98902D02*
Y111417D01*
X86356Y98902D02*
Y111417D01*
X89576Y104146D02*
Y111417D01*
X90503Y104183D02*
Y111417D01*
X98285Y104183D02*
Y111417D01*
X99213Y104148D02*
Y111417D01*
X31577Y106444D02*
Y107759D01*
X40925Y106444D02*
X40930Y111417D01*
X65824Y101154D02*
Y103461D01*
X76624Y106537D02*
Y107759D01*
X53707Y110193D02*
Y111417D01*
X53470Y98902D02*
Y99816D01*
X62426Y110501D02*
Y111417D01*
X63175Y98902D02*
Y100113D01*
X65824Y98902D02*
Y100044D01*
X79525Y99703D02*
X79527Y98822D01*
X81208Y107761D02*
Y110082D01*
X82135Y107759D02*
Y110082D01*
X20655Y98902D02*
X21583D01*
X26170Y98898D02*
X27097D01*
X35048Y98902D02*
X35976D01*
X64897D02*
X65824D01*
X73706Y107073D02*
X74042D01*
X73439Y107971D02*
X73625Y107987D01*
X73430Y107051D02*
X73439Y107971D01*
X73625Y107987D02*
X73797D01*
X79744Y106847D02*
Y107761D01*
X79733Y99692D02*
X79952D01*
X79695Y99692D02*
X79733Y99692D01*
X79676Y99692D02*
X79695Y99692D01*
X79655Y99693D02*
X79676Y99692D01*
X79635Y99693D02*
X79655Y99693D01*
X79614Y99694D02*
X79635Y99693D01*
X79527Y98822D02*
X79645Y98809D01*
X79723Y98802D01*
X79801Y98795D01*
X79880Y98789D01*
X79919Y98787D01*
X80036Y98780D02*
X80075Y98779D01*
X80114Y98778D01*
X80154Y98777D01*
X80193Y98776D02*
X80232Y98776D01*
X80271Y98776D01*
X80310Y98776D01*
X83276Y106845D02*
Y107759D01*
X99212Y104024D02*
X99213Y104148D01*
X99172Y102879D02*
X99192Y103266D01*
M02*
