M48
;Layer_Color=9474304
;FILE_FORMAT=2:5
INCH,TZ
;TYPE=PLATED
T01F00S00C0.02703
T02F00S00C0.02705
%
G90
G05
T01
G00X41181Y39729
M15
G01Y52160
M16
G00X52485Y38071
M15
G01X64916
M16
G00X76221Y39729
M15
G01Y52160
M16
G00X76221Y58627
M15
G01Y71058
M16
G00X52485Y72716
M15
G01X64916
M16
G00X52485Y55394
M15
G01X64916
M16
G00X41575Y58627
M15
G01Y71058
M16
G00X34095Y171845
M15
G01Y159414
M16
G00X69528Y171845
M15
G01Y159414
M16
G00X69528Y190743
M15
G01Y178312
M16
G00X69528Y152948
M15
G01Y140517
M16
G00X69528Y263184
M15
G01Y250753
M16
G00X69528Y282082
M15
G01Y269651
M16
G00X69528Y300979
M15
G01Y288548
M16
G00X69528Y373420
M15
G01Y360989
M16
G00X69528Y392318
M15
G01Y379887
M16
G00X69528Y411215
M15
G01Y398784
M16
T02
G00X83307Y171844
M15
G01Y159415
M16
M17
M30
